<?xml version="1.0" encoding="utf-8"?>
<!-- Generator: Adobe Illustrator 21.1.0, SVG Export Plug-In . SVG Version: 6.00 Build 0)  -->
<svg version="1.1" id="Layer_1" xmlns="http://www.w3.org/2000/svg" xmlns:xlink="http://www.w3.org/1999/xlink" x="0px" y="0px"
	 viewBox="0 0 78.7 111.7" enable-background="new 0 0 78.7 111.7" xml:space="preserve">
<g>
	<path d="M77.3,35.7c0.1-1.3-0.8-2.3-0.5-3.6c-0.1,0-0.1-0.1,0-0.1c-0.5-1.1-0.6-2.3-0.8-3.5c-0.5-0.9-0.5-1.9-0.6-2.9
		c-1-0.7-0.6-1.9-0.9-2.9c-1.1-3.7-3-6.8-6-9.3c-0.2-0.1-0.3-0.3-0.4-0.5c-0.7-0.4-1.2-1-1.6-1.7c-1.3-1.4-3.1-2.1-4.6-3.2
		c-0.6-0.4-1.2-0.6-1.8-1c-1.2-0.2-2-0.9-3-1.5c-0.8-0.2-1.8,0.1-2.6-0.4c-0.2,0-0.4,0-0.6-0.2l0,0c-1-0.3-2-0.5-3-1
		c-0.7,0-1.5,0.3-2.2-0.3c-0.5,0.2-0.9-0.2-1.4-0.3C45,2.9,42.6,2,40.1,2.2c-2.8,0.2-5.5,0.5-8.2,1.3C31.5,3.8,31,4,30.4,3.9
		c-0.7,0.2-1.4,0.5-2.1,0.7l-0.1-0.1l0.1,0.1c-1.7,1.1-3.4,2-5.4,2.5c-0.1,0-0.2,0-0.3,0c-0.1,0.1-0.2,0.2-0.3,0.3l0,0
		c-0.8,1-2.1,0.8-3.1,1.6c-1.8,1.5-3.7,2.9-5.4,4.4C13.7,13.8,13.4,14,13,14c-0.9,1-1.4,2.4-2.5,3.3c0,0-0.1,0-0.1,0.1
		c0.1,0.1,0,0.2-0.2,0.4v0.1C10,18,9.8,18.1,9.7,18.3c-1.3,2.1-2.8,4.1-3.7,6.5c-0.4,1.1-0.8,2.1-1.2,3.2c-0.1,0.3,0.1,0.8-0.4,0.9
		V29l0,0c-0.1,1.3-0.7,2.4-1.1,3.5c0.2,1.4-0.4,2.7-0.7,4c-0.4,1.9-0.2,3.8-0.3,5.7c0,0.3-0.1,0.6-0.1,0.9c0.1,0.1,0.1,0.1,0,0.2
		c0.2,2.8,0.3,5.6,0.7,8.3c0.6,4.3,1.9,8.4,3.6,12.5C6.7,64.7,7,65.2,7,65.8c1.3,1.1,1.5,2.8,2.5,4c0.6,0.7,1.2,1.4,1.7,2.2
		c0.9,1,1.5,2.1,1.9,3.4c0.1,0.2,0.2,0.4,0.4,0.6l0.1,0.1c0.2,0.1,0.3,0.1,0.3,0.3v0.1c0.4,0.2,0.7,0.5,1,0.9l0.1,0.1
		c0.1,0.1,0.1,0.1,0.2,0.2l0.1,0.1c1.9,1.3,3.6,2.9,5.6,4.1c1.5,0.9,3.3,1,4.8,1.8c1.7,0.3,3.4,0.5,5.2,0.8c1.9-0.2,3.8,0.4,5.7,0.3
		c0.5-0.4,1.2-0.2,1.8-0.3l0,0c3.2-0.8,6.4-1.5,9.5-2.7c1.4-0.5,2.6-1.3,4-1.8c1.6-0.9,3.1-1.8,4.7-2.8l0,0c1.4-1.5,3-2.9,4.7-4.2
		c1.3-1,2.4-2.1,3.5-3.2c1.6-2.1,2.9-4.3,4.2-6.6c3-5.3,6.2-10.6,7.4-16.8c0.3-1.8,0.3-3.7,1.2-5.4C77.3,39.3,77.2,37.5,77.3,35.7z
		 M75.8,39c0,0.2-0.1,0.3-0.1,0.5c0.1,1.2-0.1,2.5-0.5,3.6c0.3,0.9-0.1,1.8-0.3,2.7c-0.4,1.6-0.9,3.3-1.4,4.9c0,1.2-0.6,2.1-1.1,3.1
		c-0.8,1.8-1.7,3.6-2.9,5.2c-0.9,1.6-1.8,3.3-2.8,4.9c-0.6,0.6-0.8,1.5-1.4,2.1v0.1c-0.5,0.9-0.9,1.8-1.7,2.5c-1,1.7-2.7,2.6-4,3.9
		c-2.4,2.2-4.9,4.4-7.9,5.8c-2.3,1.2-4.6,2.5-7.2,2.8c-1.5,1.1-3.2,1.2-4.9,1.6c-5.3,1.1-10.5,0.3-15.7-1.1
		c-1.8-0.5-3.3-1.4-4.6-2.8c-1.4-0.8-2.6-1.8-3.7-3c-0.5-0.3-1-0.6-1.3-1.2c-0.9-2.3-2.5-4.1-3.8-6.1c-1.5-2.3-2.5-4.6-3.4-7
		c-0.5-1.6-1-3.2-1.3-4.9l0,0c-1-0.9-0.8-2.2-0.9-3.4c-0.6-0.9-1-1.9-0.7-3c-0.4-1.5-0.1-3.1-0.3-4.7c0-0.5,0-0.9,0-1.4
		c0-2.8-0.4-5.7,0.3-8.5c0.1-0.5,0.1-1.2,0.8-1.3c-0.3-2.4,1-4.5,1.7-6.7c0.9-2.7,2-5.3,3.8-7.6c1.5-2.3,3-4.5,5.2-6.2
		c1.7-1.4,3.3-3.1,5.4-3.9c0.2-0.1,0.5-0.1,0.8-0.1c0-0.2,0.2-0.2,0.3-0.2c0.1,0,0.1-0.1,0.2,0C22.6,9.4,22.6,9,23,9.4
		c0.2-0.1,0.5-0.2,0.7-0.3c1.5-1.5,3.4-2.2,5.5-2.7c1.2-0.4,2.3-1.1,3.6-1.5c4.1-1.5,8.3-1.1,12.4-0.6c1,0.1,2,0.4,2.7,1.3
		c0.2,0.3,0.6,0.3,0.9,0.2c0.9-0.7,1.9-0.7,3-0.2c1.5,0.8,3.2,1,4.9,1.3C58,7.1,59,8.1,60.2,8.6c0.2-0.1,0.3,0,0.4,0.2l0.1,0.1
		C60.7,9,61,9,61,9.4l0,0c0.3-0.1,0.4,0,0.5,0.3l0,0c0.2,0,0.3,0.1,0.3,0.3l0,0c2,0.5,3.2,2.1,4.5,3.6c2.1,1.2,3.6,3,4.7,5
		c1.1,1.6,1.8,3.3,2.1,5.2c0.5,0.6,0.6,1.2,0.5,2c1,1.6,0.8,3.5,1.2,5.2c0.4,0.9,0.4,1.9,0.5,2.8C75.7,35.5,76,37.2,75.8,39z"/>
	<path fill="#E39D49" d="M2.1,43.1c0.1,0.1,0.1,0.1,0,0.2C2.1,43.3,2.1,43.2,2.1,43.1C2.1,43.2,2.1,43.1,2.1,43.1z"/>
	<path fill="#E3BC8D" d="M59.6,5.6c-0.2,0.6,0.5,0.8,0.5,1.3c-1.2-0.2-2-0.9-3-1.5C58.1,4.5,58.8,5.4,59.6,5.6z"/>
	<path fill="#E3BC8D" d="M54.1,4.8c-1-0.3-2-0.5-3-1C52.4,3.3,53.4,3.7,54.1,4.8z"/>
	<path fill="#E3BC8D" d="M54.6,5c-0.2,0-0.4,0-0.6-0.2C54.3,4.7,54.5,4.7,54.6,5z"/>
	<path fill="#E4E18B" d="M45.9,2.1c-0.2,0.2-0.3,0.2-0.4-0.1C45.7,2,45.8,2,45.9,2.1z"/>
	<path fill="#F15A29" d="M4,45.6c0-0.5,0-0.9,0-1.4c0.5-0.3,0.6-0.8,0.4-1.2c-0.2-0.7-0.1-1.3,0-1.9c0.2-1,0.7-2.1-0.1-3.1
		c-0.2-0.3-0.1-0.6,0.1-0.9c0.5-0.8,0.5-1.8,0.6-2.7c-0.3-2.4,1-4.5,1.7-6.7c0.9-2.7,2-5.3,3.8-7.6c0.3,0.1,0.6-0.1,0.8-0.3
		c0.7,0,1.6-0.1,0.6,1c-0.4,0.4-0.4,1-0.8,1.4c-0.2,0.2-0.2,0.5,0,0.5c1.4,0.3,0.4,1.1,0.4,1.7c0,0.5-0.4,1.2,0.2,1.2
		c0.6,0.1,1.7,0.2,1.6-1.1c-0.1-0.7,0.1-1.3,1-1.2c0.4,0,0.8-0.2,0.6-0.5c-0.3-0.6,0.2-0.6,0.4-1c0.7-1.2,2-0.4,2.9-1.1
		c0.7-0.6,0.8-0.7,0.1-1.2c-0.8-0.5-0.7-0.9,0.1-1.2c0.7-0.3,1.3-0.6,1.3-1.6c0-0.2,0.1-0.5,0.3-0.5c1.4-0.2,1-0.8,0.4-1.3
		c1-1.2,2.3-1.8,3.7-2.4c0.1,0,0.2-0.2,0.2-0.3c-0.4-1.8,0.6-0.7,1.1-0.5c0.6,0.2,1.2,0.2,1.8,0c0.8-0.4,1.7-0.4,2.4-0.8
		c1.7-1,4-1.5,4.5-4c0.1-0.5,0.4-0.9,1-0.7C36.4,6.7,37.7,7,39,5.8l0,0c0.8,1.6,1.9,2,3.3,1.3C42.8,6.8,43,7,43.1,7.6
		s-0.2,1-0.6,1.3c-2.5-0.3-5-0.2-7.5,0.5c-3,0.8-5.4,2.6-7.9,4.3c-0.5,0.3-0.6,0.7-0.5,1.2V15c-0.4,0-0.8,0-0.9,0.6
		c-0.5,0.8-1.5,1.1-2.1,1.7c-1.6,2-3.1,4.1-4.9,5.9s-2.4,4.2-3.2,6.4c-1.2,3.3-2.3,6.7-2.5,10.2c-1.2,0.9-1.6,2.2-1.5,3.6
		c0,1.3,0.2,2.7,0.4,4c0.2,0.9,0.2,1.9,0.8,2.7c1.4,2.3,1.6,5,2.8,7.3c-0.5,0.5-0.2,0.7,0.3,0.8l0,0c0,0.5-0.1,0.9,0.2,1.3
		c0.8,1.3-0.7,1.6-1.1,2.4c-0.3,0.6-1,0.6-1.4,0.3s-0.7-0.4-0.9,0c-0.3,0.4-0.6,0.9-0.7,1.4c0,0.2,0.5,0.4,0.9,0.3
		c0.2-0.1,0.5-0.1,0.5,0.3c0,0.3-0.2,0.4-0.4,0.4c-0.5,0-0.9,0-1.3-0.2c-0.3-0.2-0.6-0.4-1-0.2C9.5,64.5,9,64,9,63
		c0-0.7,0-1.4-0.7-1.9S7.8,59.8,8.1,59c0.1-0.1,0.7-0.1,0.2-0.3c-1-0.4-1.1-1.9-2.4-2l0,0C6,55.5,5.5,54.4,5,53.3
		c-0.6-0.9-1-1.9-0.7-3c0.5-1.5,0.1-2.9,0.1-4.4C4.4,45.8,4.1,45.7,4,45.6z"/>
	<path fill="#F15A29" d="M72.3,53.7c-0.8,1.8-1.7,3.6-2.9,5.2v-0.1l-0.1,0.1c-0.3,0.2-0.4,0.5-0.8,0.6c-0.1-0.7,0.1-1.3,0.4-1.8
		c0.2-0.4,0.1-0.7-0.3-0.9c-0.5-0.2-0.6,0.2-0.7,0.6c-0.4,0.9-0.3,1.7,0.6,2.2c-0.3,1.3-1.7,2.1-1.9,3.4c-0.1,0.1-0.2,0.3-0.2,0.4
		l0,0c-0.2,0-0.4-0.1-0.6-0.1c-0.1-0.8-0.8-0.4-1.2-0.6c-0.3-0.2-1-0.7-0.4-0.9c1.2-0.5,0.6-1.1,0.4-1.7c-0.1-0.4-0.4-0.7-0.3-1.1
		c0.3-1-0.6-2.4-1.7-2.4c-1-0.1-1-0.5-0.9-1.2c0.1-0.1,0.2-0.3,0.2-0.4c0.4,0.2,0,0.9,0.6,0.9c0.3,0,0.6-0.3,0.7-0.6
		c0.3-1.5,1.5-2.3,2.5-3.1c0.7-0.6,0.8-1.2,0.4-1.9c-0.3-0.7-0.9-1.3,0.4-1.6c0.2,0,0.3-0.3,0.1-0.6c-0.6-0.6,0-1,0.2-1.5
		c0.3-1,1-2.1-0.2-3c0-0.1-0.1-0.1,0-0.2c0.7-0.1,0.6-0.7,0.5-1.2l0,0c0.7,0.1,1,0,1.2-0.9c0.2-1,0-2,0.1-3c0.2-2,0.4-4-0.4-5.9
		c0.1-1.3-0.8-2.4-0.6-3.7c0.3-0.2,0.2-0.6,0.2-0.9c0.3-1.9-1.1-3.3-1.7-5c-0.6-1.4-1.3-2.9-1.9-4.3c-0.4-0.8-0.8-1.6-1.4-2.2
		c-1.8-1.6-3.5-3.4-5.7-4.6c0.4-0.4,0.8-0.8,1.3-1.2c-2.1-0.7-3.2-2.8-5.5-2.8l-0.1-0.1c-1.3-0.4-2.2-1.8-3.8-1.2
		c0,0-0.1-0.2-0.1-0.4c0.9-0.7,1.9-0.7,3-0.2c1.5,0.8,3.2,1,4.9,1.3c1.3,0.2,2.3,1.2,3.5,1.7c0.1,0.1,0.3,0.1,0.4,0.2l0.1,0.1
		c0,0.4,0.2,0.5,0.6,0.4l0,0c0.1,0.3,0.3,0.3,0.5,0.3l0,0c0.1,0.1,0.2,0.2,0.3,0.3l0,0c0,0.1,0,0.3,0.1,0.4c1.2,0.7,2.3,1.5,3,2.7
		c0.3,0.5,0.8,0.6,1.4,0.5c2.1,1.2,3.6,3,4.7,5c-0.2,0.4-0.2,0.8,0,1.3c0.7,1.4,1.1,2.9,1.9,4.1c0,0.6-0.4,1.4,0.6,1.7
		c0,1.7,0.7,3.3,0.4,5c-0.1,0.3,0.2,0.7,0.6,0.9c0,0.9,0.3,1.7,0.6,2.4c0.1,0.4,0.1-0.2,0.2-0.2c0.3,1.7,0.6,3.4,0.4,5.2
		c-0.3,0-0.4,0.2-0.4,0.5l0,0c-0.7,0.3-0.7,0.6-0.1,0.9c-0.1,0.5-0.2,1-0.3,1.5c-0.3,0.1-0.5,0.2-0.8,0.3c-0.7-0.2-1.6-2.2-1.2-3
		c0.7-1.8,0-3.6-0.2-5.4c0-0.4-0.3-0.8-0.8-1.2c-0.6-0.5-1-1.2-1.7-1.7c-0.2-0.2-0.4-0.6,0.1-0.7c0.4-0.1,1.3-0.9,1.3-1.3
		c0-0.3,0.1-0.7-0.2-0.9c-0.3-0.3-0.7-0.1-1,0.2c-0.3,0.2-0.7,0.8-1,0.1c-0.2-0.3-0.3-1,0.3-1.2c1.6-0.5,0-0.9,0.1-1.4
		c-1.3,0.9-0.8,2.5-1.7,3.5c-0.2,0.2-0.1,0.8,0.5,0.9c0.4,0,0.8,0.1,0.8,0.6c0,1.9,0.3,3.8-0.4,5.7c-0.2,0.7-0.4,1.4,0.5,1.8
		c1.3,0.6,1.1,1.8,0.9,2.7c-0.3,0.8-0.3,1.3,0.4,1.9c0.8,0.7,0.5,1.5-0.5,1.8c-0.7,0.2-0.9,0.7-0.7,1.1c0.5,0.8,0.2,1.7,0.8,2.6
		c0.8,1.1,1.5,1,2.4,1.2c0.1,0.1,0.2,0.2,0.3,0.3c-0.1,0.3-0.4,0.5-0.3,0.8C72.8,51.6,72.1,52.6,72.3,53.7z"/>
	<path fill="#BA2429" d="M48.6,5.9c0,0.1,0.1,0.4,0.1,0.4c1.6-0.5,2.6,0.8,3.8,1.2l0.1,0.1c2.3,0,3.4,2.2,5.5,2.8
		c-0.5,0.5-0.9,0.9-1.3,1.2c-1.8-0.6-3.7-1.3-5.5-1.9c-1.2-0.6-2.4-0.8-3.7-0.5c-1,0.2-2,0-2.9-0.3l0,0c-0.1-0.2-0.2-0.4-0.4-0.4
		c-0.1,0-0.1,0.2-0.1,0.3C43.6,8.9,43.1,9,42.5,9c0-0.1,0-0.1,0-0.2c0.4-0.3,0.7-0.7,0.6-1.3C43,7,42.8,6.8,42.3,7.1
		c-1.4,0.8-2.5,0.4-3.3-1.3c0.2,0,0.4-0.1,0.6-0.1c0,0,0-0.1-0.1-0.1c-0.2-0.1-0.4,0-0.5,0.2c-1.3,1.2-2.6,0.9-4,0.4
		c-0.5-0.2-0.9,0.3-1,0.7c-0.4,2.5-2.7,3-4.5,4c-0.7,0.4-1.6,0.4-2.4,0.8c-0.5,0.3-1.2,0.2-1.8,0c-0.6-0.2-1.5-1.2-1.1,0.5
		c0,0.1-0.1,0.3-0.2,0.3c-1.3,0.6-2.7,1.1-3.7,2.4c0.6,0.5,1,1.1-0.4,1.3c-0.3,0-0.3,0.3-0.3,0.5c0,0.9-0.6,1.3-1.3,1.6
		c-0.8,0.3-0.9,0.7-0.1,1.2c0.7,0.4,0.7,0.6-0.1,1.2c-0.9,0.7-2.2-0.1-2.9,1.1c-0.2,0.3-0.7,0.4-0.4,1c0.2,0.4-0.2,0.6-0.6,0.5
		c-0.9-0.1-1.1,0.5-1,1.2c0.2,1.3-1,1.2-1.6,1.1s-0.2-0.8-0.2-1.2c0-0.6,1-1.4-0.4-1.7c-0.3-0.1-0.2-0.4,0-0.5
		c0.5-0.4,0.5-1,0.8-1.4c1-1.1,0.1-1-0.6-1c0.5-0.5,0.6-1.5,1.4-1.5c0.6,0,0.7-0.2,0.6-0.6c-0.2-0.7,0.1-1,0.7-0.9
		c0.7,0.1,0.9-0.4,1.2-0.7c0.8-0.7,1.3-1.7,2.2-2.1c1-0.5,1.6-0.9,1.6-2.1c0-0.1,0.3-0.2,0.5-0.3c0.8-0.6,1.6-1.2,2.4-1.8l0,0
		c0.1-0.1,0.2-0.2,0.3-0.3c0.1,0,0.1-0.1,0.2,0c0.2-0.1,0.4-0.2,0.6-0.2c0.2-0.1,0.5-0.2,0.7-0.3c1.2-0.6,2.6-1.2,3.9-1.3
		c1.1-0.1,1.4-0.5,1.5-1.4c1.2-0.4,2.3-1.1,3.6-1.5c4.1-1.5,8.3-1.1,12.4-0.6c1,0.1,2,0.4,2.7,1.3C47.9,5.9,48.3,5.9,48.6,5.9z"/>
	<path fill="#E66128" d="M61.7,55.1c-0.1,0.7-0.1,1.2,0.9,1.2c1.1,0.1,2,1.5,1.7,2.4c-0.2,0.5,0.2,0.8,0.3,1.1
		c0.2,0.6,0.9,1.2-0.4,1.7c-0.6,0.2,0,0.7,0.4,0.9s1.1-0.1,1.2,0.6c-0.8,1-0.5,2-0.6,2.9V66c-0.6-0.1-0.8,0.6-1.4,0.5
		c-0.7,0.2-0.9,0.7-1,1.3c-0.1,0.5-0.1,1.3-0.7,1.3c-1.8,0-3.1,0.5-3.8,2.3c-0.1,0.2-0.4,0.3-0.6,0.5c-1.2,0.9-2.7,1.1-3.9,1.9
		c-0.7,0.5-1,1.4-2,1.5c-0.7,0.1-1.2,0.5-1.9,0.8c-1.7,0.6-3,2.3-5.1,1.8c-0.4-0.1-0.9,0.2-1.1,0.7l0,0c-1.6-0.4-2.4,1.1-3.8,1.4
		c-0.1,0-0.1,0.3-0.1,0.5c-0.4,0-0.7,0-1.1,0c-0.4-0.4-0.9-0.2-1.4-0.3c0-0.2,0.1-0.4,0.4-0.5c1.4-0.7,2.4-1.9,3.6-3
		c0.7-0.6,1.4-2,2.4-1.3c1.7,1.2,2.8-0.3,3.3-0.9c0.8-0.9,1.5-0.4,2-0.2c1,0.3-0.6,0.7-0.2,1.2c0.7,0.2,1.1,0,1.3-0.7
		c0.4-1.3-0.8-1.3-1.6-1.7c1.9-0.7,1.9-0.7,3.3,0c0.3,0.2,0.8,0.5,1-0.1c0.2-0.4,0.5-0.8-0.2-1.1c-0.2-0.1-0.3-0.3-0.2-0.6
		c0.1-0.1,0.3-0.1,0.3-0.1c0.8,0.9,1.1-0.4,1.7-0.3c0.2,0,0.2,0,0.3-1.3c0-0.3,0.3-0.5,0.5-0.6c0.9-0.6,1.3-1.4,0.8-2.4
		c0.1-0.1,0.1-0.1,0.2-0.2c1.6-0.1,2.3-1.5,3.3-2.4c0.3-0.3-0.1-0.7-0.2-1l0,0c0-0.2,0.1-0.5-0.2-0.6c-0.2-0.1-0.3,0.1-0.4,0.3
		c-0.2-0.1-0.3-0.1-0.5-0.2c-0.2-1.5,0.4-2.9,0-4.4l0,0c0.2,0,0.3-0.2,0.3-0.4C59.9,57.1,60.4,55.8,61.7,55.1z"/>
	<path fill="#DB404E" d="M5.8,56.6c1.2,0.1,1.4,1.5,2.4,2C8.6,58.8,8,58.8,8,58.9c-0.3,0.7-0.5,1.6,0.2,2.1C9,61.5,9,62.2,8.9,62.9
		c-0.1,1.1,0.5,1.6,1.6,1.2c0.4-0.1,0.7,0.1,1,0.2c0.4,0.2,0.9,0.2,1.3,0.2c0.3,0,0.4-0.1,0.4-0.4c0-0.3-0.2-0.4-0.5-0.3
		c-0.4,0.2-1-0.1-0.9-0.3c0.1-0.5,0.4-1,0.7-1.4s0.5-0.3,0.9,0c0.5,0.3,1.1,0.3,1.4-0.3c0.4-0.8,2-1.1,1.1-2.4
		c-0.3-0.4-0.2-0.9-0.2-1.3c0.6,0.2,1.1,0.7,1.9,0.7c0,1,1.2,1.3,1.3,2.2c0,0.6-0.4,0.8-0.8,1.1c-0.2,0-0.4,0-0.5,0.3l0,0
		c-1.2,0.3-1.9,1.1-2.1,2.4c-0.4,1.1,0.2,1.7,1.1,2.1c0.3,0.1,0.9-0.1,1,0.5c-0.1,1,0.1,2-1,2.7c-0.4,0.3-0.4,1.1-0.3,1.8
		c0.2,1.1,0.1,2.2-0.4,3.3c0,0.1,0,0.2,0.1,0.3c-0.2,0.1-0.5,0.2-0.7,0.3c-0.5-0.3-1-0.6-1.3-1.2c-0.9-2.3-2.5-4.1-3.8-6.1
		c-1.2-2.3-2.2-4.6-3.1-7C6.6,59.9,6.2,58.3,5.8,56.6z"/>
	<path fill="#DD2B28" d="M43.6,78.7c0.2-0.5,0.7-0.8,1.1-0.7c2.1,0.6,3.4-1.2,5.1-1.8c0.6-0.2,1.2-0.7,1.9-0.8c1-0.2,1.3-1.1,2-1.5
		c1.2-0.8,2.7-1,3.9-1.9c0.2-0.2,0.6-0.3,0.6-0.5c0.6-1.8,2-2.3,3.8-2.3c0.6,0,0.6-0.8,0.7-1.3c0.1-0.6,0.3-1.1,1-1.3
		c0.3,0.7-0.8,1.2-0.3,1.9c-1,1.7-2.7,2.6-4,3.9c-2.4,2.2-4.9,4.4-7.9,5.8c-2.3,1.2-4.6,2.5-7.2,2.8c-0.8-0.1-1.3-0.4-1-1.6
		c-0.6,0.5-0.9,1.5-1.2,1.2c-0.9-0.6-1.6,0.1-2.3,0c0-0.2,0-0.5,0.1-0.5C41.2,79.8,42.1,78.3,43.6,78.7c0.4,1,0.9,0.5,1.5,0.3
		C44.6,78.6,44.1,78.7,43.6,78.7z"/>
	<path fill="#DB404E" d="M39.8,80.6c0.8,0.2,1.5-0.5,2.3,0c0.3,0.2,0.6-0.7,1.2-1.2c-0.4,1.2,0.2,1.5,1,1.6
		c-1.5,1.1-3.2,1.2-4.9,1.6c-5.3,1.1-10.5,0.3-15.7-1.1c-1.8-0.5-3.3-1.4-4.6-2.8l0,0c0.9,0.2,1.8,0.5,2.5,1.3
		c0.5,0.6,1.1,0.8,1.7,0.9c0.8,0.1,1.7,0.1,2.6,0.2c1.1,0.2,2.6,0.5,3.4-0.9c0.6,0.1,1.2,0.4,1.7-0.2c0.7-0.1,1.3-0.1,2,0.2
		c0.1,0.2-0.5,0.7,0.4,0.7c1.6-0.1,3.2-0.5,4.7,0.3c0.3,0.1,0.5-0.2,0.6-0.4C39,80.6,39.4,80.6,39.8,80.6z"/>
	<path fill="#DB404E" d="M21.8,9.9c-0.8,0.6-1.6,1.2-2.4,1.8C19.3,11.8,19,11.9,19,12c0,1.2-0.6,1.6-1.6,2.1
		c-0.9,0.4-1.4,1.5-2.2,2.1c-0.3,0.3-0.5,0.8-1.2,0.7c-0.6-0.1-0.9,0.2-0.7,0.9c0.1,0.4,0,0.6-0.6,0.6c-0.8,0-0.9,1-1.4,1.5
		c-0.3,0.1-0.5,0.3-0.8,0.3c1.5-2.3,3-4.5,5.2-6.2c1.7-1.4,3.3-3.1,5.4-3.9C21.3,10,21.6,10,21.8,9.9z"/>
	<path fill="#E9E5A1" d="M14.7,11.7h-0.1v0.1h0.1V11.7z"/>
	<path fill="#DB404E" d="M5,34.4c-0.1,0.9-0.1,1.9-0.6,2.7c-0.2,0.3-0.3,0.6-0.1,0.9c0.7,1,0.3,2.1,0.1,3.1c-0.1,0.6-0.3,1.2,0,1.9
		c0.1,0.4,0.1,0.9-0.4,1.2c0-2.8-0.4-5.7,0.3-8.5C4.3,35.2,4.3,34.5,5,34.4z"/>
	<path fill="#EA8425" d="M72.9,50.6c-0.1-0.3,0.2-0.6,0.3-0.8c0.3-0.6,0.6-1.3,0.3-2c0-0.4,0-0.9,0-1.3c0.7-0.2,0.7-0.9,0.8-1.4
		c0.1-0.7,0.3-1.4,0.8-1.9l0.1,0.1c0.3,0.9-0.1,1.8-0.3,2.7c-0.4,1.6-0.9,3.3-1.4,4.9C73.3,50.6,73.1,50.6,72.9,50.6z"/>
	<path fill="#DB404E" d="M29.1,6.4c-0.2,0.9-0.4,1.3-1.5,1.4c-1.3,0.1-2.7,0.7-3.9,1.3C25.1,7.7,27,6.9,29.1,6.4z"/>
	<path fill="#E3BC8D" d="M73,24c-0.9-1.3-1.3-2.8-1.9-4.1c-0.2-0.5-0.2-0.9,0-1.3c1.1,1.6,1.8,3.3,2.1,5.2
		C73.1,23.8,73.1,23.9,73,24z"/>
	<path fill="#E39D49" d="M15.4,75.7c0.2-0.1,0.5-0.2,0.7-0.3h0.1h0.1c0.3,0,0.5,0,0.8,0c0.8,1,1.4,2.2,2,3.4l0,0
		C17.7,77.9,16.5,76.9,15.4,75.7z"/>
	<path fill="#E9E5A1" d="M22.9,6.1c1.3-0.1,2.5-0.6,3.7-1.2c0.5-0.2,1-0.6,1.7-0.3c-1.7,1.1-3.4,2-5.4,2.5C23,6.8,22.9,6.5,22.9,6.1
		L22.9,6.1z"/>
	<path fill="#E3BC8D" d="M74.6,31.5C74.2,31.3,74,31,74,30.6c0.3-1.7-0.4-3.3-0.4-5h0.1c1,1.6,0.8,3.5,1.2,5.2
		C74.8,31.2,74.8,31.4,74.6,31.5z"/>
	<path fill="#E3BC8D" d="M66.6,62.9c0.3-1.4,1.6-2.1,1.9-3.4l0,0c0.4,0,0.6-0.4,0.8-0.6l0.1-0.1v0.1c-0.9,1.6-1.8,3.3-2.8,4.9
		c-0.1-0.2-0.2-0.3-0.3-0.5l0,0C66.5,63.2,66.6,63.1,66.6,62.9z"/>
	<path fill="#E66128" d="M66.3,13.5c-0.5,0.1-1.1,0-1.4-0.5c-0.7-1.2-1.8-2-3-2.7c-0.1,0-0.1-0.2-0.1-0.4
		C63.9,10.5,65.1,12.1,66.3,13.5z"/>
	<path fill="#DB404E" d="M4,45.6c0.1,0.1,0.4,0.2,0.4,0.3c0,1.5,0.4,2.9-0.1,4.4C3.8,48.7,4.1,47.1,4,45.6z"/>
	<path fill="#E3BC8D" d="M72.9,50.6c0.2,0,0.4,0.1,0.5,0.1c0,1.2-0.6,2.1-1.1,3.1C72.1,52.6,72.8,51.6,72.9,50.6z"/>
	<path fill="#DB404E" d="M66.4,63.3c0.1,0.2,0.2,0.3,0.3,0.5c-0.6,0.6-0.8,1.5-1.4,2.1c0-0.9-0.3-1.9,0.5-2.7
		C65.9,63.3,66.2,63.3,66.4,63.3z"/>
	<path fill="#DB404E" d="M63.5,68.5c-0.4-0.7,0.7-1.2,0.3-1.9c0.6,0,0.8-0.6,1.4-0.5C64.8,66.9,64.3,67.8,63.5,68.5z"/>
	<path fill="#E39D49" d="M74.6,31.5c0.2-0.1,0.3-0.3,0.3-0.6c0.4,0.9,0.4,1.9,0.5,2.8c-0.1,0-0.1,0.5-0.2,0.2
		C74.9,33.2,74.6,32.4,74.6,31.5z"/>
	<path fill="#DB404E" d="M5,53.3c0.5,1.1,1,2.2,0.9,3.4C4.8,55.7,5,54.4,5,53.3z"/>
	<path fill="#E39D49" d="M76,28.4c0.7,1.1,0.7,2.3,0.8,3.5C76.3,30.8,76.1,29.6,76,28.4z"/>
	<path fill="#E39D49" d="M73.6,25.7L73.6,25.7c-1-0.3-0.7-1.1-0.6-1.7c0.1-0.1,0.1-0.2,0.2-0.3C73.6,24.3,73.8,25,73.6,25.7z"/>
	<path fill="#EA8425" d="M75,41.9c0.1-0.5,0.2-1,0.3-1.5c0-0.3,0-0.6,0.1-0.9l0,0c0.1,0,0.2,0,0.3,0c0.1,1.2-0.1,2.5-0.5,3.6
		L75.1,43C75.1,42.7,75,42.3,75,41.9z"/>
	<path fill="#E9E5A1" d="M28.3,4.6c0.5-0.8,1.2-0.9,2.1-0.7C29.7,4.1,29,4.4,28.3,4.6z"/>
	<path fill="#DB404E" d="M22.9,9.5c-0.2,0.1-0.4,0.2-0.6,0.2C22.5,9.5,22.5,9,22.9,9.5z"/>
	<path fill="#DFBB68" d="M4.4,28.9c0.1-0.3-0.1-0.8,0.4-0.9C4.7,28.3,4.9,28.7,4.4,28.9z"/>
	<path fill="#E66128" d="M61,9.4c-0.3,0-0.5-0.1-0.6-0.4C60.7,9,61,9,61,9.4z"/>
	<path fill="#E66128" d="M60.4,8.9c-0.1-0.1-0.3-0.1-0.4-0.2C60.2,8.6,60.3,8.7,60.4,8.9z"/>
	<path fill="#E66128" d="M61.6,9.7c-0.2,0-0.4,0-0.5-0.3C61.3,9.3,61.5,9.4,61.6,9.7z"/>
	<path fill="#E4E18B" d="M9.7,18.3c0-0.2,0-0.5,0.4-0.4C10,18,9.8,18.1,9.7,18.3z"/>
	<path fill="#E66128" d="M75.6,39.5c-0.1,0-0.2,0-0.3,0c0-0.3,0.1-0.5,0.4-0.5C75.7,39.1,75.7,39.3,75.6,39.5z"/>
	<path fill="#DB404E" d="M13.8,76.5c-0.2,0-0.4-0.1-0.3-0.3C13.6,76.2,13.8,76.3,13.8,76.5z"/>
	<path fill="#DB404E" d="M22.1,9.7C22,9.8,21.9,9.9,21.8,10C21.8,9.7,22,9.7,22.1,9.7z"/>
	<path fill="#E66128" d="M61.9,10c-0.1-0.1-0.2-0.2-0.3-0.3C61.8,9.7,61.9,9.8,61.9,10z"/>
	<path fill="#E9E5A1" d="M22.4,7.5c0.1-0.1,0.2-0.2,0.3-0.3C22.6,7.3,22.5,7.4,22.4,7.5z"/>
	<path fill="#DFBB68" d="M15,77.7c-0.2,0.1-0.3,0-0.2-0.2C14.9,77.6,15,77.6,15,77.7z"/>
	<path fill="#E4E18B" d="M10.1,17.8c0-0.2,0-0.4-0.1-0.6C10.5,17.4,10.5,17.5,10.1,17.8z"/>
	<path fill="#E9E5A1" d="M22.9,6.1c-0.2-0.1-0.5,0.3-0.7,0V6C22.5,5.8,22.8,5.8,22.9,6.1L22.9,6.1z"/>
	<path fill="#E4E18B" d="M73.5,18c-0.3-0.1-0.3-0.3-0.3-0.5l0,0c0.1,0,0.2,0,0.2,0C73.5,17.6,73.5,17.8,73.5,18z"/>
	<path fill="#E2DD71" d="M73.4,17.4c-0.1,0-0.2,0-0.2,0c0-0.1,0-0.2,0-0.3C73.3,17.2,73.4,17.3,73.4,17.4z"/>
	<path d="M17.7,58.9c-0.7,0.1-1.2-0.4-1.9-0.7l0,0c0.2-0.4-0.1-0.6-0.3-0.8c-1.2-2.4-1.4-5.1-2.8-7.3c0.5-1.7,0.4-3.4,0.4-5.1
		c0-1.7-0.8-3.5-0.1-5.2c0.2-3.6,1.3-6.9,2.5-10.2c0.8-2.3,1.4-4.7,3.2-6.4c1.8-1.8,3.3-3.9,4.9-5.9c0.5-0.7,1.6-0.9,2.1-1.7
		c0.4,0,0.8-0.1,0.9-0.6v-0.1c1.2-0.8,2.3-1.7,3.5-2.3c4-1.8,8-3.2,12.4-3.5C43.1,9,43.6,9,44.2,8.9c0.2,0,0.4,0,0.6,0l0,0
		c0.1,0.7,0.7,0.7,1.3,0.8c1.8,0,3.6,0.1,5.3,0.1c1.8,0.6,3.7,1.3,5.5,1.9c2.2,1.2,3.9,2.9,5.7,4.6c0.6,0.6,1.1,1.4,1.4,2.2
		c0.7,1.4,1.3,2.9,1.9,4.3c0.2,2,1.2,3.8,1.4,5.9C67,30,68,31.2,67.9,32.4c-0.2,1.9,0.1,3.9-0.3,5.9c-0.2,1.3-0.8,2.5-0.6,3.9l0,0
		c-0.3,0.3-0.4,0.7-0.5,1.2c0,0.1,0,0.1,0,0.2c-0.2,0.5-0.5,1-0.6,1.5c-0.4,2-1,3.9-2,5.7c-0.7,1.4-1.4,2.8-2.2,4.2
		c-0.1,0.1-0.2,0.3-0.2,0.4c-1.2,0.6-1.8,1.9-2.8,2.7c-0.2,0-0.4,0.1-0.3,0.4l0,0c-0.6,0-1.2-0.1-0.8,0.8c0.5,1.1,0.6,2.3,0.7,3.6
		c-0.3,1-1,1.9-1.5,2.8c-0.1,0.2-0.3,0.3-0.4,0.5c-0.2,0.3-0.5,0.5-0.7,0.8c-1.2,0.9-2.5,1-3.9,1c-1-0.1-2.1-0.1-3.1-0.6
		c-0.9-0.5-1.7-0.4-2.4,0.5c-0.9,0.2-1.6,0.5-2.3,1.1c-0.4,0.1-0.8,0.2-1.2,0.4c-0.1,0-0.2,0-0.3,0.1c-0.1,0-0.2,0-0.2,0.1
		c-1.2,0.2-2.3,0.2-3.5,0.5c-2.6,0.7-5.2,0.8-7.5-0.8c-0.1-0.4,0-0.7,0.3-0.9c1.4,0,2.7,0.9,4.1,0.6c2.6-0.5,5.2-0.6,7.7-1.6
		c0.7-0.3,1.5-0.7,2.3-1c-1.1-0.8-2-1.6-3-2.2c-1.6-1.1-3-2.4-4.9-3.1c-0.7-0.3-1.5-0.8-2.1,0c-0.9,1.2-2.1,1.3-3.4,0.9
		c-3-0.8-4.4-3-4.9-5.8c-0.5-2.7-0.8-5.5-1.2-8.3c-0.9,0.2-1.6,0.8-2.3,1.2c-0.6,0.4-0.9,0.3-1.3-0.2c0-0.3,0.1-0.6,0.1-0.8
		c0.1-0.1,0.2-0.2,0.2-0.3l0,0c1.1-0.1,1.8-1.1,2.8-1.3c0.7-0.3,1.3-0.6,2-0.8c1.3-0.5,2.5-1.1,3.2-2.3l0.1-0.1
		c0.1,0,0.2-0.1,0.2-0.1c0.8-0.6,1.2-1.5,1.3-2.4c0.2-0.9,0.6-1.5,1.6-1.4c0.3,0.5,0.3,1,0,1.6c-0.7,0.8-0.7,2.1-1.6,2.8
		c-0.9,0.7-0.7,1.4,0,1.9c1.2,0.9,2.3,2.1,3.8,2.7c2.5,1,5.2,1.6,8,1.3c0.6-0.1,1.2-0.2,1.8-0.4c2-0.8,3.7-2.2,5.5-3.2
		c0.2,0.1,0.5,0.1,0.7,0.2c0.1,0.7-0.1,1.2-0.8,1.5c-1.2,0.6-2.2,1.4-3.3,2c-3.2,1.9-6.5,1.5-9.9,0.9c-0.9-0.2-1.6-0.8-2.5-0.8
		c-1.7-1-3.3-2-4.7-3.5c-0.2-0.2-0.4-0.4-0.8-0.3c-1.9,0.4-2.7,1.5-2.6,3.5c0,0.1,0,0.3,0,0.4c0.5,2.3,0.4,4.6,1.2,6.8
		c0.4,0.8,0.3,1.9,1.3,2.4c0.2,0.3,0.3,0.6,0.6,0.6c0.4,0.1,0.6,0.8,1.2,0.3c0.6-0.5,1.3-0.5,2-0.8c1.3-0.2,2.7-0.2,3.9,0.3
		c2.3,1,4.3,2.6,6.3,4C46,65,47.9,66,50,66.5c1.6,0.4,3.3,0.3,4.7-1.1c2.4-2.3,1.6-5.2-0.2-7.3c-1.1-1.3-2.5-2-4.1-2.6
		c-4.4-1.6-8.9-2.8-13.7-2.1c-0.8,0.1-1.6,0.2-2.5,0.2c-0.5,0-1.2,0.3-1.6-0.5c-0.2-1,0.5-1.1,1.2-1.2c0.7-0.1,1.3-0.1,2-0.1
		c0.3,0,0.7,0.1,1,0c4-0.9,7.9,0,11.6,1.3c0.5,0.2,0.9,0.1,1.3-0.3c1.3-1.4,1.7-3.3,2.8-4.9c0.6-0.9,0.4-1.4-0.3-1.9l0.1-0.1
		l-0.1-0.1c-0.1-0.6-0.3-1.1-0.4-1.7c0.4-1.1,0.1-2.1,1.2-2.7c0.1,0.1,0.1,0.1,0.2,0.1c0.6,0.3,0.7,0.8,0.7,1.4c0,0.5-0.1,1,0.3,1.4
		c0.1,0.2,0.1,0.3,0.2,0.5l0,0c0,0.2,0.1,0.5,0.3,0.6l0,0c0.1,0.1,0.2,0.3,0.3,0.4l0,0c0.5,1.4,1.3,2.5,2.8,3
		c0.7,1.1,0.6,1.5-0.6,1.6c-0.2,0-0.4,0-0.7,0c-0.4-0.5-0.9-0.9-1.3-1.5c-0.3-0.6-0.6-0.6-1,0.1c-0.9,1.6-1.3,3.4-2.9,4.8
		c1.6,0.1,2.6,1.1,3.8,1.6l0,0v0.1c0,0.1,0.1,0.1,0.1,0.2c0.2,0.6,0.9,0.7,1.2,1.2c0.6,0.9,1,0.6,1.5-0.1c1.7-1.1,2.6-2.9,3.7-4.5
		c0.4-0.7,1.1-1.3,1.1-2.2c1-1,1.2-2.3,1.6-3.5c0.5-1.7,1.1-3.3,1.5-5c0.7-2.9,1.1-5.8,0.8-8.8c-0.2-2.2-0.7-4.2-1.1-6.3
		c-0.9-4.2-2.4-8-5.8-11c-2.9-2.5-6.3-3.3-9.8-3.9c-1.8-0.3-3.7,0.1-5.4-0.4c-1.4-0.4-2.6-0.5-4-0.2c-4.9,0.9-9.4,2.4-13.4,5.7
		c-1.8,1.5-3.3,3.3-4.7,5.1c-1.1,1.3-2.6,2.4-3.4,3.9c-1.8,3.2-3,6.7-3.7,10.3c-1.3,6.2-0.8,12.5,0.8,18.7c0.4,1.3,0.7,3,2.7,3
		C18.7,58.2,18.3,58.6,17.7,58.9z"/>
	<path fill="#E66128" d="M42.5,9c-4.4,0.3-8.5,1.7-12.4,3.5c-1.3,0.6-2.4,1.5-3.5,2.3c-0.1-0.5,0-0.9,0.5-1.2c2.5-1.7,5-3.5,7.9-4.3
		c2.5-0.7,5-0.8,7.5-0.5C42.5,8.9,42.5,9,42.5,9z"/>
	<path fill="#EA8425" d="M13.1,39.8c-0.8,1.7,0.1,3.5,0.1,5.2s0.1,3.4-0.4,5.1c-0.6-0.8-0.6-1.8-0.8-2.7c-0.2-1.3-0.4-2.6-0.4-4
		C11.5,42,11.9,40.7,13.1,39.8z"/>
	<path fill="#DB404E" d="M15.5,57.4c0.2,0.2,0.4,0.5,0.3,0.8C15.3,58.1,15,57.9,15.5,57.4z"/>
	<path fill="#E66128" d="M26.6,14.9c-0.1,0.5-0.5,0.5-0.9,0.6C25.7,14.9,26.2,14.9,26.6,14.9z"/>
	<path fill="#BA2429" d="M73.5,46.4c0,0.4,0,0.9,0,1.3c-0.8,0.4-0.5,1.1-0.6,1.7c-0.9-0.2-1.6-0.1-2.4-1.2c-0.6-0.9-0.3-1.8-0.8-2.6
		c-0.3-0.4,0-0.9,0.7-1.1c1.1-0.3,1.3-1.1,0.5-1.8c-0.6-0.6-0.6-1-0.4-1.9c0.3-0.9,0.4-2.1-0.9-2.7c-0.8-0.4-0.7-1.1-0.5-1.8
		c0.7-1.9,0.4-3.8,0.4-5.7c0-0.5-0.4-0.5-0.8-0.6c-0.6-0.1-0.7-0.6-0.5-0.9c0.9-1,0.5-2.5,1.7-3.5c-0.1,0.5,1.5,0.9-0.1,1.4
		c-0.6,0.2-0.4,0.9-0.3,1.2c0.3,0.6,0.7,0.1,1-0.1c0.3-0.3,0.6-0.4,1-0.2c0.3,0.2,0.2,0.6,0.2,0.9s-0.9,1.1-1.3,1.3
		c-0.5,0.2-0.3,0.6-0.1,0.7c0.7,0.5,1.1,1.2,1.7,1.7c0.4,0.4,0.7,0.8,0.8,1.2c0.2,1.8,0.9,3.5,0.2,5.4c-0.3,0.8,0.6,2.7,1.2,3
		c0,0.1,0,0.2,0,0.2c-0.4,0-1-0.1-1.2,0.4c-0.3,0.6,0.5,0.8,0.6,1.3C73.6,44.9,73.6,45.7,73.5,46.4z"/>
	<path fill="#E66128" d="M61.9,54.7c0.7-1.4,1.4-2.8,2.2-4.2c0.9-1.8,1.6-3.7,2-5.7c0.1-0.5,0.4-1,0.6-1.5c1.2,0.9,0.5,2.1,0.2,3
		c-0.2,0.5-0.8,0.9-0.2,1.5c0.2,0.2,0.1,0.5-0.1,0.6c-1.3,0.2-0.7,0.9-0.4,1.6c0.3,0.7,0.3,1.3-0.4,1.9c-1,0.9-2.2,1.6-2.5,3.1
		c-0.1,0.3-0.3,0.6-0.7,0.6C61.9,55.6,62.3,54.9,61.9,54.7z"/>
	<path fill="#DB404E" d="M67.1,42c-0.2-1.4,0.4-2.6,0.6-3.9c0.3-2,0-3.9,0.3-5.9c0.8,1.9,0.7,4,0.4,5.9c-0.1,1,0.1,2-0.1,3
		C68.1,42,67.8,42.1,67.1,42z"/>
	<path fill="#DB404E" d="M67.4,28.5c-0.2-2-1.2-3.8-1.4-5.9c0.6,1.7,1.9,3,1.7,5C67.6,27.9,67.7,28.3,67.4,28.5z"/>
	<path fill="#E66128" d="M73.5,46.4c0.1-0.7,0.2-1.5,0.3-2.2c0.5-0.4,0.6-1.1,0.6-1.7c0-0.1,0-0.2,0-0.2c0.3-0.1,0.5-0.2,0.8-0.3
		c0,0.4,0,0.7,0,1.1c-0.5,0.5-0.7,1.2-0.8,1.9C74.1,45.5,74.2,46.2,73.5,46.4z"/>
	<path fill="#BA2429" d="M68.5,59.5c-1-0.5-1-1.3-0.6-2.2c0.1-0.3,0.2-0.8,0.7-0.6c0.4,0.2,0.5,0.5,0.3,0.9
		C68.6,58.2,68.4,58.8,68.5,59.5L68.5,59.5z"/>
	<path fill="#E66128" d="M72.9,49.4c0.1-0.6-0.2-1.3,0.6-1.7c0.3,0.7,0,1.3-0.3,2C73.1,49.6,73,49.5,72.9,49.4z"/>
	<path fill="#E66128" d="M75.3,39.5c0,0.3,0,0.6-0.1,0.9C74.7,40,74.6,39.7,75.3,39.5z"/>
	<path fill="#DB404E" d="M66.6,43.2c0.1-0.4,0.2-0.8,0.5-1.2C67.2,42.5,67.3,43,66.6,43.2z"/>
	<path fill="#DB404E" d="M66.6,62.9c0.1,0.2,0,0.3-0.2,0.4C66.4,63.2,66.5,63,66.6,62.9z"/>
	<path fill="#DB404E" d="M51.3,9.7c-1.8,0-3.6,0-5.3-0.1c-0.6,0-1.1,0-1.3-0.8c1,0.3,1.9,0.5,2.9,0.3C48.9,8.9,50.2,9.1,51.3,9.7z"
		/>
	<path fill="#DB404E" d="M44.8,8.9c-0.2,0-0.4,0-0.6,0c0-0.1,0.1-0.3,0.1-0.3C44.6,8.5,44.6,8.7,44.8,8.9z"/>
	<path fill="#DD2B28" d="M39,5.8c0.1-0.2,0.3-0.3,0.5-0.2c0,0,0,0.1,0.1,0.1C39.4,5.7,39.2,5.8,39,5.8L39,5.8z"/>
	<path fill="#EA8425" d="M43,69.1c0.4-0.1,0.8-0.2,1.2-0.4c1.8,0,3.6,0.4,5.3-0.5c0.4,0,0.7,0,1.1,0c0.3,0.2,0.6,0.2,0.8-0.1
		c0.2-0.2,0.3-0.3,0.5-0.4c1.4-0.1,2.8-0.2,3.9-1c0.2,0,0.3,0,0.5,0c0.4,1.1,0.1,1.8-0.8,2.4c-0.2,0.1-0.5,0.3-0.5,0.6
		C54.9,71,54.8,71,54.7,71c-0.6-0.1-1,1.2-1.7,0.3c0,0-0.3,0-0.3,0.1c-0.2,0.2-0.1,0.5,0.2,0.6c0.8,0.2,0.4,0.7,0.2,1.1
		c-0.3,0.6-0.7,0.2-1,0.1c-1.5-0.7-1.5-0.7-3.3,0c0.9,0.4,2,0.3,1.6,1.7c-0.2,0.7-0.7,0.9-1.3,0.7c-0.5-0.5,1.1-0.8,0.2-1.2
		c-0.5-0.2-1.2-0.7-2,0.2c-0.6,0.6-1.7,2.1-3.3,0.9c-1-0.7-1.7,0.7-2.4,1.3c-1.2,1.1-2.2,2.2-3.6,3c-0.2,0.1-0.3,0.3-0.4,0.5
		c-1.5,0.2-2.9-0.5-4.4-0.3c-0.6-0.3-1.3-0.3-2-0.2c-0.4-0.9-1-1.2-1.9-0.6c-0.4,0.1-0.9,0.2-1.3,0.2c-0.1-0.5,0.5-1-0.1-1.4
		c0.3-0.4,0.8,0.3,1.1-0.1c0.1-0.7-0.7-0.4-0.9-1c1-0.4,1.5,0.5,2.2,0.9c0.3,0.1,0,0.9,0.6,0.7c0.5-0.2,0.2-0.7,0.3-1
		c0.1-0.9-0.3-1.1-1.1-1c-0.4,0-0.7,0-1.1,0c-0.3,0-0.6,0.1-0.6-0.3c0-0.3,0.3-0.4,0.6-0.3c0.7,0.2,1.1-0.2,1-0.8
		c-0.1-0.6-0.8-0.9-1.3-0.6c-1.4,1.1-3,1.5-4.6,1.5c-0.5,0-1.4,1.3-1.6-0.2c-0.1-0.8-1.4-0.7-1.1-1.7c0.2-0.8-0.6-2,0.9-2.3
		c0,0,0.1-0.2,0.1-0.3c-0.2-1.8,0.5-3.5,0-5.3c0.5,0.1,0.7,0.3,0.8,0.8c0.2,0.9,0.4,1.9,0.6,2.8c-0.2,2.3,1,3.1,3.1,2.1
		c0.4-0.2,0.8-0.4,1.2-0.7c0.2,0,0.4,0,0.6,0c0.2,0.4-0.1,1.1,0.3,1.2c1.3,0.5,1.7,1.7,2.2,2.8c0.2,0.4,0.6,0.4,0.9,0.5
		c0.2,0.1,0.4-0.1,0.4-0.3c-0.2-0.9,0.7-1.5,0.4-2.5s0.3-1.4,1.3-1.1c0.6,0.2,1.3,0.3,1.8-0.3c1.6-0.5,3.3-1,4.9-1.5
		c0.7-0.2,1.5,0,1.8-0.9c0.1-0.1,0.1-0.1,0.2-0.1C42.8,69.2,42.9,69.2,43,69.1z"/>
	<path fill="#EA8425" d="M56.5,65.9c0.1-0.2,0.3-0.3,0.4-0.5c0.9-0.7,2-1.3,2.7-2.3c0.1,0.3,0.5,0.7,0.2,1c-1.1,0.9-1.7,2.3-3.3,2.4
		C56.5,66.3,56.5,66.1,56.5,65.9z"/>
	<path fill="#DD2B28" d="M32.9,80.1c1.5-0.2,2.9,0.4,4.4,0.3c0.5,0.1,1-0.2,1.4,0.3c-0.1,0.3-0.3,0.6-0.6,0.4
		c-1.5-0.9-3.2-0.4-4.7-0.3C32.4,80.8,33,80.3,32.9,80.1z"/>
	<path fill="#E3BC8D" d="M59.6,63.1c-0.7,1-1.8,1.6-2.7,2.3c0.5-0.9,1.2-1.8,1.5-2.8l0.1,0.1h0.1c0.2,0.1,0.3,0.1,0.5,0.2
		C59.2,62.9,59.4,63,59.6,63.1L59.6,63.1z"/>
	<path fill="#E39D49" d="M58.6,62.6L58.6,62.6h-0.2c-0.1-1.2-0.2-2.4-0.7-3.6c-0.4-0.9,0.3-0.8,0.8-0.8C59,59.7,58.3,61.2,58.6,62.6
		z"/>
	<path fill="#E3BC8D" d="M56.5,65.9c0,0.2,0,0.4,0,0.6c-0.1,0.1-0.1,0.1-0.2,0.2c-0.2,0-0.3,0-0.5,0C56,66.4,56.3,66.2,56.5,65.9z"
		/>
	<path fill="#EA8425" d="M59.6,63.1c-0.2-0.1-0.4-0.2-0.5-0.3c0.1-0.1,0.1-0.4,0.4-0.3C59.7,62.6,59.6,62.9,59.6,63.1z"/>
	<path fill="#E39D49" d="M58.5,58.3c-0.1-0.3,0.1-0.4,0.3-0.4C58.8,58.1,58.8,58.2,58.5,58.3z"/>
	<path fill="#FBFBF8" d="M17.7,58.9c0.7-0.2,1-0.7,0.8-1.4c0.7-1.7,0.8-3.5,1.2-5.2c0.2-0.9,0.4-1.7-0.3-2.5
		c-0.4-0.5-0.2-0.8,0.5-0.9c1,0,2,0,3-0.3c0.3,0.5,0.7,0.6,1.3,0.2c0.7-0.5,1.4-1.1,2.3-1.2c0.4,2.8,0.8,5.6,1.2,8.3
		c0.5,2.8,1.9,5,4.9,5.8c1.3,0.4,2.5,0.2,3.4-0.9c0.6-0.8,1.4-0.3,2.1,0c1.8,0.7,3.3,1.9,4.9,3.1c1,0.7,1.9,1.4,3,2.2
		c-0.8,0.4-1.5,0.7-2.3,1c-1.1-1.6-3-1.7-4.6-2.5c-0.3-0.1-0.6,0.1-0.9,0.2c-2,1.3-4.1,1.1-6.2,0.5c-0.4-0.1-1.3-0.2-1.1,0.2
		c0.4,0.8-0.3,2.1,1,2.6c-0.3,0.2-0.4,0.5-0.3,0.9c-0.7,0.1-1.3,0.2-2,0.3c0.7-1.2,0.3-2.4-0.3-3.3c-0.5-0.8-0.5-2.3-2.1-2
		c0.2-1.1,1-0.9,1.7-0.6c0.4,0.2,0.8,0.4,1.3,0.3c0.3,0,0.6-0.1,0.6-0.4c0-0.2-0.2-0.4-0.4-0.5c-1.1-0.4-1.8-1.3-2.6-2.1
		c-0.3-0.3-0.6-0.7-1-0.3c-0.9,0.8-2.1,0.9-3.1,1.5c0-0.6-0.5-1.2,0.2-1.8c0.3-0.2,0.2-0.8-0.2-1.1c-0.5-0.4-1.2-0.3-1.7,0
		c-1,0.6-1.9,1.3-2.9,2C18.8,60.2,17.7,59.9,17.7,58.9z"/>
	<path d="M19,61.1c1-0.7,1.9-1.4,2.9-2c0.5-0.3,1.1-0.4,1.7,0c0.4,0.3,0.5,0.9,0.2,1.1c-0.7,0.6-0.2,1.2-0.2,1.8
		c-0.1,1.1-0.6,2-1.5,2.8c-0.8,0.2-1.3,0.8-1.9,1.3c-0.4,0.2-0.8,0.5-1.2,0.7c-0.4,0.2-0.8,0.4-1.2,0.6c-0.2-0.5-0.7-0.3-1-0.5
		c-0.9-0.4-1.5-0.9-1.1-2.1c0.8-0.7,1.5-1.4,2.1-2.4l0,0c0.2,0.1,0.4-0.1,0.5-0.3C18.6,61.9,19,61.6,19,61.1z M17.1,65.3
		c1.5,0.1,4.3-1.4,4.9-2.7c0.2-0.4,0.2-0.8,0.1-1.2c-0.1-0.5-0.3-0.9-0.9-0.3C19.7,62.4,18.2,63.6,17.1,65.3z"/>
	<path fill="#DD2B28" d="M17.8,67.3c0.4-0.2,0.8-0.4,1.2-0.6c0.1,0.1,0.2,0.3,0.2,0.4c-0.9,1.3-0.4,2.1,1,2.5
		c0.3,0.1,0.6,0.3,0.4,0.6c-0.2,0.4-0.5,0.1-0.8,0c-1.2-0.5-1.5-0.3-1.8,1c-0.3,1.4-0.7,2.7-0.8,4.1c-0.3,0-0.5,0-0.8,0
		c-0.1-0.1-0.2-0.2-0.3-0.3c0.5-1,0.6-2.1,0.4-3.3c-0.1-0.6-0.1-1.5,0.3-1.8C17.9,69.3,17.7,68.3,17.8,67.3z"/>
	<path fill="#E3BC8D" d="M17.7,62.4c-0.5,0.9-1.3,1.7-2.1,2.4C15.8,63.6,16.5,62.7,17.7,62.4z"/>
	<path fill="#E3BC8D" d="M18.2,62.2c-0.1,0.2-0.3,0.3-0.5,0.3C17.8,62.1,18,62.1,18.2,62.2z"/>
	<path fill="#E66128" d="M16.1,75.1c0.1,0.1,0.2,0.2,0.3,0.3h-0.1h-0.1C16.1,75.3,16.1,75.2,16.1,75.1z"/>
	<path fill="#E66128" d="M43.6,78.7c0.5,0,1-0.1,1.5,0.3C44.6,79.2,44,79.7,43.6,78.7L43.6,78.7z"/>
	<path fill="#E66128" d="M17.1,75.3c0.2-1.4,0.5-2.8,0.8-4.1c0.3-1.3,0.6-1.5,1.8-1c0.3,0.1,0.6,0.4,0.8,0c0.2-0.3-0.2-0.5-0.4-0.6
		c-1.4-0.4-1.9-1.2-1-2.5c0-0.1-0.1-0.2-0.2-0.4c0.4-0.2,0.8-0.5,1.2-0.7c0.4,0,0.8,0.1,1.2-0.2c0.6-0.5,0.6,0.2,0.8,0.4
		c0.5,1.8-0.2,3.5,0,5.3c0,0.1,0,0.2-0.1,0.3c-1.6,0.3-0.7,1.5-0.9,2.3c-0.3,1,1,0.9,1.1,1.7c0.2,1.5,1,0.2,1.6,0.2
		c1.7-0.1,3.2-0.5,4.6-1.5c0.5-0.4,1.2,0,1.3,0.6c0.1,0.6-0.3,1-1,0.8c-0.3-0.1-0.6,0-0.6,0.3c0,0.4,0.3,0.3,0.6,0.3
		c0.4,0,0.7,0,1.1,0c0.8-0.1,1.2,0.1,1.1,1c0,0.4,0.3,0.9-0.3,1c-0.6,0.2-0.3-0.6-0.6-0.7c-0.7-0.4-1.2-1.3-2.2-0.9
		c0.1,0.6,1,0.3,0.9,1c-0.3,0.4-0.8-0.3-1.1,0.1c0.6,0.4,0.1,0.9,0.1,1.4c-0.8-0.3-1.2-1.5-2.2-0.9c-0.6,0.3-1,0.2-1.5,0.2
		c-0.6,0-1.2-0.2-1.8,0.3c0.9,0.4,1.3,1,1.2,1.9c-0.7-0.1-1.3-0.4-1.7-0.9c-0.6-0.7-1.5-1-2.5-1.3C18.5,77.5,17.9,76.3,17.1,75.3z
		 M19.3,77.3c0.7,0.6,1.4,0.7,2,0.9c0.3,0.1,0.6,0.3,0.7-0.2c0.1-0.4,0.1-0.9-0.5-0.9C20.9,77,20.2,76.9,19.3,77.3z"/>
	<path fill="#DD2B28" d="M23.3,80.8c0.1-0.8-0.3-1.5-1.2-1.9c0.7-0.5,1.3-0.2,1.8-0.3c0.5,0,1,0.2,1.5-0.2c1-0.6,1.4,0.7,2.2,0.9
		c0.4-0.1,0.9-0.2,1.3-0.2c0.1,0.3,0.2,0.6,0.2,0.8c-0.8,1.4-2.4,1.1-3.4,0.9C25,80.9,24.1,81,23.3,80.8z"/>
	<path fill="#E66128" d="M29.3,80.1c-0.1-0.3-0.2-0.6-0.2-0.8c0.9-0.6,1.5-0.2,1.9,0.6C30.5,80.5,29.9,80.2,29.3,80.1z"/>
	<path fill="#E2DD71" d="M14.7,11.7v0.1h-0.1v-0.1C14.6,11.7,14.7,11.7,14.7,11.7z"/>
	<path fill="#FBFBF8" d="M52,45.6c-1.9,1-3.6,2.3-5.5,3.2c-0.6,0.3-1.2,0.4-1.8,0.4c-2.8,0.2-5.4-0.3-8-1.3
		c-1.4-0.6-2.5-1.8-3.8-2.7c-0.7-0.5-0.9-1.2,0-1.9s0.9-2,1.6-2.8c1.7,0,2.3-1.4,2.9-2.4c0.6-1.1-0.5-2.5-2.1-3l0,0
		c-0.6-0.5-1.4-0.4-2.1-0.7c-0.4-0.2-0.6,0-0.6,0.4c-0.5,0.2-1.1,0.4-1.6,0.6c-1-0.7-2-0.1-3-0.3l0,0c-0.1-0.1-0.1-0.2-0.2-0.3
		c-1.5-1.7-0.9-3.7-0.4-5.5c0.6-2.5,2.6-4.1,4.7-5.5c1.8-1.2,3.7-2,5.8-1.1c0.7,0.3,0.9,0,1-0.6s-0.1-0.8-0.8-1
		c-1.8-0.6-3.5-0.6-5.3,0.3c-3,1.6-5.5,3.6-6.9,6.7c-0.8,1.8-0.6,3.8-0.7,5.7c-0.6,0.1-1.2-0.3-1.7-0.6c0-0.3-0.2-0.5-0.6-0.5l0,0
		c-0.4-0.4-0.8-0.4-1.2-0.1c-0.2,0.2,0.1,0.3,0.3,0.4c0,0.2,0,0.3,0,0.5c-0.6,0.9-0.2,3.1,0.6,3.9C23,37.7,23,38,23,38.3
		c-0.1,0.4,0.1,0.6,0.5,0.6c0.3,0.1,0.3,0.3,0.3,0.6c-0.6,0-1.2,0-1.8,0l0,0c-0.3-1-0.3-2.1-1.4-2.8l0,0c0-0.8,0.6-1.6-0.2-2.2
		c0-0.7-0.1-1.4-0.1-2.2c0.3-0.1,0.6-0.1,0.5-0.6c-0.3-1.1,0.2-2,0.8-2.8c0.3-0.3,0.5-0.7,0.4-1.1l0,0c1.3-0.1,1.3-1.1,1.3-2
		c0.1-0.2,0.2-0.3,0.4-0.5c0.6-0.3,1.8,0.1,1.6-1.3c0.9-0.4,1.6-0.9,2.2-1.7c1.1-1.4,2.4-2.6,4.1-3.1c0.4-0.3,0.9-0.2,1.3-0.3
		c0.8-0.2,0.9-0.5,0.3-1.1c0.7-0.1,1.6,1.3,2.2-0.2c1.1-0.6,2.2-1.1,3.3-1.6c2.3-1.1,4.9-1.1,7.3-1.8c1.5-0.4,3.4,0.4,5,0.6
		c0,1.5,1.3,0.6,1.9,1.1c0,0.2,0,0.4,0,0.5c-0.3,0.5-0.3,0.9,0.2,1.2c0.7,0.5,1.1,1.2,1.5,2c1.2,2.1,2.7,2,4.2-0.1
		c0.3,0.1,0.1-0.9,0.5-0.4c0.5,0.7,0.7,1.7,1,2.5c0.1,0.4-0.2,0.5-0.6,0.6c-1.2,0.4-1.2,0.9-0.3,1.8c1.1,1.2,2.3,2.2,3,3.7
		c0.1,0.3,0,0.6,0.3,0.8c0.1,0.4,0.2,0.7,0.3,1.1c-0.1,0.6-0.1,1.3,0.1,1.9l0,0c-0.4,0.3-0.3,0.8-0.3,1.2c0,1.8-0.2,1.9-1.8,1.1
		c-0.6-0.3-0.7-0.7-0.7-1.3c0-0.4,0-1-0.4-1c-1.1-0.1-2.2-0.9-3.2,0.1c0.2-1.2,0.1-2.4,0.1-3.6c-0.1-3.6-3.5-6.8-7.1-6.7
		c-0.6,0-1.2,0-1.2,0.9s0.6,0.8,1.3,0.8c1.2,0.1,2.3,0.4,3.3,1.3c2.3,1.9,2.4,4.3,2,6.9c-0.4,3.1-3.4,4.6-6.2,3.3
		c-0.8-0.4-1.7-0.7-2.6-0.2c-0.6,0.3-1.1,0.4-1.6-0.4c-0.2-0.4-0.7-1-1.4-0.9c-0.3,0.1-0.6,0.2-0.7,0.6c-0.1,0.7,0.4,1.1,0.8,1.4
		c1,0.8,2,1.7,1.4,3c-0.5,1.1-1.9,1-3.1,1c-0.1,0-0.2,0-0.3,0c-0.6-0.3-1.1-0.2-1.2,0.5c-0.1,0.8,0.5,1.1,1.2,1.1s1.4-0.1,2-0.2
		c1.6-0.3,2.8-1,3.2-2.7c1.7,0.3,3.3,1.1,5.1,1.2c0.3,0.7,0.2,1.7,1.1,2.2c0,0.1,0,0.1,0.1,0.2c-1.1,0.6-0.8,1.6-0.6,2.5
		c0.1,0.6,0.3,1.1,0.4,1.7C52.5,45.6,52.3,45.6,52,45.6z M35.5,30.7c0.9,0,2-1.2,2-2.2c0-0.9-0.5-1.2-1.4-1.1
		c-0.7,0.1-2.3,1.2-2.3,1.7C33.8,29.7,34.8,30.7,35.5,30.7z M52.8,29c0.2-0.8-0.2-1.1-1-1.2c-1-0.1-2.3,0.7-2.3,1.5
		c0,0.9,0.6,1.5,1.5,1.5C52,30.8,52.8,30.3,52.8,29z"/>
	<path fill="#FBB040" d="M62.6,27.9c-0.7-1.5-1.9-2.5-3-3.7c-0.9-0.9-0.9-1.3,0.3-1.8c0.3-0.1,0.7-0.2,0.6-0.6
		c-0.3-0.9-0.5-1.8-1-2.5c-0.4-0.6-0.2,0.4-0.5,0.4c-0.2-2.6-1.4-4.5-4-5.3c-0.2-0.7-0.5-0.2-0.8-0.1c-0.2,0-0.3,0-0.5,0
		c-0.7-1-1.5-1.6-2.8-1.3c0.1-0.4,0.6-0.4,0.8-0.8c-0.8,0-1.5-0.4-2.1-0.4S49,12,48.5,11.7c-0.3-0.1-0.6-0.2-0.9-0.2
		c-1.5,0-3,0.3-4.6,0c-0.8-0.2-1.7,0-2.5,0.1c-1.7,0.2-3.1,1.4-4.6,2.2c-1.4,0.8-3,1.4-4.4,2.3c-4.1,0.6-6.7,3-8.4,6.6
		c-0.2,0.2-0.3,0.4-0.5,0.6c-0.7,0.1-1.1,0.3-0.8,1.1c0,0.4-0.4,0.5-0.6,0.8c-0.9,0-1.2,0.7-1.3,1.3c-0.2,1.1-0.5,2.3-0.3,3.5
		c0,0.7,0,1.4,0,2.1c-0.1,1.1-0.1,2.2,0.7,3.1c0,0.3,0,0.5,0,0.8c-1,0.7-1,1.7-0.7,2.6c0.3,1,0.8,1.8,2.2,1.9
		c1.3,0.2,2.7,0.8,3.3,2.2c0.5,1.1,1,1.1,1.6,0.1c0.3-0.5,0.8-0.9,1.1-1.5c0.4-0.8,1.1-1.2,2.1-1c1.4,0.2,1.5,1.3,1.5,2.3
		c-0.1,0-0.2,0.1-0.2,0.1c-0.1,0-0.1,0.1-0.2,0.1c0,0,0.1,0,0.1,0.1c-0.7,1.2-2,1.8-3.2,2.3c-0.7,0.3-1.3,0.6-2,0.8
		c-0.4-0.4-0.8-0.5-1.2,0c-1.2-0.6-2.1-1.7-3.5-2c-0.4-0.1-0.6-1.1-1-0.5c-0.3,0.5-0.9,1.4-0.1,2.1c0.8,0.7,1.7,1.3,2.9,1.3
		c0,0.2,0,0.4,0,0.6l0,0c-0.1,0-0.2,0.1-0.4,0.1c0,0.1,0.1,0.1,0.1,0.2c0,0.3-0.1,0.6-0.1,0.8c-1,0.3-2,0.2-3,0.3
		c-0.7,0-0.9,0.4-0.5,0.9c0.7,0.8,0.5,1.6,0.3,2.5c-0.4,1.7-0.5,3.5-1.2,5.2c-1.9-0.1-2.3-1.7-2.7-3C14.2,48.2,13.7,42,15,35.7
		c0.7-3.5,2-7,3.7-10.3c0.8-1.5,2.3-2.6,3.4-3.9c1.5-1.8,2.9-3.6,4.7-5.1c3.9-3.3,8.5-4.7,13.4-5.7c1.4-0.3,2.6-0.2,4,0.2
		c1.7,0.4,3.6,0.1,5.4,0.4c3.5,0.6,6.9,1.4,9.8,3.9c3.4,3,4.9,6.8,5.8,11c0.5,2.1,0.9,4.2,1.1,6.3c0.3,3-0.1,5.9-0.8,8.8
		c-0.4,1.7-1,3.3-1.5,5c-1.9,0.6-1.2,2.3-1.6,3.5c0,0.9-0.6,1.5-1.1,2.2c-0.8-1-1.1-0.2-1.4,0.4c-0.5,1.1-0.8,2.4-2,2.9
		c-0.9,0.4-0.5,0.8-0.3,1.2c-0.4,0.7-0.9,1-1.5,0.1c-0.3-0.5-1-0.7-1.2-1.2c0.1-0.1,0.2-0.3-0.1-0.3l0,0c0.4-0.8,0.3-1.7,0.1-2.5
		c-0.3-1.3,0.1-2,1.4-2.5c0.2,0,0.4,0,0.7,0c1.2-0.1,1.4-0.5,0.6-1.6c-0.5-1.4-1.6-2.2-2.8-3l0,0c-0.1-0.1-0.2-0.3-0.3-0.4l0,0
		c-0.1-0.2,0-0.5-0.3-0.6l0,0c-0.1-0.2-0.1-0.3-0.2-0.5c-0.4-0.4-0.3-0.9-0.3-1.4c0-0.6-0.1-1.1-0.7-1.4c1-0.4,0.7-1.1,0.4-1.7
		c0-0.2,0-0.4,0-0.5c0.3-0.3,0.4-0.6,0-0.8c-0.8-0.3-0.5-0.6-0.1-1c0.5-0.5,0.9-0.9,1.4-1.4c1-0.2,1.9,0.2,2.6,0.9
		c0.3,1,1.1,1.9,0.7,3.1c-0.4,1.3,0,2.4,0.8,3.4c0.3,0.4,0.5,0.9,1.1,0.8c0.5-0.1,0.7-0.7,0.7-1.2c0.3-0.3,0.1-0.7,0.2-1.1
		c0.2-1.3,0-3.1,1-3.8c1.2-0.9,1.2-1.7,0.9-2.8c0.4-0.3,0.3-0.7,0.4-1.1c0.7-0.7,0.7-1.3,0-2c0-0.2-0.1-0.3-0.1-0.5l0,0
		c0.6-0.7,0.5-1.3-0.1-1.9c-0.1-0.4-0.2-0.7-0.3-1.1C63,28.4,63.1,28.1,62.6,27.9z"/>
	<path fill="#EE2A7B" d="M31.4,59.4c-0.4,0-0.5-0.3-0.6-0.6c0.4-1.2-0.4-2-0.8-3c0.2-0.4,0.6-0.7,0.7-1.1c0.6-1.1,2-0.9,2.7-1.9
		c0.4,0.7,1,0.4,1.6,0.5c0.8,0,1.6-0.1,2.5-0.2c4.8-0.7,9.2,0.4,13.7,2.1c1.6,0.6,3,1.4,4.1,2.6c1.8,2.1,2.6,5,0.2,7.3
		c-1.4,1.4-3.1,1.4-4.7,1.1c-2.1-0.5-4-1.5-5.8-2.9c-2-1.5-4-3.1-6.3-4c-1.3-0.5-2.6-0.5-3.9-0.3c-0.6-0.1-1.3,0.1-1.7-0.2
		C31.8,57.9,31.6,58.6,31.4,59.4z M42.1,56.2c0.6,0.9,0.7,1.6,1.4,2.1c2.1,1.2,4.4,2.1,6.4,3.5c0.5,0.4,1.3,0.2,2-0.1
		c-0.2-0.6,0-1.5-0.7-1.9C48.5,58,45.4,57.3,42.1,56.2z"/>
	<path fill="#FBFBF8" d="M33.3,52.8c-0.7,0.9-2.1,0.7-2.7,1.9c-0.2,0.4-0.5,0.7-0.7,1.1c-0.2,0.2-0.3,0.4-0.5,0.6
		c-0.7-2.2-0.7-4.6-1.2-6.8c0-0.1,0-0.3,0-0.4c-0.2-2,0.7-3,2.6-3.5c0.4-0.1,0.6,0.1,0.8,0.3c1.3,1.5,3,2.5,4.7,3.5
		c0.2,0.7-0.8,1.5,0.3,2.1c-0.7,0-1.3,0-2,0.1C33.8,51.7,33.1,51.9,33.3,52.8z M35.3,50.3C35.2,50.2,35,50,35,50.1
		c-0.1,0-0.2,0.1-0.3,0.2c0.1,0.1,0.2,0.2,0.3,0.2C35,50.5,35.1,50.4,35.3,50.3z"/>
	<path fill="#DFBB68" d="M31.5,42.8c0-1.1-0.1-2.1-1.5-2.3c-0.9-0.2-1.7,0.2-2.1,1c-0.3,0.6-0.8,1-1.1,1.5c-0.6,0.9-1.1,1-1.6-0.1
		c-0.7-1.3-2-2-3.3-2.2s-1.8-1-2.2-1.9c-0.3-0.9-0.4-1.9,0.7-2.6c0.1,0.2,0,0.5,0.3,0.6l0,0c0.2,1.1-0.6,2.6,1.4,2.8l0,0
		c1.3,1.1,2.9,1.1,4.5,1.3c0.5,0.1,1-0.2,1.1-0.9c0.2-0.7-0.1-1-0.6-1.3c-0.6-0.4-1.2-0.9-1.7-1.3c-0.2-1-1.1-0.3-1.7-0.7
		c0.1-0.3,0.5-0.6,0-1c-0.2-0.2-0.7-0.4-0.3-0.7c0.3-0.2,1-0.3,1,0.2c0.2,1.1,0.9,0.4,1.3,0.5c0.5,0,0.5,0.5,0.7,0.8
		c0.7,1,1.7,1.6,3,1.6c1,0.1,1.9-0.3,2.7-0.9c0.4-0.3,0.8-0.6,1.2-0.9c0.2-0.1,0.9-0.2,0.7,0.2c-0.4,0.9,0.3,1,0.7,1.3
		c0.3,0.2,0.6,0.3,0.5,0.7c-0.1,0.5-0.5,0.4-0.8,0.5c-1-0.1-1.5,0.4-1.6,1.4C32.7,41.3,32.3,42.2,31.5,42.8z"/>
	<path fill="#DFBB68" d="M31.8,68.2c-1.3-0.5-0.6-1.7-1-2.6c-0.2-0.4,0.6-0.3,1.1-0.2c2.1,0.7,4.3,0.8,6.2-0.5
		c0.3-0.2,0.6-0.4,0.9-0.2c1.6,0.8,3.5,0.9,4.6,2.5c-2.4,1-5.1,1.1-7.7,1.6C34.6,69,33.2,68.2,31.8,68.2z"/>
	<path fill="#F4F0D6" d="M36.5,51.6c-1.1-0.6,0-1.4-0.3-2.1c0.9,0,1.7,0.7,2.5,0.8c3.4,0.7,6.7,1.1,9.9-0.9c1.1-0.7,2.2-1.4,3.3-2
		c0.7-0.4,0.9-0.8,0.8-1.5h0.1c0.7,0.6,0.9,1,0.3,1.9c-1,1.6-1.5,3.4-2.8,4.9c-0.4,0.5-0.8,0.5-1.3,0.3c-3.8-1.3-7.6-2.2-11.6-1.3
		C37.1,51.7,36.8,51.6,36.5,51.6z"/>
	<path fill="#E9E5A1" d="M34.5,39c0.3-0.1,0.8,0,0.8-0.5c0-0.4-0.2-0.5-0.5-0.7c-0.4-0.3-1.1-0.4-0.7-1.3c0.2-0.4-0.4-0.3-0.7-0.2
		c-0.4,0.3-0.8,0.6-1.2,0.9c-0.8,0.6-1.6,1-2.7,0.9c1-0.5,2-1,2.9-1.9c0.6-0.5,0.6-0.9,0.1-1.5c0.1-0.4,0.2-0.6,0.6-0.4
		c0.7,0.3,1.5,0.2,2.1,0.7c-0.4,0.1-0.9-0.2-1,0.4c-0.1,0.3,0.1,0.4,0.4,0.4c0.6,0.1,0.6-0.3,0.6-0.8c1.6,0.5,2.7,1.9,2.1,3
		c-0.6,1.1-1.2,2.5-2.9,2.4C34.8,40,34.9,39.5,34.5,39z"/>
	<path fill="#F4F0D6" d="M56.4,50.3c-1.2,0.4-1.7,1.2-1.4,2.5c0.2,0.9,0.3,1.7-0.1,2.5c-1.2-0.4-2.1-1.5-3.8-1.6
		c1.6-1.4,2.1-3.2,2.9-4.8c0.4-0.7,0.7-0.7,1-0.1C55.5,49.4,56,49.8,56.4,50.3z"/>
	<path fill="#E3BC8D" d="M29.5,69.3c0.7-0.1,1.3-0.2,2-0.3c2.4,1.6,4.9,1.5,7.5,0.8c1.1-0.3,2.3-0.4,3.5-0.5
		c-0.3,0.8-1.2,0.7-1.8,0.9c-1.6,0.5-3.3,1-4.9,1.5c-0.2-0.6-0.5-0.9-1.2-1.1c-2.2-0.5-4.2,0.1-6.2,0.7c-0.2,0-0.4,0-0.6,0
		C28.3,70.6,29.2,70.2,29.5,69.3z"/>
	<path fill="#EFECB8" d="M57.7,56.7c-0.1-0.5-0.6-0.9,0.3-1.2c1.2-0.5,1.4-1.8,2-2.9c0.3-0.6,0.6-1.4,1.4-0.4
		C60.3,53.8,59.4,55.6,57.7,56.7z"/>
	<path fill="#E39D49" d="M49.5,68.3c-1.7,0.8-3.5,0.5-5.3,0.5c0.7-0.6,1.4-0.9,2.3-1.1C47.5,67.8,48.6,67.5,49.5,68.3z"/>
	<path fill="#E3BC8D" d="M49.5,68.3c-0.9-0.8-2-0.5-3-0.6c0.6-0.9,1.4-1,2.4-0.5s2,0.5,3.1,0.6c-0.2,0.1-0.3,0.3-0.5,0.4
		c-0.3,0-0.5,0.1-0.8,0.1C50.2,68.3,49.8,68.3,49.5,68.3z"/>
	<path fill="#DFBB68" d="M62.5,50c0.3-1.3-0.3-3,1.6-3.5C63.7,47.7,63.5,49,62.5,50z"/>
	<path fill="#F4F0D6" d="M31.4,59.4c0.2-0.8,0.4-1.5,1.5-0.7c0.4,0.3,1.1,0.2,1.7,0.2c-0.7,0.3-1.4,0.3-2,0.8
		C32,60.1,31.7,59.5,31.4,59.4z"/>
	<path fill="#EFECB8" d="M54.9,45.7c1.1,0.8,2.3,1.6,2.8,3C56.3,48.2,55.5,47.1,54.9,45.7z"/>
	<path fill="#F4F0D6" d="M29.4,56.3c0.2-0.2,0.3-0.4,0.5-0.6c0.4,1,1.3,1.8,0.8,3C29.7,58.3,29.8,57.2,29.4,56.3z"/>
	<path fill="#E3BC8D" d="M23.2,47.5c0-0.2,0-0.4,0-0.6c0.7,0.1,1.1-0.5,1.6-0.8c0.4-0.4,0.8-0.4,1.2,0C25,46.4,24.3,47.4,23.2,47.5z
		"/>
	<path fill="#E3BC8D" d="M53.6,39.8c0.3,0.7,0.6,1.3-0.4,1.7c-0.1,0-0.2,0-0.2-0.1s-0.1-0.1-0.1-0.2c0.4-0.2,0.4-0.5,0.2-0.8
		C53,40,53.2,39.8,53.6,39.8z"/>
	<path fill="#F4F0D6" d="M52,45.6c0.3,0,0.5,0,0.8,0l0.1,0.1l-0.1,0.1h-0.1C52.5,45.8,52.3,45.7,52,45.6z"/>
	<path fill="#DFBB68" d="M23,47.8c0-0.1-0.1-0.1-0.1-0.2c0.1,0,0.2-0.1,0.4-0.1C23.2,47.6,23.1,47.7,23,47.8z"/>
	<path fill="#EFECB8" d="M54.4,44.7c0.3,0.1,0.2,0.4,0.3,0.6C54.5,45.2,54.4,45,54.4,44.7z"/>
	<path fill="#EFECB8" d="M54.2,44.3c0.1,0.2,0.1,0.3,0.2,0.5C54.3,44.6,54.3,44.4,54.2,44.3z"/>
	<path fill="#E3BC8D" d="M43,69.1c-0.1,0-0.2,0.1-0.3,0.1C42.8,69.2,42.9,69.1,43,69.1z"/>
	<path fill="#F4F0D6" d="M54.9,55.2c0.3,0,0.2,0.1,0.1,0.3C55,55.4,54.9,55.4,54.9,55.2C54.9,55.3,54.9,55.3,54.9,55.2z"/>
	<path fill="#DFBB68" d="M31.2,43c0,0-0.1,0-0.1-0.1c0.1,0,0.1-0.1,0.2-0.1C31.3,42.9,31.3,43,31.2,43z"/>
	<path fill="#EFECB8" d="M54.7,45.3c0.1,0.1,0.2,0.3,0.3,0.4C54.9,45.6,54.8,45.4,54.7,45.3z"/>
	<path fill="#DD2B28" d="M74.3,42.5c0,0.6,0,1.2-0.6,1.7c-0.1-0.5-1-0.7-0.6-1.3C73.3,42.4,73.8,42.6,74.3,42.5z"/>
	<path d="M29.5,69.3c-0.3,0.9-1.2,1.2-1.6,2c-0.4,0.2-0.8,0.5-1.2,0.7c-2.1,1-3.3,0.2-3.1-2.1c0.7-1.5,1.4-2.9,2-4.4
		c0.7-0.3,0.9-1,1.5-1.5c1.6-0.3,1.6,1.2,2.1,2C29.7,66.9,30.2,68.2,29.5,69.3z M27.5,65.9C26.3,67,25.8,68.6,25,70
		c-0.4,0.7,0.1,0.9,0.7,0.8C28.1,70.3,28.9,68,27.5,65.9z"/>
	<path fill="#E66128" d="M28.4,71.3c2-0.7,4-1.3,6.2-0.7c0.7,0.2,1,0.5,1.2,1.1c-0.5,0.6-1.1,0.5-1.8,0.3c-1.1-0.3-1.7,0.1-1.3,1.1
		c0.3,1-0.6,1.6-0.4,2.5c0,0.2-0.2,0.4-0.4,0.3c-0.3-0.1-0.7-0.1-0.9-0.5c-0.6-1.1-0.9-2.3-2.2-2.8C28.3,72.4,28.7,71.7,28.4,71.3z"
		/>
	<path fill="#E39D49" d="M25.6,65.5c-0.7,1.5-1.4,2.9-2,4.4C23.4,69,23.2,68,23,67.1c-0.1-0.5-0.4-0.7-0.8-0.8
		c-0.2-0.2-0.2-0.9-0.8-0.4C21,66.1,20.6,66,20.2,66c0.6-0.5,1.1-1.1,1.9-1.3C23.3,64.6,24.5,64.7,25.6,65.5z"/>
	<path fill="#E39D49" d="M50.5,68.3c0.3,0,0.5-0.1,0.8-0.1C51.2,68.6,50.9,68.5,50.5,68.3z"/>
	<path fill="#DFBB68" d="M25.6,65.5c-1.1-0.8-2.3-0.8-3.5-0.8c0.8-0.8,1.4-1.6,1.5-2.8c1-0.6,2.2-0.7,3.1-1.5c0.5-0.4,0.7,0,1,0.3
		c0.8,0.8,1.5,1.7,2.6,2.1c0.2,0.1,0.4,0.3,0.4,0.5c0,0.3-0.4,0.3-0.6,0.4c-0.5,0.1-0.9-0.1-1.3-0.3c-0.7-0.4-1.4-0.5-1.7,0.6
		C26.5,64.4,26.3,65.2,25.6,65.5z"/>
	<path fill="#F4F0D6" d="M17.1,65.3c1.1-1.7,2.6-2.9,4-4.2c0.6-0.5,0.8-0.1,0.9,0.3c0.1,0.4,0.1,0.8-0.1,1.2
		C21.4,63.9,18.6,65.5,17.1,65.3z"/>
	<path fill="#DD2B28" d="M19.3,77.3c0.9-0.4,1.6-0.2,2.2-0.2s0.6,0.5,0.5,0.9c-0.1,0.5-0.5,0.3-0.7,0.2C20.7,78,20,77.9,19.3,77.3z"
		/>
	<path d="M46.7,37.8c-0.4,1.7-1.6,2.4-3.2,2.7c-0.7,0.1-1.4,0.2-2,0.2c-0.7,0-1.3-0.3-1.2-1.1c0.1-0.7,0.6-0.8,1.2-0.5
		c0.1,0,0.2,0,0.3,0c1.2,0,2.5,0.2,3.1-1s-0.4-2.2-1.4-3c-0.5-0.4-1-0.7-0.8-1.4c0.1-0.4,0.4-0.5,0.7-0.6c0.7-0.2,1.2,0.5,1.4,0.9
		c0.5,0.8,1,0.7,1.6,0.4c0.9-0.5,1.8-0.2,2.6,0.2c2.8,1.3,5.8-0.3,6.2-3.3c0.3-2.5,0.2-5-2-6.9c-1-0.9-2.1-1.2-3.3-1.3
		c-0.6,0-1.3,0.1-1.3-0.8s0.6-0.8,1.2-0.9c3.6-0.1,7,3,7.1,6.7c0,1.2,0.1,2.4-0.1,3.6c-1.2,3.8-3.4,5.3-7,5c-1-0.5-1.9-1.4-3.2-0.8
		c-0.6,0.3,0.1,0.3,0.2,0.5C46.7,36.9,46.7,37.4,46.7,37.8z"/>
	<path d="M32.6,34.8c0.5,0.5,0.4,0.9-0.1,1.5c-0.9,0.8-1.8,1.4-2.9,1.9c-1.3,0-2.3-0.6-3-1.6c-0.2-0.3-0.2-0.8-0.7-0.8
		c-0.2-0.6-0.1-1.2-0.7-1.6c0.1-1.9-0.1-3.9,0.7-5.7c1.4-3.2,3.9-5.2,6.9-6.7c1.7-0.9,3.4-0.9,5.3-0.3c0.6,0.2,0.9,0.4,0.8,1
		c-0.1,0.6-0.3,0.9-1,0.6c-2.2-0.9-4-0.1-5.8,1.1c-2.1,1.4-4.1,2.9-4.7,5.5c-0.4,1.8-1,3.8,0.4,5.5c0.1,0.1,0.1,0.2,0.2,0.3l0,0
		c0.7,1.5,1.6,1.6,3,0.3C31.5,35.2,32,35,32.6,34.8z"/>
	<path fill="#E3BC8D" d="M49.8,36.7c3.6,0.3,5.8-1.2,7-5c1-0.9,2.2-0.2,3.2-0.1c0.5,0.1,0.4,0.6,0.4,1c0,0.6,0.1,1,0.7,1.3
		c1.6,0.8,1.8,0.7,1.8-1.1c0-0.4-0.1-0.8,0.3-1.2c0,0.2,0.1,0.3,0.1,0.5c0,0.7,0,1.3,0,2c-0.1,0.4,0,0.8-0.4,1.1
		c-0.5-0.4-0.9-0.4-1.3,0.1c-0.6,0.8-1.1,1.5-0.9,2.6c-0.7,0-1.2,0.1-1.5,0.9c-0.6,1.5-0.3,2.8,0.5,4.1c0.3,0.5,0.6,0.3,0.9,0
		c0.1,0,0.2,0,0.3,0c0,0.5-0.2,1.1-0.7,1.2c-0.6,0.2-0.8-0.4-1.1-0.8c-0.8-1-1.3-2.1-0.8-3.4c0.4-1.2-0.4-2.1-0.7-3.1
		c0.5-0.2,1-0.4,1.5-0.7c0.7-0.5,1.3-1.3,1-2s-0.9-1.4-2-1.5c-0.7-0.1-0.9,0.2-1,0.7c-0.3,0.9-0.6,1.8-1.7,2c-0.1,0-0.2,0.4-0.3,0.6
		c-0.5,0.5-0.9,0.9-1.4,1.4c-0.4,0.4-0.7,0.7,0.1,1c0.4,0.1,0.3,0.5,0,0.8c-0.6-0.3-1.2-0.3-1.8-0.2c-1.8-0.1-3.4-0.9-5.1-1.2
		c0-0.5,0-0.9,0-1.4C47.8,36.3,48.7,36.7,49.8,36.7z"/>
	<path d="M23.2,22.9c1.6-3.7,4.3-6.1,8.4-6.6c0.6,0,1.1,0,1.7,0c1,0.2,1.9,0.5,2.4,1.5c-0.6,1.5-1.5,0-2.2,0.2
		c-3.1-1.1-7.6,2.3-8.4,4.8c0.7-0.3,1.3-0.7,1.7-1.2c1-1.3,2-2.7,3.8-3.1c0.9-0.2,1.4,0,1.3,1c-1.8,0.5-3.1,1.7-4.1,3.1
		c-0.6,0.8-1.3,1.3-2.2,1.7c-0.3,0-0.5,0-0.8,0C23.8,24,23.1,23.9,23.2,22.9z"/>
	<path fill="#E3BC8D" d="M35.6,17.7c-0.5-1-1.4-1.3-2.4-1.5c0.7-0.9,1.4,0.3,2-0.1c0.4-0.3-0.8-0.4-0.2-0.7c1.7-0.6,3.5-1.2,5.2-1.6
		c1.1-0.3,2.4-0.2,3.5-0.3c2.4-0.4,4.7-1,7.1-0.5c1.3-0.3,2.1,0.4,2.8,1.3c-0.8,0.3-1.8-0.4-2.4,0.6c-1.7-0.3-3.6-1.1-5-0.6
		c-2.4,0.7-5,0.8-7.3,1.8C37.8,16.6,36.7,17.2,35.6,17.7z"/>
	<path d="M51.2,14.9c0.6-1,1.6-0.3,2.4-0.6c0.2,0,0.3,0,0.5,0c0.3,0,0.6,0.1,0.8,0.1c2.6,0.8,3.8,2.7,4,5.3c-1.4,2.1-3,2.1-4.2,0
		c-0.4-0.8-0.8-1.5-1.5-2c-0.4-0.3-0.5-0.7-0.2-1.2c1.1-0.2,1.8,0.3,2.3,1.3c0.3,0.5,0.5,1,0.8,1.4c0.2,0.3,0.4,0.6,0.9,0.5
		c0.4-0.2,0.4-0.5,0.3-0.9C57.1,17,55,15.6,53,16C52.5,15.5,51.1,16.4,51.2,14.9z"/>
	<path fill="#E9E5A1" d="M25.2,34c0.5,0.4,0.5,1.1,0.7,1.6c-0.5-0.1-1.2,0.6-1.3-0.5c-0.1-0.5-0.7-0.4-1-0.2
		c-0.4,0.3,0.1,0.5,0.3,0.7c0.5,0.3,0.1,0.7,0,1c0.6,0.4,1.4-0.3,1.7,0.7c-0.7-0.2-1.4-0.3-0.7,0.8c0.2,0.3,0.2,0.7,0.5,1
		c0.4,0.5,0.1,0.8-0.4,0.7c-0.3,0-0.6-0.2-0.9-0.3c0-0.2-0.1-0.5-0.3-0.6c0-0.3-0.2-0.5-0.5-0.6c0-0.3,0-0.6-0.3-0.8
		c-0.1-1.3-0.1-2.7-0.6-3.9c0-0.2,0-0.3,0-0.5c0.3-0.1,0.6-0.2,0.9-0.3l0,0c0,0.4,0.2,0.6,0.6,0.5C24,33.7,24.5,34,25.2,34z"/>
	<path fill="#F4F0D6" d="M23.9,39.5c0.3,0.1,0.6,0.2,0.9,0.3c0.5,0,0.9-0.2,0.4-0.7c-0.3-0.3-0.3-0.6-0.5-1c-0.7-1.1,0-0.9,0.7-0.8
		c0.6,0.4,1.1,0.9,1.7,1.3c0.5,0.3,0.8,0.6,0.6,1.3c-0.2,0.7-0.7,1-1.1,0.9c-1.6-0.2-3.2-0.2-4.5-1.3C22.7,39.5,23.3,39.5,23.9,39.5
		z"/>
	<path fill="#35281E" d="M35.5,30.7c-0.7,0-1.8-1-1.7-1.6c0-0.5,1.6-1.6,2.3-1.7c0.8-0.1,1.4,0.2,1.4,1.1
		C37.5,29.5,36.4,30.7,35.5,30.7z"/>
	<path fill="#E3BC8D" d="M23.2,22.9c-0.1,1.1,0.7,1.2,1.4,1.3c0.1,0.6-0.9,0.6-0.8,1.3c-0.1,0.2-0.2,0.3-0.4,0.5
		c-0.8,0.4-1.3,1.1-1.3,2l0,0c-1,0-1.1,1.1-1.8,1.4c0.3-0.9-0.5-2.1,0.6-2.7c0.8-0.4,0.4-0.8,0.4-1.3c0.2-0.3,0.6-0.4,0.6-0.8
		c0.9,0.1,1.1-0.4,0.8-1.1C22.8,23.3,23,23.1,23.2,22.9z"/>
	<path fill="#E3BC8D" d="M31.8,19.3c0.2-1.1-0.4-1.2-1.3-1c-1.8,0.4-2.8,1.8-3.8,3.1c-0.5,0.6-1,1-1.7,1.2c0.8-2.5,5.3-5.9,8.4-4.8
		c0.6,0.5,0.5,0.9-0.3,1.1C32.7,19.1,32.2,19,31.8,19.3z"/>
	<path fill="#35281E" d="M52.8,29c0,1.3-0.8,1.8-1.8,1.8c-0.9,0-1.4-0.6-1.5-1.5c0-0.8,1.3-1.6,2.3-1.5C52.6,27.9,53,28.3,52.8,29z"
		/>
	<path fill="#F4F0D6" d="M53,16c2-0.4,4.1,1,4.3,2.8c0.1,0.4,0.1,0.8-0.3,0.9c-0.4,0.2-0.7-0.1-0.9-0.5c-0.3-0.5-0.5-1-0.8-1.4
		c-0.5-0.9-1.2-1.5-2.3-1.3C53,16.4,53,16.2,53,16z"/>
	<path fill="#F4F0D6" d="M20.3,29.3c0.7-0.3,0.9-1.4,1.8-1.4c0.1,0.4-0.1,0.8-0.4,1.1c-0.6,0.8-1.1,1.7-0.8,2.8
		c0.1,0.5-0.2,0.5-0.5,0.6c-0.2,0-0.5-0.1-0.7-0.1c0-0.7,0-1.4,0-2.1C20.2,30.2,20.2,29.7,20.3,29.3z"/>
	<path fill="#F4F0D6" d="M30.9,35.4c-1.4,1.3-2.3,1.2-3-0.3C28.9,35.3,30,34.7,30.9,35.4z"/>
	<path fill="#E9E5A1" d="M51.8,39c0.6-0.1,1.2-0.1,1.8,0.2c0,0.2,0,0.4,0,0.5c-0.4,0-0.6,0.2-0.4,0.6c0.1,0.3,0.1,0.6-0.2,0.8
		C52.1,40.7,52.2,39.8,51.8,39z"/>
	<path fill="#F4F0D6" d="M22,33.7c0.6,1.2,0.5,2.6,0.6,3.9C21.8,36.8,21.4,34.6,22,33.7z"/>
	<path fill="#F4F0D6" d="M22.1,39.5c-2-0.2-1.2-1.7-1.4-2.8C21.8,37.4,21.8,38.5,22.1,39.5z"/>
	<path fill="#DFBB68" d="M19.7,32.3c0.2,0,0.5,0.1,0.7,0.1c0,0.7,0.1,1.4,0.1,2.2c0,0.3-0.1,0.6-0.1,0.9
		C19.6,34.5,19.6,33.4,19.7,32.3z"/>
	<path fill="#F4F0D6" d="M22.1,27.9c0-0.9,0.5-1.6,1.3-2C23.4,26.8,23.4,27.8,22.1,27.9z"/>
	<path fill="#F4F0D6" d="M23.8,25.4c-0.1-0.7,0.9-0.6,0.8-1.3c0.3,0,0.5,0,0.8,0C25.6,25.5,24.4,25.1,23.8,25.4z"/>
	<path fill="#F4F0D6" d="M20.4,35.4c0-0.3,0.1-0.6,0.1-0.9c0.8,0.7,0.3,1.5,0.2,2.2c-0.3-0.1-0.2-0.4-0.3-0.6
		C20.4,35.9,20.4,35.6,20.4,35.4z"/>
	<path fill="#DFBB68" d="M63.2,29.9c0.6,0.6,0.7,1.3,0.1,1.9C63.1,31.1,63.1,30.5,63.2,29.9z"/>
	<path fill="#F4F0D6" d="M22.9,32.9c-0.3,0.1-0.6,0.2-0.9,0.3c-0.2-0.1-0.5-0.2-0.3-0.4C22.1,32.5,22.6,32.5,22.9,32.9z"/>
	<path fill="#F4F0D6" d="M23,38.3c0.3,0.1,0.5,0.3,0.5,0.6C23.1,38.9,22.9,38.7,23,38.3z"/>
	<path fill="#F4F0D6" d="M23.5,33.4c-0.4,0-0.6-0.2-0.6-0.5C23.3,32.9,23.5,33.1,23.5,33.4z"/>
	<path fill="#DFBB68" d="M62.6,27.9c0.5,0.1,0.4,0.5,0.3,0.8C62.6,28.6,62.7,28.2,62.6,27.9z"/>
	<path fill="#F4F0D6" d="M27.9,35.1c-0.1-0.1-0.1-0.2-0.2-0.3C27.8,34.9,27.8,35,27.9,35.1z"/>
	<path fill="#DFBB68" d="M50.8,13c-2.4-0.5-4.7,0.1-7.1,0.5c-1.1,0.2-2.3,0-3.5,0.3c-1.8,0.5-3.5,1-5.2,1.6
		c-0.7,0.2,0.6,0.3,0.2,0.7c-0.7,0.3-1.4-0.8-2,0.1c-0.6,0-1.1,0-1.7,0c1.4-0.9,3-1.5,4.4-2.3s2.8-2,4.6-2.2
		c0.8-0.1,1.7-0.2,2.5-0.1c1.5,0.3,3,0,4.6,0c0.3,0,0.7,0,0.9,0.2c0.5,0.3,0.5,0.1,1.1,0.1s1.3,0.4,2.1,0.4
		C51.4,12.7,50.9,12.6,50.8,13z"/>
	<path fill="#DFBB68" d="M54.9,36.1c0.1-0.2,0.2-0.5,0.3-0.6c1.2-0.2,1.4-1.1,1.7-2c0.2-0.5,0.4-0.7,1-0.7c1,0.1,1.7,0.8,2,1.5
		s-0.3,1.6-1,2c-0.4,0.3-1,0.5-1.5,0.7C56.8,36.3,55.9,35.9,54.9,36.1z"/>
	<path fill="#DFBB68" d="M60.8,38.1c-0.2-1,0.4-1.8,0.9-2.6c0.3-0.5,0.8-0.6,1.3-0.1c0.2,1.1,0.3,2-0.9,2.8c-1,0.8-0.8,2.5-1,3.8
		c-0.1,0.4,0.1,0.7-0.2,1.1c-0.1,0-0.2,0-0.3,0C60.3,41.4,60.5,39.7,60.8,38.1z"/>
	<path fill="#DFBB68" d="M24.8,46.1c-0.5,0.3-0.9,0.9-1.6,0.8c-1.1,0-2-0.6-2.9-1.3s-0.2-1.6,0.1-2.1c0.4-0.6,0.6,0.4,1,0.5
		C22.7,44.4,23.7,45.5,24.8,46.1z"/>
	<path fill="#DFBB68" d="M20.3,29.3c0,0.4-0.1,0.8-0.6,0.8c-0.2-1.2,0.1-2.3,0.3-3.5c0.1-0.7,0.4-1.3,1.3-1.3
		c0.1,0.5,0.5,0.9-0.4,1.3C19.8,27.2,20.6,28.5,20.3,29.3z"/>
	<path fill="#DFBB68" d="M22.7,23.5c0.3,0.8,0.1,1.2-0.8,1.1C21.6,23.8,21.9,23.5,22.7,23.5z"/>
	<path fill="#DFBB68" d="M63.3,34.3c0-0.7,0-1.3,0-2C64,33,64,33.6,63.3,34.3z"/>
	<path fill="#E3BC8D" d="M54.9,14.4c-0.3,0-0.6-0.1-0.8-0.1C54.4,14.2,54.7,13.7,54.9,14.4z"/>
	<path fill="#FBFBF8" d="M42.1,56.2c3.3,1.1,6.4,1.8,9.1,3.6c0.7,0.5,0.4,1.3,0.7,1.9c-0.7,0.2-1.5,0.4-2,0.1
		c-2-1.4-4.3-2.3-6.4-3.5C42.7,57.8,42.7,57.1,42.1,56.2z"/>
	<path fill="#F4F0D6" d="M35.3,50.3c-0.2,0.1-0.3,0.2-0.4,0.2c-0.1,0-0.2-0.1-0.3-0.2c0.1-0.1,0.2-0.2,0.3-0.2
		C35,50,35.2,50.2,35.3,50.3z"/>
	<path fill="#DFBB68" d="M35.4,35.1c0,0.4,0,0.8-0.6,0.8c-0.2,0-0.5-0.2-0.4-0.4C34.5,34.9,35,35.2,35.4,35.1L35.4,35.1z"/>
	<path fill="#F4F0D6" d="M27.5,65.9c1.4,2.1,0.6,4.4-1.8,4.8c-0.7,0.1-1.1-0.1-0.7-0.8C25.8,68.6,26.3,67.1,27.5,65.9z"/>
	<path fill="#F4F0D6" d="M49.8,36.7c-1,0-2-0.5-3-0.3c-0.1-0.2-0.8-0.2-0.2-0.5C47.8,35.3,48.7,36.2,49.8,36.7z"/>
	<path fill="#F4F0D6" d="M60.8,38.1c-0.2,1.7-0.4,3.3-0.2,5c-0.3,0.3-0.6,0.4-0.9,0c-0.8-1.3-1.1-2.7-0.5-4.1
		C59.5,38.2,60.1,38.1,60.8,38.1z"/>
</g>
<text transform="matrix(1 0 0 1 16.5402 96.7004)" font-family="'BernhardModernStd-Roman'" font-size="9.6025px"> </text>
<rect x="-2.2" y="83.5" fill="none" width="83.2" height="28.2"/>
<text transform="matrix(1 0 0 1 102 143)" font-family="'MyriadPro-Regular'" font-size="12px">Lorem ipsum</text>
<g>
	<path d="M5.2,96.8C5.1,96.9,5,97,4.9,97c-0.1,0-0.1-0.1-0.1-0.1c0-0.1,0-0.1,0.1-0.2c0.3-0.2,1.7-1.1,1.7-3.6
		c0-2.4-0.1-5.8-0.2-7.5c-0.2,0-0.7-0.1-0.9-0.2c0,0-0.1-0.1-0.1-0.1c0-0.1,0-0.1,0.1-0.1c0.1,0,0.6,0.1,1.4,0.1
		c0.8,0,1.3-0.1,1.4-0.1c0.1,0,0.1,0.1,0.1,0.1c0,0.1,0,0.1-0.1,0.1c-0.3,0.1-0.8,0.2-1,0.2c0,1.8,0.1,5.3,0.1,7.4
		C7.4,95,6.2,96,5.2,96.8z"/>
	<path d="M13.7,91.6c0,1.7-1.1,2.7-2.6,2.7c-1.1,0-2-0.7-2-2.1c0-1.7,1.4-2.6,2.6-2.6C12.9,89.5,13.7,90.2,13.7,91.6z M11.5,94
		c1.1,0,1.5-0.9,1.5-2c0-1.2-0.4-2.2-1.4-2.2c-0.9,0-1.6,0.7-1.6,2C10,93.1,10.4,94,11.5,94z"/>
	<path d="M14.7,96.8c-0.3,0-0.5-0.2-0.5-0.6c0-0.4,0.2-0.6,0.5-0.6c0.3,0,0.4,0.1,0.5,0.3c0.2-0.3,0.7-1.1,0.9-1.6
		c-0.1-0.3-0.9-2.5-1.4-3.8c0-0.2-0.1-0.3-0.2-0.5c-0.2-0.1-0.4-0.1-0.5-0.2c-0.1,0-0.1-0.1-0.1-0.1s0.1-0.1,0.1-0.1
		c0.1,0,0.4,0.1,1,0.1c0.5,0,0.8-0.1,0.8-0.1c0.1,0,0.1,0,0.1,0.1s0,0.1-0.1,0.1c-0.1,0.1-0.3,0.1-0.5,0.2c0.1,0.4,0.8,2.6,1.1,3.3
		c0.4-1.1,0.8-2.5,1-3.3c-0.2,0-0.3-0.1-0.4-0.2c-0.1,0-0.1,0-0.1-0.1c0-0.1,0.1-0.1,0.1-0.1c0.1,0,0.4,0.1,0.8,0.1
		c0.4,0,0.6-0.1,0.7-0.1c0.1,0,0.1,0,0.1,0.1c0,0.1,0,0.1-0.1,0.1c-0.1,0.1-0.3,0.1-0.4,0.2c-0.1,0.4-0.8,2.1-1.5,3.8
		C15.6,96,15.2,96.8,14.7,96.8z"/>
	<path d="M23.9,91c-0.4,0-0.8-0.1-1.2-0.1c0,0.3,0,0.8,0,1.2c0,0.4,0,0.9,0,1.2c0,0.3,0.1,0.4,0.5,0.4c0.4,0,0.6-0.4,0.7-0.4
		c0.1,0,0.1,0,0.1,0.1c0,0.2-0.5,0.8-1.1,0.8c-0.7,0-0.8-0.5-0.8-1.2c0-0.6,0-1.9,0-2.1c-0.3,0-0.5,0-0.7,0.1v-0.4
		c0.1,0,0.2,0,0.4,0c0.1,0,0.2,0,0.4,0v-2.1h0.6c0,0.7-0.1,1.7-0.1,2.1c0.4,0,0.9,0,1.2-0.1V91z"/>
	<path d="M28,92.1c0,1.3-0.9,2.1-2,2.1c-0.9,0-1.5-0.5-1.5-1.7c0-1.3,1.1-2.1,2.1-2.1C27.4,90.5,28,91,28,92.1z M26.3,94
		c0.8,0,1.2-0.7,1.2-1.6c0-0.9-0.3-1.7-1.1-1.7c-0.7,0-1.2,0.5-1.2,1.6C25.1,93.3,25.4,94,26.3,94z"/>
	<path d="M31.3,96.2c-0.2,0-0.4-0.2-0.4-0.5c0-0.3,0.2-0.5,0.4-0.5c0.2,0,0.3,0.1,0.4,0.2c0.2-0.2,0.5-0.8,0.7-1.2
		c-0.1-0.3-0.7-2-1.1-3c0-0.1-0.1-0.3-0.2-0.4c-0.1,0-0.3-0.1-0.4-0.1c-0.1,0-0.1,0-0.1-0.1c0-0.1,0.1-0.1,0.1-0.1
		c0.1,0,0.4,0.1,0.8,0.1c0.4,0,0.6-0.1,0.7-0.1c0,0,0.1,0,0.1,0.1c0,0.1,0,0.1-0.1,0.1c-0.1,0-0.2,0.1-0.4,0.1
		c0.1,0.3,0.7,2,0.9,2.6c0.3-0.9,0.6-2,0.8-2.6c-0.1,0-0.2-0.1-0.3-0.1c-0.1,0-0.1,0-0.1-0.1c0-0.1,0.1-0.1,0.1-0.1
		c0.1,0,0.3,0.1,0.6,0.1c0.3,0,0.5-0.1,0.5-0.1c0,0,0.1,0,0.1,0.1c0,0.1,0,0.1-0.1,0.1c-0.1,0.1-0.2,0.1-0.3,0.1
		c-0.1,0.3-0.6,1.6-1.2,2.9C32,95.6,31.6,96.2,31.3,96.2z"/>
	<path d="M38.1,92.1c0,1.3-0.9,2.1-2,2.1c-0.9,0-1.5-0.5-1.5-1.7c0-1.3,1.1-2.1,2.1-2.1C37.4,90.5,38.1,91,38.1,92.1z M36.3,94
		c0.8,0,1.2-0.7,1.2-1.6c0-0.9-0.3-1.7-1.1-1.7c-0.7,0-1.2,0.5-1.2,1.6C35.1,93.3,35.5,94,36.3,94z"/>
	<path d="M41.5,93.6c-0.3,0.2-0.8,0.6-1.5,0.6c-0.5,0-0.8-0.4-0.8-1c0-0.3,0-0.7,0-1.3c0-0.2,0-0.8,0-1c-0.1,0-0.4,0-0.5,0
		c0,0-0.1,0-0.1-0.1c0-0.1,0.1-0.1,0.7-0.3c0.3-0.1,0.4-0.1,0.5-0.1c0.1,0,0.1,0.1,0.1,0.1c0,0.1,0,0.4,0,0.6c0,0.1,0,1.4,0,1.9
		c0,0.5,0.1,0.7,0.7,0.7c0.5,0,0.7-0.2,1-0.4v-0.9c0-0.3,0-1.2,0-1.5c-0.1,0-0.4,0-0.6,0c0,0-0.1,0-0.1-0.1c0-0.1,0.1-0.1,0.7-0.3
		c0.3-0.1,0.4-0.1,0.5-0.1c0.1,0,0.1,0.1,0.1,0.1c0,0.1,0,0.4,0,0.6c0,0.1,0,0.9,0,1.3c0,0.3,0,1,0,1.4c0.2,0,0.4,0.1,0.5,0.1
		c0.1,0,0.1,0,0.1,0.1c0,0.1-0.1,0.1-0.1,0.1c-0.1,0-0.4-0.1-0.7-0.1c-0.1,0-0.2,0-0.5,0.1V93.6z"/>
	<path d="M44.4,91.8c0.1-0.5,0.5-1.3,1.1-1.3c0.2,0,0.4,0.2,0.4,0.5c0,0.3-0.2,0.5-0.4,0.5c-0.3,0-0.3-0.3-0.4-0.3
		c-0.5,0-0.7,1.2-0.7,1.9c0,0.2,0,0.6,0,0.8c0.3,0,0.7,0.1,1,0.1c0.1,0,0.1,0,0.1,0.1c0,0.1-0.1,0.1-0.1,0.1c-0.1,0-0.6-0.1-1.3-0.1
		c-0.5,0-0.8,0.1-0.8,0.1c0,0-0.1,0-0.1-0.1c0-0.1,0-0.1,0.1-0.1c0.1-0.1,0.4-0.1,0.5-0.1c0-0.3,0-1,0-1.3c0-0.3,0-1.3,0-1.6
		c-0.1,0-0.5,0-0.6,0c0,0-0.1,0-0.1-0.1c0-0.1,0.1-0.1,0.8-0.3c0.2-0.1,0.3-0.1,0.4-0.1c0.1,0,0.1,0.1,0.1,0.1
		C44.3,90.7,44.3,91.4,44.4,91.8L44.4,91.8z"/>
	<path d="M54.7,94.2c0,0.1-0.1,0.2-0.1,0.2c-0.1,0-0.1-0.1-0.1-0.2l-1-3.1c-0.3,0.9-0.9,2.5-1,3.1c0,0.1-0.1,0.2-0.1,0.2
		S52,94.3,52,94.2c-0.9-2.4-2.3-6.3-2.9-8c-0.1,0-0.4-0.1-0.6-0.2c0,0-0.1-0.1-0.1-0.1c0-0.1,0-0.1,0.1-0.1c0.1,0,1.2,0.1,2.3,0.1
		c1.2,0,2.2-0.1,2.3-0.1c0.1,0,0.1,0.1,0.1,0.1c0,0.1,0,0.1-0.1,0.1c-0.2,0.1-0.7,0.1-0.8,0.2c0.4,1.1,0.8,2.3,1.2,3.4
		c0.3-1,0.8-2.6,0.9-3.4c-0.1,0-0.7-0.1-0.8-0.2c0,0-0.1-0.1-0.1-0.1c0-0.1,0-0.1,0.1-0.1c0.1,0,1.1,0.1,2.3,0.1c1,0,2-0.1,2.1-0.1
		c0.1,0,0.1,0.1,0.1,0.1c0,0.1,0,0.1-0.1,0.1c-0.2,0.1-0.5,0.1-0.6,0.2c-0.2,0.5-1.2,3.2-1.8,4.8L54.7,94.2z M50.1,86.2
		c0.8,2.3,1.6,4.6,2.4,6.9c0.2-0.5,0.5-1.5,0.8-2.3c-0.5-1.5-1.1-3-1.6-4.6H50.1z M55.6,90.8c0.4-1.3,1.1-3.6,1.3-4.6h-1.8
		c-0.2,0.7-1.1,2.9-1.4,3.8l1.1,3.1L55.6,90.8z"/>
	<path d="M61.6,91.8c0,1.6-1.1,2.5-2.4,2.5c-1,0-1.8-0.7-1.8-2c0-1.6,1.3-2.5,2.4-2.5C60.8,89.9,61.6,90.5,61.6,91.8z M59.5,94
		c1,0,1.4-0.8,1.4-1.9c0-1.1-0.3-2-1.3-2c-0.8,0-1.5,0.6-1.5,1.9C58.1,93.2,58.5,94,59.5,94z"/>
	<path d="M63.8,91.4c0.1-0.5,0.6-1.6,1.2-1.6c0.3,0,0.5,0.2,0.5,0.6c0,0.3-0.2,0.5-0.5,0.5c-0.3,0-0.3-0.3-0.5-0.3
		c-0.6,0-0.8,1.4-0.8,2.3c0,0.2,0,0.7,0,1c0.3,0,0.8,0.1,1.1,0.2c0.1,0,0.1,0.1,0.1,0.1S65,94.2,65,94.2c-0.1,0-0.7-0.1-1.5-0.1
		c-0.5,0-0.9,0.1-1,0.1c-0.1,0-0.1,0-0.1-0.1s0-0.1,0.1-0.1c0.2-0.1,0.4-0.1,0.6-0.2c0-0.3,0-1.2,0-1.6c0-0.4,0-1.5,0-1.9
		c-0.1,0-0.6,0-0.8,0c-0.1,0-0.1,0-0.1-0.1c0-0.2,0.1-0.1,0.9-0.3c0.2-0.1,0.3-0.2,0.5-0.2c0.1,0,0.1,0.1,0.1,0.2
		C63.8,90.1,63.8,90.9,63.8,91.4L63.8,91.4z"/>
	<path d="M68.4,94.1c0,0.1-0.1,0.1-0.1,0.1c-0.1,0-0.5-0.1-1-0.1s-0.9,0.1-1,0.1c-0.1,0-0.1,0-0.1-0.1s0-0.1,0.1-0.1
		c0.2-0.1,0.4-0.1,0.6-0.2c0-1.4,0-3.5,0-4.6c0-1,0-2.9,0-3.8c0-0.3-0.1-0.6-0.2-0.6c-0.2,0-0.4,0.2-0.5,0.2c-0.1,0-0.1-0.1-0.1-0.1
		c0-0.2,0.9-0.9,1.4-0.9c0.2,0,0.2,0.2,0.2,0.4c0,0.7-0.1,3.7-0.1,4.7c0,1.1,0,3.2,0,4.6c0.2,0,0.5,0.1,0.6,0.2
		C68.4,94,68.4,94,68.4,94.1z"/>
	<path d="M72.8,93.2c0,0.4,0,0.5,0.1,0.5c0.3,0,0.7-0.5,0.8-0.5c0.1,0,0.1,0.1,0.1,0.1c0,0.2-0.6,1-1.2,1c-0.3,0-0.5-0.2-0.5-0.6
		v-0.3h0c-0.2,0.4-0.7,0.9-1.4,0.9c-0.8,0-1.5-0.8-1.5-2.1c0-1.2,0.6-2.3,1.7-2.3c0.6,0,0.9,0.2,1.2,0.6c0-1.1,0-3.8,0-5
		c0-0.3-0.1-0.6-0.2-0.6c-0.2,0-0.4,0.2-0.5,0.2c-0.1,0-0.1-0.1-0.1-0.1c0-0.2,0.9-0.9,1.4-0.9c0.2,0,0.2,0.2,0.2,0.4
		c0,0.7-0.1,3.5-0.1,4.8V93.2z M72.1,90.8c-0.2-0.3-0.5-0.7-1.1-0.7c-0.7,0-1.1,0.8-1.1,1.9c0,1.2,0.4,1.7,1.1,1.7
		c0.6,0,0.9-0.4,1-0.7V90.8z"/>
	<path d="M23,108.6c-0.3,0-0.6,0-0.8,0c-0.3,0-0.6,0-0.8,0c-0.2,0-0.3,0-0.4,0s-0.1,0-0.1-0.1c0,0,0-0.1,0.1-0.1
		c0.2-0.1,0.7-0.1,0.9-0.1c0-0.8,0-2.4,0-3.5s0-2.7,0-3.5c-0.2,0-0.6-0.1-0.9-0.1c0,0-0.1,0-0.1-0.1c0-0.1,0-0.1,0.1-0.1
		c0,0,0.2,0,0.4,0c0.2,0,0.5,0,0.9,0c0.2,0,0.6,0,0.9-0.1c0.4,0,0.7,0,1,0c1,0,2,0.5,2,1.8c0,1.2-0.9,1.8-1.5,2v0
		c0.6,0.1,1.7,0.4,1.7,1.7c0,1.4-1.2,2.2-2.4,2.2C23.7,108.6,23.3,108.6,23,108.6z M22.9,104.7c0.9,0,2.5-0.1,2.5-1.7
		c0-1.3-1-1.9-1.9-1.9c-0.3,0-0.8,0-1,0.1c0,0.8,0,2.4,0,3.4H22.9z M22.5,105c0,0.9,0,2.5,0,3.3c0.2,0.1,0.8,0.1,1.1,0.1
		c1,0,1.9-0.6,1.9-1.7c0-1.7-1.7-1.7-2.6-1.7H22.5z"/>
	<path d="M28.5,106.2c-0.1,0.4-0.4,1.5-0.6,2.1c0.2,0,0.8,0.1,1.2,0.1c0,0,0.1,0,0.1,0.1c0,0.1,0,0.1-0.1,0.1
		c-0.1,0-0.6-0.1-1.3-0.1c-0.7,0-1.1,0.1-1.2,0.1c-0.1,0-0.1,0-0.1-0.1c0,0,0-0.1,0.1-0.1c0.2-0.1,0.7-0.1,0.8-0.1
		c0.4-0.9,1.1-2.6,1.6-4.1c0.3-0.8,0.5-1.6,0.7-1.9c-0.2-0.5-0.4-1.1-0.6-1.5c0.2-0.1,0.5-0.2,0.8-0.4c0.2,0.7,1,2.9,1.3,3.9
		c0.5,1.3,1,2.6,1.5,4c0.1,0,0.6,0.1,0.8,0.1c0,0,0.1,0,0.1,0.1c0,0.1,0,0.1-0.1,0.1c-0.1,0-0.5-0.1-1.2-0.1c-0.8,0-1.3,0.1-1.4,0.1
		c-0.1,0-0.1,0-0.1-0.1c0,0,0-0.1,0.1-0.1c0.3-0.1,0.8-0.1,1-0.1c-0.1-0.4-0.5-1.5-0.7-2.1H28.5z M31,105.9
		c-0.4-1.1-0.9-2.4-1.2-3.3c-0.4,1.1-1,3-1.2,3.3H31z"/>
	<path d="M35.6,105c0,1,0,2.4,0,3.2c0.2,0,0.6,0.1,0.9,0.1c0,0,0.1,0,0.1,0.1c0,0.1,0,0.1-0.1,0.1s-0.5-0.1-1.2-0.1
		s-1.2,0.1-1.2,0.1c-0.1,0-0.1,0-0.1-0.1c0,0,0-0.1,0.1-0.1c0.2-0.1,0.7-0.1,0.9-0.1c0-0.8,0-2.4,0-3.5s0-2.7,0-3.5
		c-0.2,0-0.6-0.1-0.9-0.1c0,0-0.1,0-0.1-0.1c0-0.1,0-0.1,0.1-0.1c0.1,0,0.5,0.1,1.2,0.1s1.2-0.1,1.2-0.1s0.1,0,0.1,0.1
		c0,0,0,0.1-0.1,0.1c-0.2,0.1-0.7,0.1-0.9,0.1c0,0.9,0,2.5,0,3.5c0.5-0.4,2.5-2.9,3-3.5c-0.1,0-0.4-0.1-0.6-0.2c0,0-0.1,0-0.1-0.1
		c0-0.1,0-0.1,0.1-0.1c0,0,0.5,0.1,1,0.1c0.4,0,0.8-0.1,0.9-0.1c0.1,0,0.1,0,0.1,0.1c0,0.1,0,0.1-0.1,0.1c-0.2,0.1-0.4,0.1-0.6,0.2
		c-1,0.8-2.4,2.3-3.5,3.5c0.9,0,1.3,0,1.8,0.6c0.7,0.9,1.5,2.9,2,2.9c0.2,0,0.3-0.2,0.4-0.2c0.1,0,0.1,0,0.1,0.1
		c0,0.2-0.4,0.6-0.8,0.6c-0.9,0-1.5-1.9-2.4-3.2c-0.2-0.2-0.4-0.6-1.2-0.6H35.6z"/>
	<path d="M42.2,104.8c0,1,0,2.6,0.1,3.4c0.1,0,0.3,0,0.4,0c1,0,2-0.2,2.8-0.4c0-0.3,0.1-1,0.2-1c0.1,0,0.1,0.1,0.1,0.1
		c0,0.2-0.1,0.9-0.1,1.2c0,0.2,0.1,0.6,0.1,0.8c0,0.1,0,0.1-0.1,0.1c-0.1,0-0.1-0.2-0.2-0.4c-1-0.2-2.8-0.2-3.6-0.2
		c-0.3,0-0.6,0-0.8,0c-0.2,0-0.4,0-0.4,0c-0.1,0-0.1,0-0.1-0.1c0,0,0-0.1,0.1-0.1c0.2-0.1,0.7-0.1,0.9-0.1c0-0.8,0-2.4,0-3.5
		s0-2.7,0-3.5c-0.2,0-0.6-0.1-0.9-0.1c0,0-0.1,0-0.1-0.1c0-0.1,0-0.1,0.1-0.1c0,0,0.2,0,0.4,0c0.2,0,0.5,0,0.8,0
		c2,0,2.8-0.1,3.6-0.2c0.1-0.3,0.1-0.5,0.2-0.5c0.1,0,0.1,0,0.1,0.1c0,0.1-0.1,0.7-0.1,1c0,0.3,0.1,1,0.1,1.1c0,0.1,0,0.2-0.1,0.2
		c-0.2,0-0.2-0.7-0.2-1.1c-0.8-0.2-1.6-0.3-2.4-0.3c-0.2,0-0.5,0-0.7,0c-0.1,0.8-0.1,2.4-0.1,3.3h0.2c1.2,0,2-0.1,2.7-0.3
		c0-0.3,0.1-0.9,0.2-0.9c0.1,0,0.1,0,0.1,0.1c0,0.1-0.1,0.8-0.1,1.2c0,0.4,0.1,1.1,0.1,1.2c0,0.1,0,0.1-0.1,0.1
		c-0.2,0-0.2-0.8-0.2-1c-0.8-0.2-1.6-0.2-2.7-0.2H42.2z"/>
	<path d="M49.3,104.8c0.3,0,1.9,0,1.9-1.6c0-1.2-0.9-2.1-2-2.1c-0.2,0-0.7,0.1-0.8,0.1c0,0.8,0,2.5,0,3.5c0,1,0,2.7,0,3.5
		c0.2,0,0.7,0.1,1,0.1c0,0,0.1,0,0.1,0.1c0,0.1,0,0.1-0.1,0.1c-0.1,0-0.6-0.1-1.3-0.1c-0.7,0-1.2,0.1-1.2,0.1s-0.1,0-0.1-0.1
		c0,0,0-0.1,0.1-0.1c0.2-0.1,0.7-0.1,0.9-0.1c0-0.8,0-2.4,0-3.5s0-2.7,0-3.5c-0.2,0-0.6-0.1-0.9-0.1c0,0-0.1,0-0.1-0.1
		c0-0.1,0-0.1,0.1-0.1c0,0,0.2,0,0.4,0c0.2,0,0.5,0,0.8,0c0.2,0,0.5,0,0.8-0.1c0.3,0,0.6,0,0.9,0c1,0,2.2,0.4,2.2,1.9
		c0,1.6-1.5,2.3-2.5,2.3c0.2,0.2,0.4,0.6,1,1.5c1.1,1.5,1.1,1.8,1.6,1.8c0.2,0,0.3-0.2,0.4-0.2c0,0,0.1,0,0.1,0.1
		c0,0.2-0.5,0.6-1,0.6c-0.4,0-0.7-0.2-0.9-0.6c-0.6-0.9-1.4-2.2-1.9-3c-0.1-0.1-0.2-0.3-0.2-0.4c0-0.1,0-0.1,0.1-0.1H49.3z"/>
	<path d="M56.8,108.6c-0.1,0-0.6-0.1-1.3-0.1c-0.7,0-1.3,0.1-1.3,0.1c-0.1,0-0.1,0-0.1-0.1c0,0,0-0.1,0.1-0.1c0.3-0.1,0.8-0.1,1-0.1
		c0-0.8,0-2.3,0-3.3c-1.1-1.9-1.7-3.1-2-3.7c-0.1,0-0.5,0-0.7-0.1c0,0-0.1,0-0.1-0.1c0-0.1,0-0.1,0.1-0.1c0.1,0,0.5,0.1,1.1,0.1
		c0.6,0,1-0.1,1.1-0.1c0.1,0,0.1,0,0.1,0.1c0,0,0,0.1-0.1,0.1c-0.2,0.1-0.6,0.1-0.7,0.1c0.2,0.4,1.2,2.2,1.7,3.2
		c0.5-0.8,1.3-2.5,1.6-3.2c-0.2,0-0.6-0.1-0.9-0.1c0,0-0.1,0-0.1-0.1c0-0.1,0-0.1,0.1-0.1s0.5,0.1,1,0.1c0.5,0,0.9-0.1,1-0.1
		c0.1,0,0.1,0,0.1,0.1c0,0,0,0.1-0.1,0.1c-0.2,0.1-0.5,0.1-0.7,0.1c-0.1,0.2-0.4,0.6-0.7,1.2c-0.4,0.8-1.1,1.9-1.3,2.3
		c0,1.1,0,2.7,0,3.5c0.2,0,0.7,0.1,1,0.1c0,0,0.1,0,0.1,0.1C56.9,108.5,56.8,108.6,56.8,108.6z"/>
</g>
</svg>
