<?xml version="1.0" encoding="utf-8"?>
<!-- Generator: Adobe Illustrator 21.1.0, SVG Export Plug-In . SVG Version: 6.00 Build 0)  -->
<svg version="1.1" id="Layer_1" xmlns="http://www.w3.org/2000/svg" xmlns:xlink="http://www.w3.org/1999/xlink" x="0px" y="0px"
	 viewBox="0 0 170.7 111.7" style="enable-background:new 0 0 170.7 111.7;" xml:space="preserve">
<style type="text/css">
	.st0{fill:#E39D49;}
	.st1{fill:#E3BC8D;}
	.st2{fill:#E4E18B;}
	.st3{fill:#F15A29;}
	.st4{fill:#BA2429;}
	.st5{fill:#E66128;}
	.st6{fill:#DB404E;}
	.st7{fill:#DD2B28;}
	.st8{fill:#E9E5A1;}
	.st9{fill:#EA8425;}
	.st10{fill:#DFBB68;}
	.st11{fill:#E2DD71;}
	.st12{fill:#FBFBF8;}
	.st13{fill:#FBB040;}
	.st14{fill:#EE2A7B;}
	.st15{fill:#F4F0D6;}
	.st16{fill:#EFECB8;}
	.st17{fill:#35281E;}
	.st18{font-family:'BernhardModernStd-Roman';}
	.st19{font-size:9.6025px;}
	.st20{fill:none;}
	.st21{enable-background:new    ;}
</style>
<g>
	<path d="M81.3,48.7c0.1-1.3-0.8-2.3-0.5-3.6c-0.1,0-0.1-0.1,0-0.1c-0.5-1.1-0.6-2.3-0.8-3.5c-0.5-0.9-0.5-1.9-0.6-2.9
		c-1-0.7-0.6-1.9-0.9-2.9c-1.1-3.7-3-6.8-6-9.3c-0.2-0.1-0.3-0.3-0.4-0.5c-0.7-0.4-1.2-1-1.6-1.7c-1.3-1.4-3.1-2.1-4.6-3.2
		c-0.6-0.4-1.2-0.6-1.8-1c-1.2-0.2-2-0.9-3-1.5c-0.8-0.2-1.8,0.1-2.6-0.4c-0.2,0-0.4,0-0.6-0.2l0,0c-1-0.3-2-0.5-3-1
		c-0.7,0-1.5,0.3-2.2-0.3c-0.5,0.2-0.9-0.2-1.4-0.3c-2.3-0.4-4.7-1.3-7.2-1.1c-2.8,0.2-5.5,0.5-8.2,1.3c-0.4,0.3-0.9,0.5-1.5,0.4
		c-0.7,0.2-1.4,0.5-2.1,0.7l-0.1-0.1l0.1,0.1c-1.7,1.1-3.4,2-5.4,2.5c-0.1,0-0.2,0-0.3,0c-0.1,0.1-0.2,0.2-0.3,0.3l0,0
		c-0.8,1-2.1,0.8-3.1,1.6c-1.8,1.5-3.7,2.9-5.4,4.4C17.7,26.8,17.4,27,17,27c-0.9,1-1.4,2.4-2.5,3.3c0,0-0.1,0-0.1,0.1
		c0.1,0.1,0,0.2-0.2,0.4v0.1c-0.2,0.1-0.4,0.2-0.5,0.4c-1.3,2.1-2.8,4.1-3.7,6.5c-0.4,1.1-0.8,2.1-1.2,3.2c-0.1,0.3,0.1,0.8-0.4,0.9
		V42l0,0c-0.1,1.3-0.7,2.4-1.1,3.5c0.2,1.4-0.4,2.7-0.7,4c-0.4,1.9-0.2,3.8-0.3,5.7c0,0.3-0.1,0.6-0.1,0.9c0.1,0.1,0.1,0.1,0,0.2
		c0.2,2.8,0.3,5.6,0.7,8.3c0.6,4.3,1.9,8.4,3.6,12.5c0.2,0.6,0.5,1.1,0.5,1.7c1.3,1.1,1.5,2.8,2.5,4c0.6,0.7,1.2,1.4,1.7,2.2
		c0.9,1,1.5,2.1,1.9,3.4c0.1,0.2,0.2,0.4,0.4,0.6l0.1,0.1c0.2,0.1,0.3,0.1,0.3,0.3v0.1c0.4,0.2,0.7,0.5,1,0.9l0.1,0.1
		c0.1,0.1,0.1,0.1,0.2,0.2l0.1,0.1c1.9,1.3,3.6,2.9,5.6,4.1c1.5,0.9,3.3,1,4.8,1.8c1.7,0.3,3.4,0.5,5.2,0.8c1.9-0.2,3.8,0.4,5.7,0.3
		c0.5-0.4,1.2-0.2,1.8-0.3l0,0c3.2-0.8,6.4-1.5,9.5-2.7c1.4-0.5,2.6-1.3,4-1.8c1.6-0.9,3.1-1.8,4.7-2.8l0,0c1.4-1.5,3-2.9,4.7-4.2
		c1.3-1,2.4-2.1,3.5-3.2c1.6-2.1,2.9-4.3,4.2-6.6c3-5.3,6.2-10.6,7.4-16.8c0.3-1.8,0.3-3.7,1.2-5.4C81.3,52.3,81.2,50.5,81.3,48.7z
		 M79.8,52c0,0.2-0.1,0.3-0.1,0.5c0.1,1.2-0.1,2.5-0.5,3.6c0.3,0.9-0.1,1.8-0.3,2.7c-0.4,1.6-0.9,3.3-1.4,4.9c0,1.2-0.6,2.1-1.1,3.1
		c-0.8,1.8-1.7,3.6-2.9,5.2c-0.9,1.6-1.8,3.3-2.8,4.9c-0.6,0.6-0.8,1.5-1.4,2.1v0.1c-0.5,0.9-0.9,1.8-1.7,2.5c-1,1.7-2.7,2.6-4,3.9
		c-2.4,2.2-4.9,4.4-7.9,5.8c-2.3,1.2-4.6,2.5-7.2,2.8c-1.5,1.1-3.2,1.2-4.9,1.6c-5.3,1.1-10.5,0.3-15.7-1.1
		c-1.8-0.5-3.3-1.4-4.6-2.8c-1.4-0.8-2.6-1.8-3.7-3c-0.5-0.3-1-0.6-1.3-1.2c-0.9-2.3-2.5-4.1-3.8-6.1c-1.5-2.3-2.5-4.6-3.4-7
		c-0.5-1.6-1-3.2-1.3-4.9l0,0c-1-0.9-0.8-2.2-0.9-3.4c-0.6-0.9-1-1.9-0.7-3c-0.4-1.5-0.1-3.1-0.3-4.7c0-0.5,0-0.9,0-1.4
		c0-2.8-0.4-5.7,0.3-8.5c0.1-0.5,0.1-1.2,0.8-1.3c-0.3-2.4,1-4.5,1.7-6.7c0.9-2.7,2-5.3,3.8-7.6c1.5-2.3,3-4.5,5.2-6.2
		c1.7-1.4,3.3-3.1,5.4-3.9c0.2-0.1,0.5-0.1,0.8-0.1c0-0.2,0.2-0.2,0.3-0.2c0.1,0,0.1-0.1,0.2,0c0.2-0.2,0.2-0.6,0.6-0.2
		c0.2-0.1,0.5-0.2,0.7-0.3c1.5-1.5,3.4-2.2,5.5-2.7c1.2-0.4,2.3-1.1,3.6-1.5c4.1-1.5,8.3-1.1,12.4-0.6c1,0.1,2,0.4,2.7,1.3
		c0.2,0.3,0.6,0.3,0.9,0.2c0.9-0.7,1.9-0.7,3-0.2c1.5,0.8,3.2,1,4.9,1.3c1.3,0.2,2.3,1.2,3.5,1.7c0.2-0.1,0.3,0,0.4,0.2l0.1,0.1
		c0,0.1,0.3,0.1,0.3,0.5l0,0c0.3-0.1,0.4,0,0.5,0.3l0,0c0.2,0,0.3,0.1,0.3,0.3l0,0c2,0.5,3.2,2.1,4.5,3.6c2.1,1.2,3.6,3,4.7,5
		c1.1,1.6,1.8,3.3,2.1,5.2c0.5,0.6,0.6,1.2,0.5,2c1,1.6,0.8,3.5,1.2,5.2c0.4,0.9,0.4,1.9,0.5,2.8C79.7,48.5,80,50.2,79.8,52z"/>
	<path class="st0" d="M6.1,56.1c0.1,0.1,0.1,0.1,0,0.2C6.1,56.3,6.1,56.2,6.1,56.1C6.1,56.2,6.1,56.1,6.1,56.1z"/>
	<path class="st1" d="M63.6,18.6c-0.2,0.6,0.5,0.8,0.5,1.3c-1.2-0.2-2-0.9-3-1.5C62.1,17.5,62.8,18.4,63.6,18.6z"/>
	<path class="st1" d="M58.1,17.8c-1-0.3-2-0.5-3-1C56.4,16.3,57.4,16.7,58.1,17.8z"/>
	<path class="st1" d="M58.6,18c-0.2,0-0.4,0-0.6-0.2C58.3,17.7,58.5,17.7,58.6,18z"/>
	<path class="st2" d="M49.9,15.1c-0.2,0.2-0.3,0.2-0.4-0.1C49.7,15,49.8,15,49.9,15.1z"/>
	<path class="st3" d="M8,58.6c0-0.5,0-0.9,0-1.4c0.5-0.3,0.6-0.8,0.4-1.2c-0.2-0.7-0.1-1.3,0-1.9c0.2-1,0.7-2.1-0.1-3.1
		c-0.2-0.3-0.1-0.6,0.1-0.9c0.5-0.8,0.5-1.8,0.6-2.7c-0.3-2.4,1-4.5,1.7-6.7c0.9-2.7,2-5.3,3.8-7.6c0.3,0.1,0.6-0.1,0.8-0.3
		c0.7,0,1.6-0.1,0.6,1c-0.4,0.4-0.4,1-0.8,1.4c-0.2,0.2-0.2,0.5,0,0.5c1.4,0.3,0.4,1.1,0.4,1.7c0,0.5-0.4,1.2,0.2,1.2
		c0.6,0.1,1.7,0.2,1.6-1.1c-0.1-0.7,0.1-1.3,1-1.2c0.4,0,0.8-0.2,0.6-0.5c-0.3-0.6,0.2-0.6,0.4-1c0.7-1.2,2-0.4,2.9-1.1
		c0.7-0.6,0.8-0.7,0.1-1.2c-0.8-0.5-0.7-0.9,0.1-1.2c0.7-0.3,1.3-0.6,1.3-1.6c0-0.2,0.1-0.5,0.3-0.5c1.4-0.2,1-0.8,0.4-1.3
		c1-1.2,2.3-1.8,3.7-2.4c0.1,0,0.2-0.2,0.2-0.3c-0.4-1.8,0.6-0.7,1.1-0.5c0.6,0.2,1.2,0.2,1.8,0c0.8-0.4,1.7-0.4,2.4-0.8
		c1.7-1,4-1.5,4.5-4c0.1-0.5,0.4-0.9,1-0.7c1.3,0.5,2.6,0.8,3.9-0.4l0,0c0.8,1.6,1.9,2,3.3,1.3c0.5-0.3,0.7-0.1,0.8,0.5
		s-0.2,1-0.6,1.3c-2.5-0.3-5-0.2-7.5,0.5c-3,0.8-5.4,2.6-7.9,4.3c-0.5,0.3-0.6,0.7-0.5,1.2V28c-0.4,0-0.8,0-0.9,0.6
		c-0.5,0.8-1.5,1.1-2.1,1.7c-1.6,2-3.1,4.1-4.9,5.9s-2.4,4.2-3.2,6.4c-1.2,3.3-2.3,6.7-2.5,10.2c-1.2,0.9-1.6,2.2-1.5,3.6
		c0,1.3,0.2,2.7,0.4,4c0.2,0.9,0.2,1.9,0.8,2.7c1.4,2.3,1.6,5,2.8,7.3c-0.5,0.5-0.2,0.7,0.3,0.8l0,0c0,0.5-0.1,0.9,0.2,1.3
		c0.8,1.3-0.7,1.6-1.1,2.4c-0.3,0.6-1,0.6-1.4,0.3s-0.7-0.4-0.9,0c-0.3,0.4-0.6,0.9-0.7,1.4c0,0.2,0.5,0.4,0.9,0.3
		c0.2-0.1,0.5-0.1,0.5,0.3c0,0.3-0.2,0.4-0.4,0.4c-0.5,0-0.9,0-1.3-0.2c-0.3-0.2-0.6-0.4-1-0.2C13.5,77.5,13,77,13,76
		c0-0.7,0-1.4-0.7-1.9s-0.5-1.3-0.2-2.1c0.1-0.1,0.7-0.1,0.2-0.3c-1-0.4-1.1-1.9-2.4-2l0,0c0.1-1.2-0.4-2.3-0.9-3.4
		c-0.6-0.9-1-1.9-0.7-3c0.5-1.5,0.1-2.9,0.1-4.4C8.4,58.8,8.1,58.7,8,58.6z"/>
	<path class="st3" d="M76.3,66.7c-0.8,1.8-1.7,3.6-2.9,5.2v-0.1l-0.1,0.1c-0.3,0.2-0.4,0.5-0.8,0.6c-0.1-0.7,0.1-1.3,0.4-1.8
		c0.2-0.4,0.1-0.7-0.3-0.9c-0.5-0.2-0.6,0.2-0.7,0.6c-0.4,0.9-0.3,1.7,0.6,2.2c-0.3,1.3-1.7,2.1-1.9,3.4c-0.1,0.1-0.2,0.3-0.2,0.4
		l0,0c-0.2,0-0.4-0.1-0.6-0.1c-0.1-0.8-0.8-0.4-1.2-0.6c-0.3-0.2-1-0.7-0.4-0.9c1.2-0.5,0.6-1.1,0.4-1.7c-0.1-0.4-0.4-0.7-0.3-1.1
		c0.3-1-0.6-2.4-1.7-2.4c-1-0.1-1-0.5-0.9-1.2c0.1-0.1,0.2-0.3,0.2-0.4c0.4,0.2,0,0.9,0.6,0.9c0.3,0,0.6-0.3,0.7-0.6
		c0.3-1.5,1.5-2.3,2.5-3.1c0.7-0.6,0.8-1.2,0.4-1.9c-0.3-0.7-0.9-1.3,0.4-1.6c0.2,0,0.3-0.3,0.1-0.6c-0.6-0.6,0-1,0.2-1.5
		c0.3-1,1-2.1-0.2-3c0-0.1-0.1-0.1,0-0.2c0.7-0.1,0.6-0.7,0.5-1.2l0,0c0.7,0.1,1,0,1.2-0.9c0.2-1,0-2,0.1-3c0.2-2,0.4-4-0.4-5.9
		c0.1-1.3-0.8-2.4-0.6-3.7c0.3-0.2,0.2-0.6,0.2-0.9c0.3-1.9-1.1-3.3-1.7-5c-0.6-1.4-1.3-2.9-1.9-4.3c-0.4-0.8-0.8-1.6-1.4-2.2
		c-1.8-1.6-3.5-3.4-5.7-4.6c0.4-0.4,0.8-0.8,1.3-1.2c-2.1-0.7-3.2-2.8-5.5-2.8l-0.1-0.1c-1.3-0.4-2.2-1.8-3.8-1.2
		c0,0-0.1-0.2-0.1-0.4c0.9-0.7,1.9-0.7,3-0.2c1.5,0.8,3.2,1,4.9,1.3c1.3,0.2,2.3,1.2,3.5,1.7c0.1,0.1,0.3,0.1,0.4,0.2l0.1,0.1
		c0,0.4,0.2,0.5,0.6,0.4l0,0c0.1,0.3,0.3,0.3,0.5,0.3l0,0c0.1,0.1,0.2,0.2,0.3,0.3l0,0c0,0.1,0,0.3,0.1,0.4c1.2,0.7,2.3,1.5,3,2.7
		c0.3,0.5,0.8,0.6,1.4,0.5c2.1,1.2,3.6,3,4.7,5c-0.2,0.4-0.2,0.8,0,1.3c0.7,1.4,1.1,2.9,1.9,4.1c0,0.6-0.4,1.4,0.6,1.7
		c0,1.7,0.7,3.3,0.4,5c-0.1,0.3,0.2,0.7,0.6,0.9c0,0.9,0.3,1.7,0.6,2.4c0.1,0.4,0.1-0.2,0.2-0.2c0.3,1.7,0.6,3.4,0.4,5.2
		c-0.3,0-0.4,0.2-0.4,0.5l0,0c-0.7,0.3-0.7,0.6-0.1,0.9c-0.1,0.5-0.2,1-0.3,1.5c-0.3,0.1-0.5,0.2-0.8,0.3c-0.7-0.2-1.6-2.2-1.2-3
		c0.7-1.8,0-3.6-0.2-5.4c0-0.4-0.3-0.8-0.8-1.2c-0.6-0.5-1-1.2-1.7-1.7c-0.2-0.2-0.4-0.6,0.1-0.7c0.4-0.1,1.3-0.9,1.3-1.3
		c0-0.3,0.1-0.7-0.2-0.9c-0.3-0.3-0.7-0.1-1,0.2c-0.3,0.2-0.7,0.8-1,0.1c-0.2-0.3-0.3-1,0.3-1.2c1.6-0.5,0-0.9,0.1-1.4
		c-1.3,0.9-0.8,2.5-1.7,3.5c-0.2,0.2-0.1,0.8,0.5,0.9c0.4,0,0.8,0.1,0.8,0.6c0,1.9,0.3,3.8-0.4,5.7c-0.2,0.7-0.4,1.4,0.5,1.8
		c1.3,0.6,1.1,1.8,0.9,2.7c-0.3,0.8-0.3,1.3,0.4,1.9c0.8,0.7,0.5,1.5-0.5,1.8c-0.7,0.2-0.9,0.7-0.7,1.1c0.5,0.8,0.2,1.7,0.8,2.6
		c0.8,1.1,1.5,1,2.4,1.2c0.1,0.1,0.2,0.2,0.3,0.3c-0.1,0.3-0.4,0.5-0.3,0.8C76.8,64.6,76.1,65.6,76.3,66.7z"/>
	<path class="st4" d="M52.6,18.9c0,0.1,0.1,0.4,0.1,0.4c1.6-0.5,2.6,0.8,3.8,1.2l0.1,0.1c2.3,0,3.4,2.2,5.5,2.8
		c-0.5,0.5-0.9,0.9-1.3,1.2c-1.8-0.6-3.7-1.3-5.5-1.9c-1.2-0.6-2.4-0.8-3.7-0.5c-1,0.2-2,0-2.9-0.3l0,0c-0.1-0.2-0.2-0.4-0.4-0.4
		c-0.1,0-0.1,0.2-0.1,0.3c-0.6,0.1-1.1,0.2-1.7,0.2c0-0.1,0-0.1,0-0.2c0.4-0.3,0.7-0.7,0.6-1.3c-0.1-0.5-0.3-0.7-0.8-0.4
		c-1.4,0.8-2.5,0.4-3.3-1.3c0.2,0,0.4-0.1,0.6-0.1c0,0,0-0.1-0.1-0.1c-0.2-0.1-0.4,0-0.5,0.2c-1.3,1.2-2.6,0.9-4,0.4
		c-0.5-0.2-0.9,0.3-1,0.7c-0.4,2.5-2.7,3-4.5,4c-0.7,0.4-1.6,0.4-2.4,0.8c-0.5,0.3-1.2,0.2-1.8,0c-0.6-0.2-1.5-1.2-1.1,0.5
		c0,0.1-0.1,0.3-0.2,0.3c-1.3,0.6-2.7,1.1-3.7,2.4c0.6,0.5,1,1.1-0.4,1.3c-0.3,0-0.3,0.3-0.3,0.5c0,0.9-0.6,1.3-1.3,1.6
		c-0.8,0.3-0.9,0.7-0.1,1.2c0.7,0.4,0.7,0.6-0.1,1.2c-0.9,0.7-2.2-0.1-2.9,1.1c-0.2,0.3-0.7,0.4-0.4,1c0.2,0.4-0.2,0.6-0.6,0.5
		c-0.9-0.1-1.1,0.5-1,1.2c0.2,1.3-1,1.2-1.6,1.1s-0.2-0.8-0.2-1.2c0-0.6,1-1.4-0.4-1.7c-0.3-0.1-0.2-0.4,0-0.5
		c0.5-0.4,0.5-1,0.8-1.4c1-1.1,0.1-1-0.6-1c0.5-0.5,0.6-1.5,1.4-1.5c0.6,0,0.7-0.2,0.6-0.6c-0.2-0.7,0.1-1,0.7-0.9
		c0.7,0.1,0.9-0.4,1.2-0.7c0.8-0.7,1.3-1.7,2.2-2.1c1-0.5,1.6-0.9,1.6-2.1c0-0.1,0.3-0.2,0.5-0.3c0.8-0.6,1.6-1.2,2.4-1.8l0,0
		c0.1-0.1,0.2-0.2,0.3-0.3c0.1,0,0.1-0.1,0.2,0c0.2-0.1,0.4-0.2,0.6-0.2c0.2-0.1,0.5-0.2,0.7-0.3c1.2-0.6,2.6-1.2,3.9-1.3
		c1.1-0.1,1.4-0.5,1.5-1.4c1.2-0.4,2.3-1.1,3.6-1.5c4.1-1.5,8.3-1.1,12.4-0.6c1,0.1,2,0.4,2.7,1.3C51.9,18.9,52.3,18.9,52.6,18.9z"
		/>
	<path class="st5" d="M65.7,68.1c-0.1,0.7-0.1,1.2,0.9,1.2c1.1,0.1,2,1.5,1.7,2.4c-0.2,0.5,0.2,0.8,0.3,1.1c0.2,0.6,0.9,1.2-0.4,1.7
		c-0.6,0.2,0,0.7,0.4,0.9s1.1-0.1,1.2,0.6c-0.8,1-0.5,2-0.6,2.9V79c-0.6-0.1-0.8,0.6-1.4,0.5c-0.7,0.2-0.9,0.7-1,1.3
		c-0.1,0.5-0.1,1.3-0.7,1.3c-1.8,0-3.1,0.5-3.8,2.3c-0.1,0.2-0.4,0.3-0.6,0.5c-1.2,0.9-2.7,1.1-3.9,1.9c-0.7,0.5-1,1.4-2,1.5
		c-0.7,0.1-1.2,0.5-1.9,0.8c-1.7,0.6-3,2.3-5.1,1.8c-0.4-0.1-0.9,0.2-1.1,0.7l0,0c-1.6-0.4-2.4,1.1-3.8,1.4c-0.1,0-0.1,0.3-0.1,0.5
		c-0.4,0-0.7,0-1.1,0c-0.4-0.4-0.9-0.2-1.4-0.3c0-0.2,0.1-0.4,0.4-0.5c1.4-0.7,2.4-1.9,3.6-3c0.7-0.6,1.4-2,2.4-1.3
		c1.7,1.2,2.8-0.3,3.3-0.9c0.8-0.9,1.5-0.4,2-0.2c1,0.3-0.6,0.7-0.2,1.2c0.7,0.2,1.1,0,1.3-0.7c0.4-1.3-0.8-1.3-1.6-1.7
		c1.9-0.7,1.9-0.7,3.3,0c0.3,0.2,0.8,0.5,1-0.1c0.2-0.4,0.5-0.8-0.2-1.1c-0.2-0.1-0.3-0.3-0.2-0.6c0.1-0.1,0.3-0.1,0.3-0.1
		c0.8,0.9,1.1-0.4,1.7-0.3c0.2,0,0.2,0,0.3-1.3c0-0.3,0.3-0.5,0.5-0.6c0.9-0.6,1.3-1.4,0.8-2.4c0.1-0.1,0.1-0.1,0.2-0.2
		c1.6-0.1,2.3-1.5,3.3-2.4c0.3-0.3-0.1-0.7-0.2-1l0,0c0-0.2,0.1-0.5-0.2-0.6c-0.2-0.1-0.3,0.1-0.4,0.3c-0.2-0.1-0.3-0.1-0.5-0.2
		c-0.2-1.5,0.4-2.9,0-4.4l0,0c0.2,0,0.3-0.2,0.3-0.4C63.9,70.1,64.4,68.8,65.7,68.1z"/>
	<path class="st6" d="M9.8,69.6c1.2,0.1,1.4,1.5,2.4,2c0.4,0.2-0.2,0.2-0.2,0.3c-0.3,0.7-0.5,1.6,0.2,2.1c0.8,0.5,0.8,1.2,0.7,1.9
		c-0.1,1.1,0.5,1.6,1.6,1.2c0.4-0.1,0.7,0.1,1,0.2c0.4,0.2,0.9,0.2,1.3,0.2c0.3,0,0.4-0.1,0.4-0.4s-0.2-0.4-0.5-0.3
		c-0.4,0.2-1-0.1-0.9-0.3c0.1-0.5,0.4-1,0.7-1.4s0.5-0.3,0.9,0c0.5,0.3,1.1,0.3,1.4-0.3c0.4-0.8,2-1.1,1.1-2.4
		c-0.3-0.4-0.2-0.9-0.2-1.3c0.6,0.2,1.1,0.7,1.9,0.7c0,1,1.2,1.3,1.3,2.2c0,0.6-0.4,0.8-0.8,1.1c-0.2,0-0.4,0-0.5,0.3l0,0
		c-1.2,0.3-1.9,1.1-2.1,2.4c-0.4,1.1,0.2,1.7,1.1,2.1c0.3,0.1,0.9-0.1,1,0.5c-0.1,1,0.1,2-1,2.7c-0.4,0.3-0.4,1.1-0.3,1.8
		c0.2,1.1,0.1,2.2-0.4,3.3c0,0.1,0,0.2,0.1,0.3c-0.2,0.1-0.5,0.2-0.7,0.3c-0.5-0.3-1-0.6-1.3-1.2c-0.9-2.3-2.5-4.1-3.8-6.1
		c-1.2-2.3-2.2-4.6-3.1-7C10.6,72.9,10.2,71.3,9.8,69.6z"/>
	<path class="st7" d="M47.6,91.7c0.2-0.5,0.7-0.8,1.1-0.7c2.1,0.6,3.4-1.2,5.1-1.8c0.6-0.2,1.2-0.7,1.9-0.8c1-0.2,1.3-1.1,2-1.5
		c1.2-0.8,2.7-1,3.9-1.9c0.2-0.2,0.6-0.3,0.6-0.5c0.6-1.8,2-2.3,3.8-2.3c0.6,0,0.6-0.8,0.7-1.3c0.1-0.6,0.3-1.1,1-1.3
		c0.3,0.7-0.8,1.2-0.3,1.9c-1,1.7-2.7,2.6-4,3.9c-2.4,2.2-4.9,4.4-7.9,5.8c-2.3,1.2-4.6,2.5-7.2,2.8c-0.8-0.1-1.3-0.4-1-1.6
		c-0.6,0.5-0.9,1.5-1.2,1.2c-0.9-0.6-1.6,0.1-2.3,0c0-0.2,0-0.5,0.1-0.5C45.2,92.8,46.1,91.3,47.6,91.7c0.4,1,0.9,0.5,1.5,0.3
		C48.6,91.6,48.1,91.7,47.6,91.7z"/>
	<path class="st6" d="M43.8,93.6c0.8,0.2,1.5-0.5,2.3,0c0.3,0.2,0.6-0.7,1.2-1.2c-0.4,1.2,0.2,1.5,1,1.6c-1.5,1.1-3.2,1.2-4.9,1.6
		c-5.3,1.1-10.5,0.3-15.7-1.1c-1.8-0.5-3.3-1.4-4.6-2.8l0,0c0.9,0.2,1.8,0.5,2.5,1.3c0.5,0.6,1.1,0.8,1.7,0.9
		c0.8,0.1,1.7,0.1,2.6,0.2c1.1,0.2,2.6,0.5,3.4-0.9c0.6,0.1,1.2,0.4,1.7-0.2c0.7-0.1,1.3-0.1,2,0.2c0.1,0.2-0.5,0.7,0.4,0.7
		c1.6-0.1,3.2-0.5,4.7,0.3c0.3,0.1,0.5-0.2,0.6-0.4C43,93.6,43.4,93.6,43.8,93.6z"/>
	<path class="st6" d="M25.8,22.9c-0.8,0.6-1.6,1.2-2.4,1.8C23.3,24.8,23,24.9,23,25c0,1.2-0.6,1.6-1.6,2.1c-0.9,0.4-1.4,1.5-2.2,2.1
		c-0.3,0.3-0.5,0.8-1.2,0.7c-0.6-0.1-0.9,0.2-0.7,0.9c0.1,0.4,0,0.6-0.6,0.6c-0.8,0-0.9,1-1.4,1.5c-0.3,0.1-0.5,0.3-0.8,0.3
		c1.5-2.3,3-4.5,5.2-6.2c1.7-1.4,3.3-3.1,5.4-3.9C25.3,23,25.6,23,25.8,22.9z"/>
	<path class="st8" d="M18.7,24.7h-0.1v0.1L18.7,24.7L18.7,24.7z"/>
	<path class="st6" d="M9,47.4c-0.1,0.9-0.1,1.9-0.6,2.7c-0.2,0.3-0.3,0.6-0.1,0.9c0.7,1,0.3,2.1,0.1,3.1c-0.1,0.6-0.3,1.2,0,1.9
		c0.1,0.4,0.1,0.9-0.4,1.2c0-2.8-0.4-5.7,0.3-8.5C8.3,48.2,8.3,47.5,9,47.4z"/>
	<path class="st9" d="M76.9,63.6c-0.1-0.3,0.2-0.6,0.3-0.8c0.3-0.6,0.6-1.3,0.3-2c0-0.4,0-0.9,0-1.3c0.7-0.2,0.7-0.9,0.8-1.4
		c0.1-0.7,0.3-1.4,0.8-1.9l0.1,0.1c0.3,0.9-0.1,1.8-0.3,2.7c-0.4,1.6-0.9,3.3-1.4,4.9C77.3,63.6,77.1,63.6,76.9,63.6z"/>
	<path class="st6" d="M33.1,19.4c-0.2,0.9-0.4,1.3-1.5,1.4c-1.3,0.1-2.7,0.7-3.9,1.3C29.1,20.7,31,19.9,33.1,19.4z"/>
	<path class="st1" d="M77,37c-0.9-1.3-1.3-2.8-1.9-4.1c-0.2-0.5-0.2-0.9,0-1.3c1.1,1.6,1.8,3.3,2.1,5.2C77.1,36.8,77.1,36.9,77,37z"
		/>
	<path class="st0" d="M19.4,88.7c0.2-0.1,0.5-0.2,0.7-0.3h0.1h0.1c0.3,0,0.5,0,0.8,0c0.8,1,1.4,2.2,2,3.4l0,0
		C21.7,90.9,20.5,89.9,19.4,88.7z"/>
	<path class="st8" d="M26.9,19.1c1.3-0.1,2.5-0.6,3.7-1.2c0.5-0.2,1-0.6,1.7-0.3c-1.7,1.1-3.4,2-5.4,2.5
		C27,19.8,26.9,19.5,26.9,19.1L26.9,19.1z"/>
	<path class="st1" d="M78.6,44.5C78.2,44.3,78,44,78,43.6c0.3-1.7-0.4-3.3-0.4-5h0.1c1,1.6,0.8,3.5,1.2,5.2
		C78.8,44.2,78.8,44.4,78.6,44.5z"/>
	<path class="st1" d="M70.6,75.9c0.3-1.4,1.6-2.1,1.9-3.4l0,0c0.4,0,0.6-0.4,0.8-0.6l0.1-0.1v0.1c-0.9,1.6-1.8,3.3-2.8,4.9
		c-0.1-0.2-0.2-0.3-0.3-0.5l0,0C70.5,76.2,70.6,76.1,70.6,75.9z"/>
	<path class="st5" d="M70.3,26.5c-0.5,0.1-1.1,0-1.4-0.5c-0.7-1.2-1.8-2-3-2.7c-0.1,0-0.1-0.2-0.1-0.4
		C67.9,23.5,69.1,25.1,70.3,26.5z"/>
	<path class="st6" d="M8,58.6c0.1,0.1,0.4,0.2,0.4,0.3c0,1.5,0.4,2.9-0.1,4.4C7.8,61.7,8.1,60.1,8,58.6z"/>
	<path class="st1" d="M76.9,63.6c0.2,0,0.4,0.1,0.5,0.1c0,1.2-0.6,2.1-1.1,3.1C76.1,65.6,76.8,64.6,76.9,63.6z"/>
	<path class="st6" d="M70.4,76.3c0.1,0.2,0.2,0.3,0.3,0.5c-0.6,0.6-0.8,1.5-1.4,2.1c0-0.9-0.3-1.9,0.5-2.7
		C69.9,76.3,70.2,76.3,70.4,76.3z"/>
	<path class="st6" d="M67.5,81.5c-0.4-0.7,0.7-1.2,0.3-1.9c0.6,0,0.8-0.6,1.4-0.5C68.8,79.9,68.3,80.8,67.5,81.5z"/>
	<path class="st0" d="M78.6,44.5c0.2-0.1,0.3-0.3,0.3-0.6c0.4,0.9,0.4,1.9,0.5,2.8c-0.1,0-0.1,0.5-0.2,0.2
		C78.9,46.2,78.6,45.4,78.6,44.5z"/>
	<path class="st6" d="M9,66.3c0.5,1.1,1,2.2,0.9,3.4C8.8,68.7,9,67.4,9,66.3z"/>
	<path class="st0" d="M80,41.4c0.7,1.1,0.7,2.3,0.8,3.5C80.3,43.8,80.1,42.6,80,41.4z"/>
	<path class="st0" d="M77.6,38.7L77.6,38.7c-1-0.3-0.7-1.1-0.6-1.7c0.1-0.1,0.1-0.2,0.2-0.3C77.6,37.3,77.8,38,77.6,38.7z"/>
	<path class="st9" d="M79,54.9c0.1-0.5,0.2-1,0.3-1.5c0-0.3,0-0.6,0.1-0.9l0,0c0.1,0,0.2,0,0.3,0c0.1,1.2-0.1,2.5-0.5,3.6L79.1,56
		C79.1,55.7,79,55.3,79,54.9z"/>
	<path class="st8" d="M32.3,17.6c0.5-0.8,1.2-0.9,2.1-0.7C33.7,17.1,33,17.4,32.3,17.6z"/>
	<path class="st6" d="M26.9,22.5c-0.2,0.1-0.4,0.2-0.6,0.2C26.5,22.5,26.5,22,26.9,22.5z"/>
	<path class="st10" d="M8.4,41.9c0.1-0.3-0.1-0.8,0.4-0.9C8.7,41.3,8.9,41.7,8.4,41.9z"/>
	<path class="st5" d="M65,22.4c-0.3,0-0.5-0.1-0.6-0.4C64.7,22,65,22,65,22.4z"/>
	<path class="st5" d="M64.4,21.9c-0.1-0.1-0.3-0.1-0.4-0.2C64.2,21.6,64.3,21.7,64.4,21.9z"/>
	<path class="st5" d="M65.6,22.7c-0.2,0-0.4,0-0.5-0.3C65.3,22.3,65.5,22.4,65.6,22.7z"/>
	<path class="st2" d="M13.7,31.3c0-0.2,0-0.5,0.4-0.4C14,31,13.8,31.1,13.7,31.3z"/>
	<path class="st5" d="M79.6,52.5c-0.1,0-0.2,0-0.3,0c0-0.3,0.1-0.5,0.4-0.5C79.7,52.1,79.7,52.3,79.6,52.5z"/>
	<path class="st6" d="M17.8,89.5c-0.2,0-0.4-0.1-0.3-0.3C17.6,89.2,17.8,89.3,17.8,89.5z"/>
	<path class="st6" d="M26.1,22.7c-0.1,0.1-0.2,0.2-0.3,0.3C25.8,22.7,26,22.7,26.1,22.7z"/>
	<path class="st5" d="M65.9,23c-0.1-0.1-0.2-0.2-0.3-0.3C65.8,22.7,65.9,22.8,65.9,23z"/>
	<path class="st8" d="M26.4,20.5c0.1-0.1,0.2-0.2,0.3-0.3C26.6,20.3,26.5,20.4,26.4,20.5z"/>
	<path class="st10" d="M19,90.7c-0.2,0.1-0.3,0-0.2-0.2C18.9,90.6,19,90.6,19,90.7z"/>
	<path class="st2" d="M14.1,30.8c0-0.2,0-0.4-0.1-0.6C14.5,30.4,14.5,30.5,14.1,30.8z"/>
	<path class="st8" d="M26.9,19.1c-0.2-0.1-0.5,0.3-0.7,0V19C26.5,18.8,26.8,18.8,26.9,19.1L26.9,19.1z"/>
	<path class="st2" d="M77.5,31c-0.3-0.1-0.3-0.3-0.3-0.5l0,0c0.1,0,0.2,0,0.2,0C77.5,30.6,77.5,30.8,77.5,31z"/>
	<path class="st11" d="M77.4,30.4c-0.1,0-0.2,0-0.2,0c0-0.1,0-0.2,0-0.3C77.3,30.2,77.4,30.3,77.4,30.4z"/>
	<path d="M21.7,71.9c-0.7,0.1-1.2-0.4-1.9-0.7l0,0c0.2-0.4-0.1-0.6-0.3-0.8c-1.2-2.4-1.4-5.1-2.8-7.3c0.5-1.7,0.4-3.4,0.4-5.1
		c0-1.7-0.8-3.5-0.1-5.2c0.2-3.6,1.3-6.9,2.5-10.2c0.8-2.3,1.4-4.7,3.2-6.4c1.8-1.8,3.3-3.9,4.9-5.9c0.5-0.7,1.6-0.9,2.1-1.7
		c0.4,0,0.8-0.1,0.9-0.6v-0.1c1.2-0.8,2.3-1.7,3.5-2.3c4-1.8,8-3.2,12.4-3.5c0.6-0.1,1.1-0.1,1.7-0.2c0.2,0,0.4,0,0.6,0l0,0
		c0.1,0.7,0.7,0.7,1.3,0.8c1.8,0,3.6,0.1,5.3,0.1c1.8,0.6,3.7,1.3,5.5,1.9c2.2,1.2,3.9,2.9,5.7,4.6c0.6,0.6,1.1,1.4,1.4,2.2
		c0.7,1.4,1.3,2.9,1.9,4.3c0.2,2,1.2,3.8,1.4,5.9C71,43,72,44.2,71.9,45.4c-0.2,1.9,0.1,3.9-0.3,5.9c-0.2,1.3-0.8,2.5-0.6,3.9l0,0
		c-0.3,0.3-0.4,0.7-0.5,1.2c0,0.1,0,0.1,0,0.2c-0.2,0.5-0.5,1-0.6,1.5c-0.4,2-1,3.9-2,5.7c-0.7,1.4-1.4,2.8-2.2,4.2
		c-0.1,0.1-0.2,0.3-0.2,0.4c-1.2,0.6-1.8,1.9-2.8,2.7c-0.2,0-0.4,0.1-0.3,0.4l0,0c-0.6,0-1.2-0.1-0.8,0.8c0.5,1.1,0.6,2.3,0.7,3.6
		c-0.3,1-1,1.9-1.5,2.8c-0.1,0.2-0.3,0.3-0.4,0.5c-0.2,0.3-0.5,0.5-0.7,0.8c-1.2,0.9-2.5,1-3.9,1c-1-0.1-2.1-0.1-3.1-0.6
		c-0.9-0.5-1.7-0.4-2.4,0.5c-0.9,0.2-1.6,0.5-2.3,1.1c-0.4,0.1-0.8,0.2-1.2,0.4c-0.1,0-0.2,0-0.3,0.1c-0.1,0-0.2,0-0.2,0.1
		c-1.2,0.2-2.3,0.2-3.5,0.5c-2.6,0.7-5.2,0.8-7.5-0.8c-0.1-0.4,0-0.7,0.3-0.9c1.4,0,2.7,0.9,4.1,0.6c2.6-0.5,5.2-0.6,7.7-1.6
		c0.7-0.3,1.5-0.7,2.3-1c-1.1-0.8-2-1.6-3-2.2c-1.6-1.1-3-2.4-4.9-3.1c-0.7-0.3-1.5-0.8-2.1,0c-0.9,1.2-2.1,1.3-3.4,0.9
		c-3-0.8-4.4-3-4.9-5.8c-0.5-2.7-0.8-5.5-1.2-8.3c-0.9,0.2-1.6,0.8-2.3,1.2c-0.6,0.4-0.9,0.3-1.3-0.2c0-0.3,0.1-0.6,0.1-0.8
		c0.1-0.1,0.2-0.2,0.2-0.3l0,0c1.1-0.1,1.8-1.1,2.8-1.3c0.7-0.3,1.3-0.6,2-0.8c1.3-0.5,2.5-1.1,3.2-2.3l0.1-0.1
		c0.1,0,0.2-0.1,0.2-0.1c0.8-0.6,1.2-1.5,1.3-2.4c0.2-0.9,0.6-1.5,1.6-1.4c0.3,0.5,0.3,1,0,1.6c-0.7,0.8-0.7,2.1-1.6,2.8
		c-0.9,0.7-0.7,1.4,0,1.9c1.2,0.9,2.3,2.1,3.8,2.7c2.5,1,5.2,1.6,8,1.3c0.6-0.1,1.2-0.2,1.8-0.4c2-0.8,3.7-2.2,5.5-3.2
		c0.2,0.1,0.5,0.1,0.7,0.2c0.1,0.7-0.1,1.2-0.8,1.5c-1.2,0.6-2.2,1.4-3.3,2c-3.2,1.9-6.5,1.5-9.9,0.9c-0.9-0.2-1.6-0.8-2.5-0.8
		c-1.7-1-3.3-2-4.7-3.5c-0.2-0.2-0.4-0.4-0.8-0.3c-1.9,0.4-2.7,1.5-2.6,3.5c0,0.1,0,0.3,0,0.4c0.5,2.3,0.4,4.6,1.2,6.8
		c0.4,0.8,0.3,1.9,1.3,2.4c0.2,0.3,0.3,0.6,0.6,0.6c0.4,0.1,0.6,0.8,1.2,0.3c0.6-0.5,1.3-0.5,2-0.8c1.3-0.2,2.7-0.2,3.9,0.3
		c2.3,1,4.3,2.6,6.3,4C50,78,51.9,79,54,79.5c1.6,0.4,3.3,0.3,4.7-1.1c2.4-2.3,1.6-5.2-0.2-7.3c-1.1-1.3-2.5-2-4.1-2.6
		c-4.4-1.6-8.9-2.8-13.7-2.1c-0.8,0.1-1.6,0.2-2.5,0.2c-0.5,0-1.2,0.3-1.6-0.5c-0.2-1,0.5-1.1,1.2-1.2c0.7-0.1,1.3-0.1,2-0.1
		c0.3,0,0.7,0.1,1,0c4-0.9,7.9,0,11.6,1.3c0.5,0.2,0.9,0.1,1.3-0.3c1.3-1.4,1.7-3.3,2.8-4.9c0.6-0.9,0.4-1.4-0.3-1.9l0.1-0.1
		l-0.1-0.1c-0.1-0.6-0.3-1.1-0.4-1.7c0.4-1.1,0.1-2.1,1.2-2.7c0.1,0.1,0.1,0.1,0.2,0.1c0.6,0.3,0.7,0.8,0.7,1.4c0,0.5-0.1,1,0.3,1.4
		c0.1,0.2,0.1,0.3,0.2,0.5l0,0c0,0.2,0.1,0.5,0.3,0.6l0,0c0.1,0.1,0.2,0.3,0.3,0.4l0,0c0.5,1.4,1.3,2.5,2.8,3
		c0.7,1.1,0.6,1.5-0.6,1.6c-0.2,0-0.4,0-0.7,0c-0.4-0.5-0.9-0.9-1.3-1.5c-0.3-0.6-0.6-0.6-1,0.1c-0.9,1.6-1.3,3.4-2.9,4.8
		c1.6,0.1,2.6,1.1,3.8,1.6l0,0v0.1c0,0.1,0.1,0.1,0.1,0.2c0.2,0.6,0.9,0.7,1.2,1.2c0.6,0.9,1,0.6,1.5-0.1c1.7-1.1,2.6-2.9,3.7-4.5
		c0.4-0.7,1.1-1.3,1.1-2.2c1-1,1.2-2.3,1.6-3.5c0.5-1.7,1.1-3.3,1.5-5c0.7-2.9,1.1-5.8,0.8-8.8c-0.2-2.2-0.7-4.2-1.1-6.3
		c-0.9-4.2-2.4-8-5.8-11c-2.9-2.5-6.3-3.3-9.8-3.9c-1.8-0.3-3.7,0.1-5.4-0.4c-1.4-0.4-2.6-0.5-4-0.2c-4.9,0.9-9.4,2.4-13.4,5.7
		c-1.8,1.5-3.3,3.3-4.7,5.1c-1.1,1.3-2.6,2.4-3.4,3.9c-1.8,3.2-3,6.7-3.7,10.3c-1.3,6.2-0.8,12.5,0.8,18.7c0.4,1.3,0.7,3,2.7,3
		C22.7,71.2,22.3,71.6,21.7,71.9z"/>
	<path class="st5" d="M46.5,22c-4.4,0.3-8.5,1.7-12.4,3.5c-1.3,0.6-2.4,1.5-3.5,2.3c-0.1-0.5,0-0.9,0.5-1.2c2.5-1.7,5-3.5,7.9-4.3
		c2.5-0.7,5-0.8,7.5-0.5C46.5,21.9,46.5,22,46.5,22z"/>
	<path class="st9" d="M17.1,52.8c-0.8,1.7,0.1,3.5,0.1,5.2s0.1,3.4-0.4,5.1c-0.6-0.8-0.6-1.8-0.8-2.7c-0.2-1.3-0.4-2.6-0.4-4
		C15.5,55,15.9,53.7,17.1,52.8z"/>
	<path class="st6" d="M19.5,70.4c0.2,0.2,0.4,0.5,0.3,0.8C19.3,71.1,19,70.9,19.5,70.4z"/>
	<path class="st5" d="M30.6,27.9c-0.1,0.5-0.5,0.5-0.9,0.6C29.7,27.9,30.2,27.9,30.6,27.9z"/>
	<path class="st4" d="M77.5,59.4c0,0.4,0,0.9,0,1.3c-0.8,0.4-0.5,1.1-0.6,1.7c-0.9-0.2-1.6-0.1-2.4-1.2c-0.6-0.9-0.3-1.8-0.8-2.6
		c-0.3-0.4,0-0.9,0.7-1.1c1.1-0.3,1.3-1.1,0.5-1.8c-0.6-0.6-0.6-1-0.4-1.9c0.3-0.9,0.4-2.1-0.9-2.7c-0.8-0.4-0.7-1.1-0.5-1.8
		c0.7-1.9,0.4-3.8,0.4-5.7c0-0.5-0.4-0.5-0.8-0.6c-0.6-0.1-0.7-0.6-0.5-0.9c0.9-1,0.5-2.5,1.7-3.5c-0.1,0.5,1.5,0.9-0.1,1.4
		c-0.6,0.2-0.4,0.9-0.3,1.2c0.3,0.6,0.7,0.1,1-0.1c0.3-0.3,0.6-0.4,1-0.2c0.3,0.2,0.2,0.6,0.2,0.9c0,0.3-0.9,1.1-1.3,1.3
		c-0.5,0.2-0.3,0.6-0.1,0.7c0.7,0.5,1.1,1.2,1.7,1.7c0.4,0.4,0.7,0.8,0.8,1.2c0.2,1.8,0.9,3.5,0.2,5.4c-0.3,0.8,0.6,2.7,1.2,3
		c0,0.1,0,0.2,0,0.2c-0.4,0-1-0.1-1.2,0.4c-0.3,0.6,0.5,0.8,0.6,1.3C77.6,57.9,77.6,58.7,77.5,59.4z"/>
	<path class="st5" d="M65.9,67.7c0.7-1.4,1.4-2.8,2.2-4.2c0.9-1.8,1.6-3.7,2-5.7c0.1-0.5,0.4-1,0.6-1.5c1.2,0.9,0.5,2.1,0.2,3
		c-0.2,0.5-0.8,0.9-0.2,1.5c0.2,0.2,0.1,0.5-0.1,0.6c-1.3,0.2-0.7,0.9-0.4,1.6c0.3,0.7,0.3,1.3-0.4,1.9c-1,0.9-2.2,1.6-2.5,3.1
		c-0.1,0.3-0.3,0.6-0.7,0.6C65.9,68.6,66.3,67.9,65.9,67.7z"/>
	<path class="st6" d="M71.1,55c-0.2-1.4,0.4-2.6,0.6-3.9c0.3-2,0-3.9,0.3-5.9c0.8,1.9,0.7,4,0.4,5.9c-0.1,1,0.1,2-0.1,3
		C72.1,55,71.8,55.1,71.1,55z"/>
	<path class="st6" d="M71.4,41.5c-0.2-2-1.2-3.8-1.4-5.9c0.6,1.7,1.9,3,1.7,5C71.6,40.9,71.7,41.3,71.4,41.5z"/>
	<path class="st5" d="M77.5,59.4c0.1-0.7,0.2-1.5,0.3-2.2c0.5-0.4,0.6-1.1,0.6-1.7c0-0.1,0-0.2,0-0.2c0.3-0.1,0.5-0.2,0.8-0.3
		c0,0.4,0,0.7,0,1.1c-0.5,0.5-0.7,1.2-0.8,1.9C78.1,58.5,78.2,59.2,77.5,59.4z"/>
	<path class="st4" d="M72.5,72.5c-1-0.5-1-1.3-0.6-2.2c0.1-0.3,0.2-0.8,0.7-0.6c0.4,0.2,0.5,0.5,0.3,0.9
		C72.6,71.2,72.4,71.8,72.5,72.5L72.5,72.5z"/>
	<path class="st5" d="M76.9,62.4c0.1-0.6-0.2-1.3,0.6-1.7c0.3,0.7,0,1.3-0.3,2C77.1,62.6,77,62.5,76.9,62.4z"/>
	<path class="st5" d="M79.3,52.5c0,0.3,0,0.6-0.1,0.9C78.7,53,78.6,52.7,79.3,52.5z"/>
	<path class="st6" d="M70.6,56.2c0.1-0.4,0.2-0.8,0.5-1.2C71.2,55.5,71.3,56,70.6,56.2z"/>
	<path class="st6" d="M70.6,75.9c0.1,0.2,0,0.3-0.2,0.4C70.4,76.2,70.5,76,70.6,75.9z"/>
	<path class="st6" d="M55.3,22.7c-1.8,0-3.6,0-5.3-0.1c-0.6,0-1.1,0-1.3-0.8c1,0.3,1.9,0.5,2.9,0.3C52.9,21.9,54.2,22.1,55.3,22.7z"
		/>
	<path class="st6" d="M48.8,21.9c-0.2,0-0.4,0-0.6,0c0-0.1,0.1-0.3,0.1-0.3C48.6,21.5,48.6,21.7,48.8,21.9z"/>
	<path class="st7" d="M43,18.8c0.1-0.2,0.3-0.3,0.5-0.2c0,0,0,0.1,0.1,0.1C43.4,18.7,43.2,18.8,43,18.8L43,18.8z"/>
	<path class="st9" d="M47,82.1c0.4-0.1,0.8-0.2,1.2-0.4c1.8,0,3.6,0.4,5.3-0.5c0.4,0,0.7,0,1.1,0c0.3,0.2,0.6,0.2,0.8-0.1
		c0.2-0.2,0.3-0.3,0.5-0.4c1.4-0.1,2.8-0.2,3.9-1c0.2,0,0.3,0,0.5,0c0.4,1.1,0.1,1.8-0.8,2.4c-0.2,0.1-0.5,0.3-0.5,0.6
		C58.9,84,58.8,84,58.7,84c-0.6-0.1-1,1.2-1.7,0.3c0,0-0.3,0-0.3,0.1c-0.2,0.2-0.1,0.5,0.2,0.6c0.8,0.2,0.4,0.7,0.2,1.1
		c-0.3,0.6-0.7,0.2-1,0.1c-1.5-0.7-1.5-0.7-3.3,0c0.9,0.4,2,0.3,1.6,1.7c-0.2,0.7-0.7,0.9-1.3,0.7c-0.5-0.5,1.1-0.8,0.2-1.2
		c-0.5-0.2-1.2-0.7-2,0.2c-0.6,0.6-1.7,2.1-3.3,0.9c-1-0.7-1.7,0.7-2.4,1.3c-1.2,1.1-2.2,2.2-3.6,3c-0.2,0.1-0.3,0.3-0.4,0.5
		c-1.5,0.2-2.9-0.5-4.4-0.3c-0.6-0.3-1.3-0.3-2-0.2c-0.4-0.9-1-1.2-1.9-0.6c-0.4,0.1-0.9,0.2-1.3,0.2c-0.1-0.5,0.5-1-0.1-1.4
		c0.3-0.4,0.8,0.3,1.1-0.1c0.1-0.7-0.7-0.4-0.9-1c1-0.4,1.5,0.5,2.2,0.9c0.3,0.1,0,0.9,0.6,0.7c0.5-0.2,0.2-0.7,0.3-1
		c0.1-0.9-0.3-1.1-1.1-1c-0.4,0-0.7,0-1.1,0c-0.3,0-0.6,0.1-0.6-0.3c0-0.3,0.3-0.4,0.6-0.3c0.7,0.2,1.1-0.2,1-0.8
		c-0.1-0.6-0.8-0.9-1.3-0.6c-1.4,1.1-3,1.5-4.6,1.5c-0.5,0-1.4,1.3-1.6-0.2c-0.1-0.8-1.4-0.7-1.1-1.7c0.2-0.8-0.6-2,0.9-2.3
		c0,0,0.1-0.2,0.1-0.3c-0.2-1.8,0.5-3.5,0-5.3c0.5,0.1,0.7,0.3,0.8,0.8c0.2,0.9,0.4,1.9,0.6,2.8c-0.2,2.3,1,3.1,3.1,2.1
		c0.4-0.2,0.8-0.4,1.2-0.7c0.2,0,0.4,0,0.6,0c0.2,0.4-0.1,1.1,0.3,1.2c1.3,0.5,1.7,1.7,2.2,2.8c0.2,0.4,0.6,0.4,0.9,0.5
		c0.2,0.1,0.4-0.1,0.4-0.3c-0.2-0.9,0.7-1.5,0.4-2.5s0.3-1.4,1.3-1.1c0.6,0.2,1.3,0.3,1.8-0.3c1.6-0.5,3.3-1,4.9-1.5
		c0.7-0.2,1.5,0,1.8-0.9c0.1-0.1,0.1-0.1,0.2-0.1C46.8,82.2,46.9,82.2,47,82.1z"/>
	<path class="st9" d="M60.5,78.9c0.1-0.2,0.3-0.3,0.4-0.5c0.9-0.7,2-1.3,2.7-2.3c0.1,0.3,0.5,0.7,0.2,1c-1.1,0.9-1.7,2.3-3.3,2.4
		C60.5,79.3,60.5,79.1,60.5,78.9z"/>
	<path class="st7" d="M36.9,93.1c1.5-0.2,2.9,0.4,4.4,0.3c0.5,0.1,1-0.2,1.4,0.3c-0.1,0.3-0.3,0.6-0.6,0.4c-1.5-0.9-3.2-0.4-4.7-0.3
		C36.4,93.8,37,93.3,36.9,93.1z"/>
	<path class="st1" d="M63.6,76.1c-0.7,1-1.8,1.6-2.7,2.3c0.5-0.9,1.2-1.8,1.5-2.8l0.1,0.1h0.1c0.2,0.1,0.3,0.1,0.5,0.2
		C63.2,75.9,63.4,76,63.6,76.1L63.6,76.1z"/>
	<path class="st0" d="M62.6,75.6L62.6,75.6h-0.2c-0.1-1.2-0.2-2.4-0.7-3.6c-0.4-0.9,0.3-0.8,0.8-0.8C63,72.7,62.3,74.2,62.6,75.6z"
		/>
	<path class="st1" d="M60.5,78.9c0,0.2,0,0.4,0,0.6c-0.1,0.1-0.1,0.1-0.2,0.2c-0.2,0-0.3,0-0.5,0C60,79.4,60.3,79.2,60.5,78.9z"/>
	<path class="st9" d="M63.6,76.1c-0.2-0.1-0.4-0.2-0.5-0.3c0.1-0.1,0.1-0.4,0.4-0.3C63.7,75.6,63.6,75.9,63.6,76.1z"/>
	<path class="st0" d="M62.5,71.3c-0.1-0.3,0.1-0.4,0.3-0.4C62.8,71.1,62.8,71.2,62.5,71.3z"/>
	<path class="st12" d="M21.7,71.9c0.7-0.2,1-0.7,0.8-1.4c0.7-1.7,0.8-3.5,1.2-5.2c0.2-0.9,0.4-1.7-0.3-2.5c-0.4-0.5-0.2-0.8,0.5-0.9
		c1,0,2,0,3-0.3c0.3,0.5,0.7,0.6,1.3,0.2c0.7-0.5,1.4-1.1,2.3-1.2c0.4,2.8,0.8,5.6,1.2,8.3c0.5,2.8,1.9,5,4.9,5.8
		c1.3,0.4,2.5,0.2,3.4-0.9c0.6-0.8,1.4-0.3,2.1,0c1.8,0.7,3.3,1.9,4.9,3.1c1,0.7,1.9,1.4,3,2.2c-0.8,0.4-1.5,0.7-2.3,1
		c-1.1-1.6-3-1.7-4.6-2.5c-0.3-0.1-0.6,0.1-0.9,0.2c-2,1.3-4.1,1.1-6.2,0.5c-0.4-0.1-1.3-0.2-1.1,0.2c0.4,0.8-0.3,2.1,1,2.6
		c-0.3,0.2-0.4,0.5-0.3,0.9c-0.7,0.1-1.3,0.2-2,0.3c0.7-1.2,0.3-2.4-0.3-3.3c-0.5-0.8-0.5-2.3-2.1-2c0.2-1.1,1-0.9,1.7-0.6
		c0.4,0.2,0.8,0.4,1.3,0.3c0.3,0,0.6-0.1,0.6-0.4c0-0.2-0.2-0.4-0.4-0.5c-1.1-0.4-1.8-1.3-2.6-2.1c-0.3-0.3-0.6-0.7-1-0.3
		c-0.9,0.8-2.1,0.9-3.1,1.5c0-0.6-0.5-1.2,0.2-1.8c0.3-0.2,0.2-0.8-0.2-1.1c-0.5-0.4-1.2-0.3-1.7,0c-1,0.6-1.9,1.3-2.9,2
		C22.8,73.2,21.7,72.9,21.7,71.9z"/>
	<path d="M23,74.1c1-0.7,1.9-1.4,2.9-2c0.5-0.3,1.1-0.4,1.7,0c0.4,0.3,0.5,0.9,0.2,1.1c-0.7,0.6-0.2,1.2-0.2,1.8
		c-0.1,1.1-0.6,2-1.5,2.8c-0.8,0.2-1.3,0.8-1.9,1.3c-0.4,0.2-0.8,0.5-1.2,0.7c-0.4,0.2-0.8,0.4-1.2,0.6c-0.2-0.5-0.7-0.3-1-0.5
		c-0.9-0.4-1.5-0.9-1.1-2.1c0.8-0.7,1.5-1.4,2.1-2.4l0,0c0.2,0.1,0.4-0.1,0.5-0.3C22.6,74.9,23,74.6,23,74.1z M21.1,78.3
		c1.5,0.1,4.3-1.4,4.9-2.7c0.2-0.4,0.2-0.8,0.1-1.2c-0.1-0.5-0.3-0.9-0.9-0.3C23.7,75.4,22.2,76.6,21.1,78.3z"/>
	<path class="st7" d="M21.8,80.3c0.4-0.2,0.8-0.4,1.2-0.6c0.1,0.1,0.2,0.3,0.2,0.4c-0.9,1.3-0.4,2.1,1,2.5c0.3,0.1,0.6,0.3,0.4,0.6
		c-0.2,0.4-0.5,0.1-0.8,0c-1.2-0.5-1.5-0.3-1.8,1c-0.3,1.4-0.7,2.7-0.8,4.1c-0.3,0-0.5,0-0.8,0c-0.1-0.1-0.2-0.2-0.3-0.3
		c0.5-1,0.6-2.1,0.4-3.3c-0.1-0.6-0.1-1.5,0.3-1.8C21.9,82.3,21.7,81.3,21.8,80.3z"/>
	<path class="st1" d="M21.7,75.4c-0.5,0.9-1.3,1.7-2.1,2.4C19.8,76.6,20.5,75.7,21.7,75.4z"/>
	<path class="st1" d="M22.2,75.2c-0.1,0.2-0.3,0.3-0.5,0.3C21.8,75.1,22,75.1,22.2,75.2z"/>
	<path class="st5" d="M20.1,88.1c0.1,0.1,0.2,0.2,0.3,0.3h-0.1h-0.1C20.1,88.3,20.1,88.2,20.1,88.1z"/>
	<path class="st5" d="M47.6,91.7c0.5,0,1-0.1,1.5,0.3C48.6,92.2,48,92.7,47.6,91.7L47.6,91.7z"/>
	<path class="st5" d="M21.1,88.3c0.2-1.4,0.5-2.8,0.8-4.1c0.3-1.3,0.6-1.5,1.8-1c0.3,0.1,0.6,0.4,0.8,0c0.2-0.3-0.2-0.5-0.4-0.6
		c-1.4-0.4-1.9-1.2-1-2.5c0-0.1-0.1-0.2-0.2-0.4c0.4-0.2,0.8-0.5,1.2-0.7c0.4,0,0.8,0.1,1.2-0.2c0.6-0.5,0.6,0.2,0.8,0.4
		c0.5,1.8-0.2,3.5,0,5.3c0,0.1,0,0.2-0.1,0.3c-1.6,0.3-0.7,1.5-0.9,2.3c-0.3,1,1,0.9,1.1,1.7c0.2,1.5,1,0.2,1.6,0.2
		c1.7-0.1,3.2-0.5,4.6-1.5c0.5-0.4,1.2,0,1.3,0.6c0.1,0.6-0.3,1-1,0.8c-0.3-0.1-0.6,0-0.6,0.3c0,0.4,0.3,0.3,0.6,0.3
		c0.4,0,0.7,0,1.1,0c0.8-0.1,1.2,0.1,1.1,1c0,0.4,0.3,0.9-0.3,1c-0.6,0.2-0.3-0.6-0.6-0.7c-0.7-0.4-1.2-1.3-2.2-0.9
		c0.1,0.6,1,0.3,0.9,1c-0.3,0.4-0.8-0.3-1.1,0.1c0.6,0.4,0.1,0.9,0.1,1.4c-0.8-0.3-1.2-1.5-2.2-0.9c-0.6,0.3-1,0.2-1.5,0.2
		c-0.6,0-1.2-0.2-1.8,0.3c0.9,0.4,1.3,1,1.2,1.9c-0.7-0.1-1.3-0.4-1.7-0.9c-0.6-0.7-1.5-1-2.5-1.3C22.5,90.5,21.9,89.3,21.1,88.3z
		 M23.3,90.3c0.7,0.6,1.4,0.7,2,0.9c0.3,0.1,0.6,0.3,0.7-0.2c0.1-0.4,0.1-0.9-0.5-0.9C24.9,90,24.2,89.9,23.3,90.3z"/>
	<path class="st7" d="M27.3,93.8c0.1-0.8-0.3-1.5-1.2-1.9c0.7-0.5,1.3-0.2,1.8-0.3c0.5,0,1,0.2,1.5-0.2c1-0.6,1.4,0.7,2.2,0.9
		c0.4-0.1,0.9-0.2,1.3-0.2c0.1,0.3,0.2,0.6,0.2,0.8c-0.8,1.4-2.4,1.1-3.4,0.9C29,93.9,28.1,94,27.3,93.8z"/>
	<path class="st5" d="M33.3,93.1c-0.1-0.3-0.2-0.6-0.2-0.8c0.9-0.6,1.5-0.2,1.9,0.6C34.5,93.5,33.9,93.2,33.3,93.1z"/>
	<path class="st11" d="M18.7,24.7L18.7,24.7l-0.1,0.1v-0.1C18.6,24.7,18.7,24.7,18.7,24.7z"/>
	<path class="st12" d="M56,58.6c-1.9,1-3.6,2.3-5.5,3.2c-0.6,0.3-1.2,0.4-1.8,0.4c-2.8,0.2-5.4-0.3-8-1.3c-1.4-0.6-2.5-1.8-3.8-2.7
		c-0.7-0.5-0.9-1.2,0-1.9s0.9-2,1.6-2.8c1.7,0,2.3-1.4,2.9-2.4c0.6-1.1-0.5-2.5-2.1-3l0,0c-0.6-0.5-1.4-0.4-2.1-0.7
		c-0.4-0.2-0.6,0-0.6,0.4c-0.5,0.2-1.1,0.4-1.6,0.6c-1-0.7-2-0.1-3-0.3l0,0c-0.1-0.1-0.1-0.2-0.2-0.3c-1.5-1.7-0.9-3.7-0.4-5.5
		c0.6-2.5,2.6-4.1,4.7-5.5c1.8-1.2,3.7-2,5.8-1.1c0.7,0.3,0.9,0,1-0.6s-0.1-0.8-0.8-1c-1.8-0.6-3.5-0.6-5.3,0.3
		c-3,1.6-5.5,3.6-6.9,6.7c-0.8,1.8-0.6,3.8-0.7,5.7c-0.6,0.1-1.2-0.3-1.7-0.6c0-0.3-0.2-0.5-0.6-0.5l0,0c-0.4-0.4-0.8-0.4-1.2-0.1
		c-0.2,0.2,0.1,0.3,0.3,0.4c0,0.2,0,0.3,0,0.5c-0.6,0.9-0.2,3.1,0.6,3.9C27,50.7,27,51,27,51.3c-0.1,0.4,0.1,0.6,0.5,0.6
		c0.3,0.1,0.3,0.3,0.3,0.6c-0.6,0-1.2,0-1.8,0l0,0c-0.3-1-0.3-2.1-1.4-2.8l0,0c0-0.8,0.6-1.6-0.2-2.2c0-0.7-0.1-1.4-0.1-2.2
		c0.3-0.1,0.6-0.1,0.5-0.6c-0.3-1.1,0.2-2,0.8-2.8c0.3-0.3,0.5-0.7,0.4-1.1l0,0c1.3-0.1,1.3-1.1,1.3-2c0.1-0.2,0.2-0.3,0.4-0.5
		c0.6-0.3,1.8,0.1,1.6-1.3c0.9-0.4,1.6-0.9,2.2-1.7c1.1-1.4,2.4-2.6,4.1-3.1c0.4-0.3,0.9-0.2,1.3-0.3c0.8-0.2,0.9-0.5,0.3-1.1
		c0.7-0.1,1.6,1.3,2.2-0.2c1.1-0.6,2.2-1.1,3.3-1.6c2.3-1.1,4.9-1.1,7.3-1.8c1.5-0.4,3.4,0.4,5,0.6c0,1.5,1.3,0.6,1.9,1.1
		c0,0.2,0,0.4,0,0.5c-0.3,0.5-0.3,0.9,0.2,1.2c0.7,0.5,1.1,1.2,1.5,2c1.2,2.1,2.7,2,4.2-0.1c0.3,0.1,0.1-0.9,0.5-0.4
		c0.5,0.7,0.7,1.7,1,2.5c0.1,0.4-0.2,0.5-0.6,0.6c-1.2,0.4-1.2,0.9-0.3,1.8c1.1,1.2,2.3,2.2,3,3.7c0.1,0.3,0,0.6,0.3,0.8
		c0.1,0.4,0.2,0.7,0.3,1.1c-0.1,0.6-0.1,1.3,0.1,1.9l0,0c-0.4,0.3-0.3,0.8-0.3,1.2c0,1.8-0.2,1.9-1.8,1.1c-0.6-0.3-0.7-0.7-0.7-1.3
		c0-0.4,0-1-0.4-1c-1.1-0.1-2.2-0.9-3.2,0.1c0.2-1.2,0.1-2.4,0.1-3.6c-0.1-3.6-3.5-6.8-7.1-6.7c-0.6,0-1.2,0-1.2,0.9
		c0,0.9,0.6,0.8,1.3,0.8c1.2,0.1,2.3,0.4,3.3,1.3c2.3,1.9,2.4,4.3,2,6.9c-0.4,3.1-3.4,4.6-6.2,3.3c-0.8-0.4-1.7-0.7-2.6-0.2
		c-0.6,0.3-1.1,0.4-1.6-0.4c-0.2-0.4-0.7-1-1.4-0.9c-0.3,0.1-0.6,0.2-0.7,0.6c-0.1,0.7,0.4,1.1,0.8,1.4c1,0.8,2,1.7,1.4,3
		c-0.5,1.1-1.9,1-3.1,1c-0.1,0-0.2,0-0.3,0c-0.6-0.3-1.1-0.2-1.2,0.5c-0.1,0.8,0.5,1.1,1.2,1.1s1.4-0.1,2-0.2c1.6-0.3,2.8-1,3.2-2.7
		c1.7,0.3,3.3,1.1,5.1,1.2c0.3,0.7,0.2,1.7,1.1,2.2c0,0.1,0,0.1,0.1,0.2c-1.1,0.6-0.8,1.6-0.6,2.5c0.1,0.6,0.3,1.1,0.4,1.7
		C56.5,58.6,56.3,58.6,56,58.6z M39.5,43.7c0.9,0,2-1.2,2-2.2c0-0.9-0.5-1.2-1.4-1.1c-0.7,0.1-2.3,1.2-2.3,1.7
		C37.8,42.7,38.8,43.7,39.5,43.7z M56.8,42c0.2-0.8-0.2-1.1-1-1.2c-1-0.1-2.3,0.7-2.3,1.5c0,0.9,0.6,1.5,1.5,1.5
		C56,43.8,56.8,43.3,56.8,42z"/>
	<path class="st13" d="M66.6,40.9c-0.7-1.5-1.9-2.5-3-3.7c-0.9-0.9-0.9-1.3,0.3-1.8c0.3-0.1,0.7-0.2,0.6-0.6c-0.3-0.9-0.5-1.8-1-2.5
		c-0.4-0.6-0.2,0.4-0.5,0.4c-0.2-2.6-1.4-4.5-4-5.3c-0.2-0.7-0.5-0.2-0.8-0.1c-0.2,0-0.3,0-0.5,0c-0.7-1-1.5-1.6-2.8-1.3
		c0.1-0.4,0.6-0.4,0.8-0.8c-0.8,0-1.5-0.4-2.1-0.4S53,25,52.5,24.7c-0.3-0.1-0.6-0.2-0.9-0.2c-1.5,0-3,0.3-4.6,0
		c-0.8-0.2-1.7,0-2.5,0.1c-1.7,0.2-3.1,1.4-4.6,2.2c-1.4,0.8-3,1.4-4.4,2.3c-4.1,0.6-6.7,3-8.4,6.6c-0.2,0.2-0.3,0.4-0.5,0.6
		c-0.7,0.1-1.1,0.3-0.8,1.1c0,0.4-0.4,0.5-0.6,0.8c-0.9,0-1.2,0.7-1.3,1.3c-0.2,1.1-0.5,2.3-0.3,3.5c0,0.7,0,1.4,0,2.1
		c-0.1,1.1-0.1,2.2,0.7,3.1c0,0.3,0,0.5,0,0.8c-1,0.7-1,1.7-0.7,2.6c0.3,1,0.8,1.8,2.2,1.9c1.3,0.2,2.7,0.8,3.3,2.2
		c0.5,1.1,1,1.1,1.6,0.1c0.3-0.5,0.8-0.9,1.1-1.5c0.4-0.8,1.1-1.2,2.1-1c1.4,0.2,1.5,1.3,1.5,2.3c-0.1,0-0.2,0.1-0.2,0.1
		c-0.1,0-0.1,0.1-0.2,0.1c0,0,0.1,0,0.1,0.1c-0.7,1.2-2,1.8-3.2,2.3c-0.7,0.3-1.3,0.6-2,0.8c-0.4-0.4-0.8-0.5-1.2,0
		c-1.2-0.6-2.1-1.7-3.5-2c-0.4-0.1-0.6-1.1-1-0.5c-0.3,0.5-0.9,1.4-0.1,2.1c0.8,0.7,1.7,1.3,2.9,1.3c0,0.2,0,0.4,0,0.6l0,0
		c-0.1,0-0.2,0.1-0.4,0.1c0,0.1,0.1,0.1,0.1,0.2c0,0.3-0.1,0.6-0.1,0.8c-1,0.3-2,0.2-3,0.3c-0.7,0-0.9,0.4-0.5,0.9
		c0.7,0.8,0.5,1.6,0.3,2.5c-0.4,1.7-0.5,3.5-1.2,5.2c-1.9-0.1-2.3-1.7-2.7-3C18.2,61.2,17.7,55,19,48.7c0.7-3.5,2-7,3.7-10.3
		c0.8-1.5,2.3-2.6,3.4-3.9c1.5-1.8,2.9-3.6,4.7-5.1c3.9-3.3,8.5-4.7,13.4-5.7c1.4-0.3,2.6-0.2,4,0.2c1.7,0.4,3.6,0.1,5.4,0.4
		c3.5,0.6,6.9,1.4,9.8,3.9c3.4,3,4.9,6.8,5.8,11c0.5,2.1,0.9,4.2,1.1,6.3c0.3,3-0.1,5.9-0.8,8.8c-0.4,1.7-1,3.3-1.5,5
		c-1.9,0.6-1.2,2.3-1.6,3.5c0,0.9-0.6,1.5-1.1,2.2c-0.8-1-1.1-0.2-1.4,0.4c-0.5,1.1-0.8,2.4-2,2.9c-0.9,0.4-0.5,0.8-0.3,1.2
		c-0.4,0.7-0.9,1-1.5,0.1c-0.3-0.5-1-0.7-1.2-1.2c0.1-0.1,0.2-0.3-0.1-0.3l0,0c0.4-0.8,0.3-1.7,0.1-2.5c-0.3-1.3,0.1-2,1.4-2.5
		c0.2,0,0.4,0,0.7,0c1.2-0.1,1.4-0.5,0.6-1.6c-0.5-1.4-1.6-2.2-2.8-3l0,0c-0.1-0.1-0.2-0.3-0.3-0.4l0,0c-0.1-0.2,0-0.5-0.3-0.6l0,0
		c-0.1-0.2-0.1-0.3-0.2-0.5c-0.4-0.4-0.3-0.9-0.3-1.4c0-0.6-0.1-1.1-0.7-1.4c1-0.4,0.7-1.1,0.4-1.7c0-0.2,0-0.4,0-0.5
		c0.3-0.3,0.4-0.6,0-0.8c-0.8-0.3-0.5-0.6-0.1-1c0.5-0.5,0.9-0.9,1.4-1.4c1-0.2,1.9,0.2,2.6,0.9c0.3,1,1.1,1.9,0.7,3.1
		c-0.4,1.3,0,2.4,0.8,3.4c0.3,0.4,0.5,0.9,1.1,0.8c0.5-0.1,0.7-0.7,0.7-1.2c0.3-0.3,0.1-0.7,0.2-1.1c0.2-1.3,0-3.1,1-3.8
		c1.2-0.9,1.2-1.7,0.9-2.8c0.4-0.3,0.3-0.7,0.4-1.1c0.7-0.7,0.7-1.3,0-2c0-0.2-0.1-0.3-0.1-0.5l0,0c0.6-0.7,0.5-1.3-0.1-1.9
		c-0.1-0.4-0.2-0.7-0.3-1.1C67,41.4,67.1,41.1,66.6,40.9z"/>
	<path class="st14" d="M35.4,72.4c-0.4,0-0.5-0.3-0.6-0.6c0.4-1.2-0.4-2-0.8-3c0.2-0.4,0.6-0.7,0.7-1.1c0.6-1.1,2-0.9,2.7-1.9
		c0.4,0.7,1,0.4,1.6,0.5c0.8,0,1.6-0.1,2.5-0.2c4.8-0.7,9.2,0.4,13.7,2.1c1.6,0.6,3,1.4,4.1,2.6c1.8,2.1,2.6,5,0.2,7.3
		c-1.4,1.4-3.1,1.4-4.7,1.1c-2.1-0.5-4-1.5-5.8-2.9c-2-1.5-4-3.1-6.3-4c-1.3-0.5-2.6-0.5-3.9-0.3c-0.6-0.1-1.3,0.1-1.7-0.2
		C35.8,70.9,35.6,71.6,35.4,72.4z M46.1,69.2c0.6,0.9,0.7,1.6,1.4,2.1c2.1,1.2,4.4,2.1,6.4,3.5c0.5,0.4,1.3,0.2,2-0.1
		c-0.2-0.6,0-1.5-0.7-1.9C52.5,71,49.4,70.3,46.1,69.2z"/>
	<path class="st12" d="M37.3,65.8c-0.7,0.9-2.1,0.7-2.7,1.9c-0.2,0.4-0.5,0.7-0.7,1.1c-0.2,0.2-0.3,0.4-0.5,0.6
		c-0.7-2.2-0.7-4.6-1.2-6.8c0-0.1,0-0.3,0-0.4c-0.2-2,0.7-3,2.6-3.5c0.4-0.1,0.6,0.1,0.8,0.3c1.3,1.5,3,2.5,4.7,3.5
		c0.2,0.7-0.8,1.5,0.3,2.1c-0.7,0-1.3,0-2,0.1C37.8,64.7,37.1,64.9,37.3,65.8z M39.3,63.3C39.2,63.2,39,63,39,63.1
		c-0.1,0-0.2,0.1-0.3,0.2c0.1,0.1,0.2,0.2,0.3,0.2C39,63.5,39.1,63.4,39.3,63.3z"/>
	<path class="st10" d="M35.5,55.8c0-1.1-0.1-2.1-1.5-2.3c-0.9-0.2-1.7,0.2-2.1,1c-0.3,0.6-0.8,1-1.1,1.5c-0.6,0.9-1.1,1-1.6-0.1
		c-0.7-1.3-2-2-3.3-2.2s-1.8-1-2.2-1.9c-0.3-0.9-0.4-1.9,0.7-2.6c0.1,0.2,0,0.5,0.3,0.6l0,0c0.2,1.1-0.6,2.6,1.4,2.8l0,0
		c1.3,1.1,2.9,1.1,4.5,1.3c0.5,0.1,1-0.2,1.1-0.9c0.2-0.7-0.1-1-0.6-1.3c-0.6-0.4-1.2-0.9-1.7-1.3c-0.2-1-1.1-0.3-1.7-0.7
		c0.1-0.3,0.5-0.6,0-1c-0.2-0.2-0.7-0.4-0.3-0.7c0.3-0.2,1-0.3,1,0.2c0.2,1.1,0.9,0.4,1.3,0.5c0.5,0,0.5,0.5,0.7,0.8
		c0.7,1,1.7,1.6,3,1.6c1,0.1,1.9-0.3,2.7-0.9c0.4-0.3,0.8-0.6,1.2-0.9c0.2-0.1,0.9-0.2,0.7,0.2c-0.4,0.9,0.3,1,0.7,1.3
		c0.3,0.2,0.6,0.3,0.5,0.7c-0.1,0.5-0.5,0.4-0.8,0.5c-1-0.1-1.5,0.4-1.6,1.4C36.7,54.3,36.3,55.2,35.5,55.8z"/>
	<path class="st10" d="M35.8,81.2c-1.3-0.5-0.6-1.7-1-2.6c-0.2-0.4,0.6-0.3,1.1-0.2c2.1,0.7,4.3,0.8,6.2-0.5
		c0.3-0.2,0.6-0.4,0.9-0.2c1.6,0.8,3.5,0.9,4.6,2.5c-2.4,1-5.1,1.1-7.7,1.6C38.6,82,37.2,81.2,35.8,81.2z"/>
	<path class="st15" d="M40.5,64.6c-1.1-0.6,0-1.4-0.3-2.1c0.9,0,1.7,0.7,2.5,0.8c3.4,0.7,6.7,1.1,9.9-0.9c1.1-0.7,2.2-1.4,3.3-2
		c0.7-0.4,0.9-0.8,0.8-1.5h0.1c0.7,0.6,0.9,1,0.3,1.9c-1,1.6-1.5,3.4-2.8,4.9c-0.4,0.5-0.8,0.5-1.3,0.3c-3.8-1.3-7.6-2.2-11.6-1.3
		C41.1,64.7,40.8,64.6,40.5,64.6z"/>
	<path class="st8" d="M38.5,52c0.3-0.1,0.8,0,0.8-0.5c0-0.4-0.2-0.5-0.5-0.7c-0.4-0.3-1.1-0.4-0.7-1.3c0.2-0.4-0.4-0.3-0.7-0.2
		c-0.4,0.3-0.8,0.6-1.2,0.9c-0.8,0.6-1.6,1-2.7,0.9c1-0.5,2-1,2.9-1.9c0.6-0.5,0.6-0.9,0.1-1.5c0.1-0.4,0.2-0.6,0.6-0.4
		c0.7,0.3,1.5,0.2,2.1,0.7c-0.4,0.1-0.9-0.2-1,0.4c-0.1,0.3,0.1,0.4,0.4,0.4c0.6,0.1,0.6-0.3,0.6-0.8c1.6,0.5,2.7,1.9,2.1,3
		c-0.6,1.1-1.2,2.5-2.9,2.4C38.8,53,38.9,52.5,38.5,52z"/>
	<path class="st15" d="M60.4,63.3c-1.2,0.4-1.7,1.2-1.4,2.5c0.2,0.9,0.3,1.7-0.1,2.5c-1.2-0.4-2.1-1.5-3.8-1.6
		c1.6-1.4,2.1-3.2,2.9-4.8c0.4-0.7,0.7-0.7,1-0.1C59.5,62.4,60,62.8,60.4,63.3z"/>
	<path class="st1" d="M33.5,82.3c0.7-0.1,1.3-0.2,2-0.3c2.4,1.6,4.9,1.5,7.5,0.8c1.1-0.3,2.3-0.4,3.5-0.5c-0.3,0.8-1.2,0.7-1.8,0.9
		c-1.6,0.5-3.3,1-4.9,1.5c-0.2-0.6-0.5-0.9-1.2-1.1c-2.2-0.5-4.2,0.1-6.2,0.7c-0.2,0-0.4,0-0.6,0C32.3,83.6,33.2,83.2,33.5,82.3z"/>
	<path class="st16" d="M61.7,69.7c-0.1-0.5-0.6-0.9,0.3-1.2c1.2-0.5,1.4-1.8,2-2.9c0.3-0.6,0.6-1.4,1.4-0.4
		C64.3,66.8,63.4,68.6,61.7,69.7z"/>
	<path class="st0" d="M53.5,81.3c-1.7,0.8-3.5,0.5-5.3,0.5c0.7-0.6,1.4-0.9,2.3-1.1C51.5,80.8,52.6,80.5,53.5,81.3z"/>
	<path class="st1" d="M53.5,81.3c-0.9-0.8-2-0.5-3-0.6c0.6-0.9,1.4-1,2.4-0.5s2,0.5,3.1,0.6c-0.2,0.1-0.3,0.3-0.5,0.4
		c-0.3,0-0.5,0.1-0.8,0.1C54.2,81.3,53.8,81.3,53.5,81.3z"/>
	<path class="st10" d="M66.5,63c0.3-1.3-0.3-3,1.6-3.5C67.7,60.7,67.5,62,66.5,63z"/>
	<path class="st15" d="M35.4,72.4c0.2-0.8,0.4-1.5,1.5-0.7c0.4,0.3,1.1,0.2,1.7,0.2c-0.7,0.3-1.4,0.3-2,0.8
		C36,73.1,35.7,72.5,35.4,72.4z"/>
	<path class="st16" d="M58.9,58.7c1.1,0.8,2.3,1.6,2.8,3C60.3,61.2,59.5,60.1,58.9,58.7z"/>
	<path class="st15" d="M33.4,69.3c0.2-0.2,0.3-0.4,0.5-0.6c0.4,1,1.3,1.8,0.8,3C33.7,71.3,33.8,70.2,33.4,69.3z"/>
	<path class="st1" d="M27.2,60.5c0-0.2,0-0.4,0-0.6c0.7,0.1,1.1-0.5,1.6-0.8c0.4-0.4,0.8-0.4,1.2,0C29,59.4,28.3,60.4,27.2,60.5z"/>
	<path class="st1" d="M57.6,52.8c0.3,0.7,0.6,1.3-0.4,1.7c-0.1,0-0.2,0-0.2-0.1s-0.1-0.1-0.1-0.2c0.4-0.2,0.4-0.5,0.2-0.8
		C57,53,57.2,52.8,57.6,52.8z"/>
	<path class="st15" d="M56,58.6c0.3,0,0.5,0,0.8,0l0.1,0.1l-0.1,0.1h-0.1C56.5,58.8,56.3,58.7,56,58.6z"/>
	<path class="st10" d="M27,60.8c0-0.1-0.1-0.1-0.1-0.2c0.1,0,0.2-0.1,0.4-0.1C27.2,60.6,27.1,60.7,27,60.8z"/>
	<path class="st16" d="M58.4,57.7c0.3,0.1,0.2,0.4,0.3,0.6C58.5,58.2,58.4,58,58.4,57.7z"/>
	<path class="st16" d="M58.2,57.3c0.1,0.2,0.1,0.3,0.2,0.5C58.3,57.6,58.3,57.4,58.2,57.3z"/>
	<path class="st1" d="M47,82.1c-0.1,0-0.2,0.1-0.3,0.1C46.8,82.2,46.9,82.1,47,82.1z"/>
	<path class="st15" d="M58.9,68.2c0.3,0,0.2,0.1,0.1,0.3C59,68.4,58.9,68.4,58.9,68.2C58.9,68.3,58.9,68.3,58.9,68.2z"/>
	<path class="st10" d="M35.2,56c0,0-0.1,0-0.1-0.1c0.1,0,0.1-0.1,0.2-0.1C35.3,55.9,35.3,56,35.2,56z"/>
	<path class="st16" d="M58.7,58.3c0.1,0.1,0.2,0.3,0.3,0.4C58.9,58.6,58.8,58.4,58.7,58.3z"/>
	<path class="st7" d="M78.3,55.5c0,0.6,0,1.2-0.6,1.7c-0.1-0.5-1-0.7-0.6-1.3C77.3,55.4,77.8,55.6,78.3,55.5z"/>
	<path d="M33.5,82.3c-0.3,0.9-1.2,1.2-1.6,2c-0.4,0.2-0.8,0.5-1.2,0.7c-2.1,1-3.3,0.2-3.1-2.1c0.7-1.5,1.4-2.9,2-4.4
		c0.7-0.3,0.9-1,1.5-1.5c1.6-0.3,1.6,1.2,2.1,2C33.7,79.9,34.2,81.2,33.5,82.3z M31.5,78.9C30.3,80,29.8,81.6,29,83
		c-0.4,0.7,0.1,0.9,0.7,0.8C32.1,83.3,32.9,81,31.5,78.9z"/>
	<path class="st5" d="M32.4,84.3c2-0.7,4-1.3,6.2-0.7c0.7,0.2,1,0.5,1.2,1.1c-0.5,0.6-1.1,0.5-1.8,0.3c-1.1-0.3-1.7,0.1-1.3,1.1
		c0.3,1-0.6,1.6-0.4,2.5c0,0.2-0.2,0.4-0.4,0.3c-0.3-0.1-0.7-0.1-0.9-0.5c-0.6-1.1-0.9-2.3-2.2-2.8C32.3,85.4,32.7,84.7,32.4,84.3z"
		/>
	<path class="st0" d="M29.6,78.5c-0.7,1.5-1.4,2.9-2,4.4C27.4,82,27.2,81,27,80.1c-0.1-0.5-0.4-0.7-0.8-0.8
		c-0.2-0.2-0.2-0.9-0.8-0.4C25,79.1,24.6,79,24.2,79c0.6-0.5,1.1-1.1,1.9-1.3C27.3,77.6,28.5,77.7,29.6,78.5z"/>
	<path class="st0" d="M54.5,81.3c0.3,0,0.5-0.1,0.8-0.1C55.2,81.6,54.9,81.5,54.5,81.3z"/>
	<path class="st10" d="M29.6,78.5c-1.1-0.8-2.3-0.8-3.5-0.8c0.8-0.8,1.4-1.6,1.5-2.8c1-0.6,2.2-0.7,3.1-1.5c0.5-0.4,0.7,0,1,0.3
		c0.8,0.8,1.5,1.7,2.6,2.1c0.2,0.1,0.4,0.3,0.4,0.5c0,0.3-0.4,0.3-0.6,0.4c-0.5,0.1-0.9-0.1-1.3-0.3c-0.7-0.4-1.4-0.5-1.7,0.6
		C30.5,77.4,30.3,78.2,29.6,78.5z"/>
	<path class="st15" d="M21.1,78.3c1.1-1.7,2.6-2.9,4-4.2c0.6-0.5,0.8-0.1,0.9,0.3s0.1,0.8-0.1,1.2C25.4,76.9,22.6,78.5,21.1,78.3z"
		/>
	<path class="st7" d="M23.3,90.3c0.9-0.4,1.6-0.2,2.2-0.2s0.6,0.5,0.5,0.9c-0.1,0.5-0.5,0.3-0.7,0.2C24.7,91,24,90.9,23.3,90.3z"/>
	<path d="M50.7,50.8c-0.4,1.7-1.6,2.4-3.2,2.7c-0.7,0.1-1.4,0.2-2,0.2c-0.7,0-1.3-0.3-1.2-1.1c0.1-0.7,0.6-0.8,1.2-0.5
		c0.1,0,0.2,0,0.3,0c1.2,0,2.5,0.2,3.1-1s-0.4-2.2-1.4-3c-0.5-0.4-1-0.7-0.8-1.4c0.1-0.4,0.4-0.5,0.7-0.6c0.7-0.2,1.2,0.5,1.4,0.9
		c0.5,0.8,1,0.7,1.6,0.4c0.9-0.5,1.8-0.2,2.6,0.2c2.8,1.3,5.8-0.3,6.2-3.3c0.3-2.5,0.2-5-2-6.9c-1-0.9-2.1-1.2-3.3-1.3
		c-0.6,0-1.3,0.1-1.3-0.8c0-0.9,0.6-0.8,1.2-0.9c3.6-0.1,7,3,7.1,6.7c0,1.2,0.1,2.4-0.1,3.6c-1.2,3.8-3.4,5.3-7,5
		c-1-0.5-1.9-1.4-3.2-0.8c-0.6,0.3,0.1,0.3,0.2,0.5C50.7,49.9,50.7,50.4,50.7,50.8z"/>
	<path d="M36.6,47.8c0.5,0.5,0.4,0.9-0.1,1.5c-0.9,0.8-1.8,1.4-2.9,1.9c-1.3,0-2.3-0.6-3-1.6c-0.2-0.3-0.2-0.8-0.7-0.8
		c-0.2-0.6-0.1-1.2-0.7-1.6c0.1-1.9-0.1-3.9,0.7-5.7c1.4-3.2,3.9-5.2,6.9-6.7c1.7-0.9,3.4-0.9,5.3-0.3c0.6,0.2,0.9,0.4,0.8,1
		c-0.1,0.6-0.3,0.9-1,0.6c-2.2-0.9-4-0.1-5.8,1.1c-2.1,1.4-4.1,2.9-4.7,5.5c-0.4,1.8-1,3.8,0.4,5.5c0.1,0.1,0.1,0.2,0.2,0.3l0,0
		c0.7,1.5,1.6,1.6,3,0.3C35.5,48.2,36,48,36.6,47.8z"/>
	<path class="st1" d="M53.8,49.7c3.6,0.3,5.8-1.2,7-5c1-0.9,2.2-0.2,3.2-0.1c0.5,0.1,0.4,0.6,0.4,1c0,0.6,0.1,1,0.7,1.3
		c1.6,0.8,1.8,0.7,1.8-1.1c0-0.4-0.1-0.8,0.3-1.2c0,0.2,0.1,0.3,0.1,0.5c0,0.7,0,1.3,0,2c-0.1,0.4,0,0.8-0.4,1.1
		c-0.5-0.4-0.9-0.4-1.3,0.1c-0.6,0.8-1.1,1.5-0.9,2.6c-0.7,0-1.2,0.1-1.5,0.9c-0.6,1.5-0.3,2.8,0.5,4.1c0.3,0.5,0.6,0.3,0.9,0
		c0.1,0,0.2,0,0.3,0c0,0.5-0.2,1.1-0.7,1.2c-0.6,0.2-0.8-0.4-1.1-0.8c-0.8-1-1.3-2.1-0.8-3.4c0.4-1.2-0.4-2.1-0.7-3.1
		c0.5-0.2,1-0.4,1.5-0.7c0.7-0.5,1.3-1.3,1-2c-0.3-0.7-0.9-1.4-2-1.5c-0.7-0.1-0.9,0.2-1,0.7c-0.3,0.9-0.6,1.8-1.7,2
		c-0.1,0-0.2,0.4-0.3,0.6c-0.5,0.5-0.9,0.9-1.4,1.4c-0.4,0.4-0.7,0.7,0.1,1c0.4,0.1,0.3,0.5,0,0.8c-0.6-0.3-1.2-0.3-1.8-0.2
		c-1.8-0.1-3.4-0.9-5.1-1.2c0-0.5,0-0.9,0-1.4C51.8,49.3,52.7,49.7,53.8,49.7z"/>
	<path d="M27.2,35.9c1.6-3.7,4.3-6.1,8.4-6.6c0.6,0,1.1,0,1.7,0c1,0.2,1.9,0.5,2.4,1.5c-0.6,1.5-1.5,0-2.2,0.2
		c-3.1-1.1-7.6,2.3-8.4,4.8c0.7-0.3,1.3-0.7,1.7-1.2c1-1.3,2-2.7,3.8-3.1c0.9-0.2,1.4,0,1.3,1c-1.8,0.5-3.1,1.7-4.1,3.1
		c-0.6,0.8-1.3,1.3-2.2,1.7c-0.3,0-0.5,0-0.8,0C27.8,37,27.1,36.9,27.2,35.9z"/>
	<path class="st1" d="M39.6,30.7c-0.5-1-1.4-1.3-2.4-1.5c0.7-0.9,1.4,0.3,2-0.1c0.4-0.3-0.8-0.4-0.2-0.7c1.7-0.6,3.5-1.2,5.2-1.6
		c1.1-0.3,2.4-0.2,3.5-0.3c2.4-0.4,4.7-1,7.1-0.5c1.3-0.3,2.1,0.4,2.8,1.3c-0.8,0.3-1.8-0.4-2.4,0.6c-1.7-0.3-3.6-1.1-5-0.6
		c-2.4,0.7-5,0.8-7.3,1.8C41.8,29.6,40.7,30.2,39.6,30.7z"/>
	<path d="M55.2,27.9c0.6-1,1.6-0.3,2.4-0.6c0.2,0,0.3,0,0.5,0c0.3,0,0.6,0.1,0.8,0.1c2.6,0.8,3.8,2.7,4,5.3c-1.4,2.1-3,2.1-4.2,0
		c-0.4-0.8-0.8-1.5-1.5-2c-0.4-0.3-0.5-0.7-0.2-1.2c1.1-0.2,1.8,0.3,2.3,1.3c0.3,0.5,0.5,1,0.8,1.4c0.2,0.3,0.4,0.6,0.9,0.5
		c0.4-0.2,0.4-0.5,0.3-0.9C61.1,30,59,28.6,57,29C56.5,28.5,55.1,29.4,55.2,27.9z"/>
	<path class="st8" d="M29.2,47c0.5,0.4,0.5,1.1,0.7,1.6c-0.5-0.1-1.2,0.6-1.3-0.5c-0.1-0.5-0.7-0.4-1-0.2c-0.4,0.3,0.1,0.5,0.3,0.7
		c0.5,0.3,0.1,0.7,0,1c0.6,0.4,1.4-0.3,1.7,0.7c-0.7-0.2-1.4-0.3-0.7,0.8c0.2,0.3,0.2,0.7,0.5,1c0.4,0.5,0.1,0.8-0.4,0.7
		c-0.3,0-0.6-0.2-0.9-0.3c0-0.2-0.1-0.5-0.3-0.6c0-0.3-0.2-0.5-0.5-0.6c0-0.3,0-0.6-0.3-0.8c-0.1-1.3-0.1-2.7-0.6-3.9
		c0-0.2,0-0.3,0-0.5c0.3-0.1,0.6-0.2,0.9-0.3l0,0c0,0.4,0.2,0.6,0.6,0.5C28,46.7,28.5,47,29.2,47z"/>
	<path class="st15" d="M27.9,52.5c0.3,0.1,0.6,0.2,0.9,0.3c0.5,0,0.9-0.2,0.4-0.7c-0.3-0.3-0.3-0.6-0.5-1c-0.7-1.1,0-0.9,0.7-0.8
		c0.6,0.4,1.1,0.9,1.7,1.3c0.5,0.3,0.8,0.6,0.6,1.3c-0.2,0.7-0.7,1-1.1,0.9c-1.6-0.2-3.2-0.2-4.5-1.3C26.7,52.5,27.3,52.5,27.9,52.5
		z"/>
	<path class="st17" d="M39.5,43.7c-0.7,0-1.8-1-1.7-1.6c0-0.5,1.6-1.6,2.3-1.7c0.8-0.1,1.4,0.2,1.4,1.1
		C41.5,42.5,40.4,43.7,39.5,43.7z"/>
	<path class="st1" d="M27.2,35.9c-0.1,1.1,0.7,1.2,1.4,1.3c0.1,0.6-0.9,0.6-0.8,1.3c-0.1,0.2-0.2,0.3-0.4,0.5
		c-0.8,0.4-1.3,1.1-1.3,2l0,0c-1,0-1.1,1.1-1.8,1.4c0.3-0.9-0.5-2.1,0.6-2.7c0.8-0.4,0.4-0.8,0.4-1.3c0.2-0.3,0.6-0.4,0.6-0.8
		c0.9,0.1,1.1-0.4,0.8-1.1C26.8,36.3,27,36.1,27.2,35.9z"/>
	<path class="st1" d="M35.8,32.3c0.2-1.1-0.4-1.2-1.3-1c-1.8,0.4-2.8,1.8-3.8,3.1c-0.5,0.6-1,1-1.7,1.2c0.8-2.5,5.3-5.9,8.4-4.8
		c0.6,0.5,0.5,0.9-0.3,1.1C36.7,32.1,36.2,32,35.8,32.3z"/>
	<path class="st17" d="M56.8,42c0,1.3-0.8,1.8-1.8,1.8c-0.9,0-1.4-0.6-1.5-1.5c0-0.8,1.3-1.6,2.3-1.5C56.6,40.9,57,41.3,56.8,42z"/>
	<path class="st15" d="M57,29c2-0.4,4.1,1,4.3,2.8c0.1,0.4,0.1,0.8-0.3,0.9c-0.4,0.2-0.7-0.1-0.9-0.5c-0.3-0.5-0.5-1-0.8-1.4
		c-0.5-0.9-1.2-1.5-2.3-1.3C57,29.4,57,29.2,57,29z"/>
	<path class="st15" d="M24.3,42.3c0.7-0.3,0.9-1.4,1.8-1.4c0.1,0.4-0.1,0.8-0.4,1.1c-0.6,0.8-1.1,1.7-0.8,2.8
		c0.1,0.5-0.2,0.5-0.5,0.6c-0.2,0-0.5-0.1-0.7-0.1c0-0.7,0-1.4,0-2.1C24.2,43.2,24.2,42.7,24.3,42.3z"/>
	<path class="st15" d="M34.9,48.4c-1.4,1.3-2.3,1.2-3-0.3C32.9,48.3,34,47.7,34.9,48.4z"/>
	<path class="st8" d="M55.8,52c0.6-0.1,1.2-0.1,1.8,0.2c0,0.2,0,0.4,0,0.5c-0.4,0-0.6,0.2-0.4,0.6c0.1,0.3,0.1,0.6-0.2,0.8
		C56.1,53.7,56.2,52.8,55.8,52z"/>
	<path class="st15" d="M26,46.7c0.6,1.2,0.5,2.6,0.6,3.9C25.8,49.8,25.4,47.6,26,46.7z"/>
	<path class="st15" d="M26.1,52.5c-2-0.2-1.2-1.7-1.4-2.8C25.8,50.4,25.8,51.5,26.1,52.5z"/>
	<path class="st10" d="M23.7,45.3c0.2,0,0.5,0.1,0.7,0.1c0,0.7,0.1,1.4,0.1,2.2c0,0.3-0.1,0.6-0.1,0.9
		C23.6,47.5,23.6,46.4,23.7,45.3z"/>
	<path class="st15" d="M26.1,40.9c0-0.9,0.5-1.6,1.3-2C27.4,39.8,27.4,40.8,26.1,40.9z"/>
	<path class="st15" d="M27.8,38.4c-0.1-0.7,0.9-0.6,0.8-1.3c0.3,0,0.5,0,0.8,0C29.6,38.5,28.4,38.1,27.8,38.4z"/>
	<path class="st15" d="M24.4,48.4c0-0.3,0.1-0.6,0.1-0.9c0.8,0.7,0.3,1.5,0.2,2.2c-0.3-0.1-0.2-0.4-0.3-0.6
		C24.4,48.9,24.4,48.6,24.4,48.4z"/>
	<path class="st10" d="M67.2,42.9c0.6,0.6,0.7,1.3,0.1,1.9C67.1,44.1,67.1,43.5,67.2,42.9z"/>
	<path class="st15" d="M26.9,45.9c-0.3,0.1-0.6,0.2-0.9,0.3c-0.2-0.1-0.5-0.2-0.3-0.4C26.1,45.5,26.6,45.5,26.9,45.9z"/>
	<path class="st15" d="M27,51.3c0.3,0.1,0.5,0.3,0.5,0.6C27.1,51.9,26.9,51.7,27,51.3z"/>
	<path class="st15" d="M27.5,46.4c-0.4,0-0.6-0.2-0.6-0.5C27.3,45.9,27.5,46.1,27.5,46.4z"/>
	<path class="st10" d="M66.6,40.9c0.5,0.1,0.4,0.5,0.3,0.8C66.6,41.6,66.7,41.2,66.6,40.9z"/>
	<path class="st15" d="M31.9,48.1c-0.1-0.1-0.1-0.2-0.2-0.3C31.8,47.9,31.8,48,31.9,48.1z"/>
	<path class="st10" d="M54.8,26c-2.4-0.5-4.7,0.1-7.1,0.5c-1.1,0.2-2.3,0-3.5,0.3c-1.8,0.5-3.5,1-5.2,1.6c-0.7,0.2,0.6,0.3,0.2,0.7
		c-0.7,0.3-1.4-0.8-2,0.1c-0.6,0-1.1,0-1.7,0c1.4-0.9,3-1.5,4.4-2.3c1.4-0.8,2.8-2,4.6-2.2c0.8-0.1,1.7-0.2,2.5-0.1
		c1.5,0.3,3,0,4.6,0c0.3,0,0.7,0,0.9,0.2c0.5,0.3,0.5,0.1,1.1,0.1s1.3,0.4,2.1,0.4C55.4,25.7,54.9,25.6,54.8,26z"/>
	<path class="st10" d="M58.9,49.1c0.1-0.2,0.2-0.5,0.3-0.6c1.2-0.2,1.4-1.1,1.7-2c0.2-0.5,0.4-0.7,1-0.7c1,0.1,1.7,0.8,2,1.5
		c0.3,0.7-0.3,1.6-1,2c-0.4,0.3-1,0.5-1.5,0.7C60.8,49.3,59.9,48.9,58.9,49.1z"/>
	<path class="st10" d="M64.8,51.1c-0.2-1,0.4-1.8,0.9-2.6c0.3-0.5,0.8-0.6,1.3-0.1c0.2,1.1,0.3,2-0.9,2.8c-1,0.8-0.8,2.5-1,3.8
		c-0.1,0.4,0.1,0.7-0.2,1.1c-0.1,0-0.2,0-0.3,0C64.3,54.4,64.5,52.7,64.8,51.1z"/>
	<path class="st10" d="M28.8,59.1c-0.5,0.3-0.9,0.9-1.6,0.8c-1.1,0-2-0.6-2.9-1.3s-0.2-1.6,0.1-2.1c0.4-0.6,0.6,0.4,1,0.5
		C26.7,57.4,27.7,58.5,28.8,59.1z"/>
	<path class="st10" d="M24.3,42.3c0,0.4-0.1,0.8-0.6,0.8c-0.2-1.2,0.1-2.3,0.3-3.5c0.1-0.7,0.4-1.3,1.3-1.3c0.1,0.5,0.5,0.9-0.4,1.3
		C23.8,40.2,24.6,41.5,24.3,42.3z"/>
	<path class="st10" d="M26.7,36.5c0.3,0.8,0.1,1.2-0.8,1.1C25.6,36.8,25.9,36.5,26.7,36.5z"/>
	<path class="st10" d="M67.3,47.3c0-0.7,0-1.3,0-2C68,46,68,46.6,67.3,47.3z"/>
	<path class="st1" d="M58.9,27.4c-0.3,0-0.6-0.1-0.8-0.1C58.4,27.2,58.7,26.7,58.9,27.4z"/>
	<path class="st12" d="M46.1,69.2c3.3,1.1,6.4,1.8,9.1,3.6c0.7,0.5,0.4,1.3,0.7,1.9c-0.7,0.2-1.5,0.4-2,0.1c-2-1.4-4.3-2.3-6.4-3.5
		C46.7,70.8,46.7,70.1,46.1,69.2z"/>
	<path class="st15" d="M39.3,63.3c-0.2,0.1-0.3,0.2-0.4,0.2c-0.1,0-0.2-0.1-0.3-0.2c0.1-0.1,0.2-0.2,0.3-0.2
		C39,63,39.2,63.2,39.3,63.3z"/>
	<path class="st10" d="M39.4,48.1c0,0.4,0,0.8-0.6,0.8c-0.2,0-0.5-0.2-0.4-0.4C38.5,47.9,39,48.2,39.4,48.1L39.4,48.1z"/>
	<path class="st15" d="M31.5,78.9c1.4,2.1,0.6,4.4-1.8,4.8c-0.7,0.1-1.1-0.1-0.7-0.8C29.8,81.6,30.3,80.1,31.5,78.9z"/>
	<path class="st15" d="M53.8,49.7c-1,0-2-0.5-3-0.3c-0.1-0.2-0.8-0.2-0.2-0.5C51.8,48.3,52.7,49.2,53.8,49.7z"/>
	<path class="st15" d="M64.8,51.1c-0.2,1.7-0.4,3.3-0.2,5c-0.3,0.3-0.6,0.4-0.9,0c-0.8-1.3-1.1-2.7-0.5-4.1
		C63.5,51.2,64.1,51.1,64.8,51.1z"/>
</g>
<text transform="matrix(1 0 0 1 16.5402 96.7004)" class="st18 st19"> </text>
<rect x="-2.2" y="83.5" class="st20" width="83.2" height="28.2"/>
<text transform="matrix(1 0 0 1 102 143)" style="font-family:'MyriadPro-Regular'; font-size:12px;">Lorem ipsum</text>
<g>
	<path d="M97.1,48.1c0,3.7-2.3,5.7-5,5.7c-2.9,0-4.8-2.2-4.8-5.5c0-3.4,2.1-5.7,5-5.7C95.2,42.7,97.1,44.9,97.1,48.1z M88.7,48.3
		c0,2.3,1.2,4.4,3.5,4.4s3.5-2,3.5-4.5c0-2.2-1.1-4.4-3.4-4.4C89.9,43.8,88.7,46,88.7,48.3z"/>
	<path d="M100.8,42.6c-0.4,1.3-1.1,3.1-1.5,3.8l-0.9,0.1c0.3-0.9,0.8-2.6,0.9-3.7L100.8,42.6z"/>
	<path d="M103.8,42.9v4.5h5.2v-4.5h1.4v10.8H109v-5.1h-5.2v5.1h-1.4V42.9H103.8z"/>
	<path d="M113.5,50c0,1.9,1.2,2.7,2.7,2.7c1,0,1.6-0.2,2.1-0.4l0.3,1c-0.5,0.2-1.4,0.5-2.6,0.5c-2.4,0-3.8-1.6-3.8-3.9
		s1.4-4.2,3.6-4.2c2.5,0,3.2,2.2,3.2,3.6c0,0.3,0,0.5,0,0.7H113.5z M117.7,49c0-0.9-0.4-2.3-2-2.3c-1.4,0-2,1.3-2.2,2.3H117.7z"/>
	<path d="M120.8,42.3h1.4v11.4h-1.4V42.3z"/>
	<path d="M125.1,45.9l1.7,4.6c0.2,0.5,0.4,1.1,0.5,1.6h0c0.1-0.5,0.3-1.1,0.5-1.6l1.5-4.5h1.5l-2.1,5.5c-1,2.7-1.7,4-2.7,4.9
		c-0.7,0.6-1.4,0.8-1.7,0.9l-0.4-1.2c0.4-0.1,0.8-0.3,1.2-0.7c0.4-0.3,0.8-0.8,1.2-1.6c0.1-0.1,0.1-0.3,0.1-0.3s0-0.2-0.1-0.4
		l-2.8-7.1H125.1z"/>
	<path d="M132.7,50c0,1.9,1.2,2.7,2.7,2.7c1,0,1.6-0.2,2.1-0.4l0.3,1c-0.5,0.2-1.4,0.5-2.6,0.5c-2.4,0-3.8-1.6-3.8-3.9
		s1.4-4.2,3.6-4.2c2.5,0,3.2,2.2,3.2,3.6c0,0.3,0,0.5,0,0.7H132.7z M136.8,49c0-0.9-0.4-2.3-2-2.3c-1.4,0-2,1.3-2.2,2.3H136.8z"/>
	<path d="M145.4,51.8c0,0.7,0,1.3,0.1,1.9h-1.3l-0.1-1h0c-0.4,0.6-1.3,1.2-2.4,1.2c-1.6,0-2.4-1.1-2.4-2.2c0-1.9,1.7-2.9,4.7-2.9
		v-0.2c0-0.6-0.2-1.8-1.8-1.8c-0.7,0-1.5,0.2-2,0.6l-0.3-0.9c0.6-0.4,1.6-0.7,2.6-0.7c2.4,0,2.9,1.6,2.9,3.2V51.8z M144,49.7
		c-1.5,0-3.3,0.2-3.3,1.7c0,0.9,0.6,1.3,1.3,1.3c1,0,1.7-0.6,1.9-1.3c0-0.2,0.1-0.3,0.1-0.4V49.7z"/>
	<path d="M147.6,42.3h1.4v4.9h0c0.2-0.4,0.6-0.8,1-1c0.4-0.2,0.9-0.4,1.4-0.4c1,0,2.7,0.6,2.7,3.3v4.6h-1.4v-4.4
		c0-1.2-0.5-2.3-1.8-2.3c-0.9,0-1.6,0.6-1.9,1.4c-0.1,0.2-0.1,0.4-0.1,0.7v4.7h-1.4V42.3z"/>
	<path d="M156.2,52.8c0-0.6,0.4-1,1-1c0.6,0,0.9,0.4,0.9,1c0,0.6-0.4,1-1,1C156.6,53.8,156.2,53.4,156.2,52.8z M156.7,50.6l-0.2-7.7
		h1.5l-0.2,7.7H156.7z"/>
	<path d="M89.3,67.5l-1,3H87l3.2-9.4h1.5l3.2,9.4h-1.3l-1-3H89.3z M92.4,66.5l-0.9-2.7c-0.2-0.6-0.4-1.2-0.5-1.7h0
		c-0.1,0.5-0.3,1.1-0.5,1.7l-0.9,2.7H92.4z"/>
	<path d="M96.2,60.5h1.2v9.9h-1.2V60.5z"/>
	<path d="M99.5,60.5h1.2v9.9h-1.2V60.5z"/>
	<path d="M105.8,70.5V61h1.3l3,4.8c0.7,1.1,1.2,2.1,1.7,3.1l0,0c-0.1-1.3-0.1-2.4-0.1-3.9v-4h1.1v9.4h-1.2l-3-4.8
		c-0.7-1-1.3-2.1-1.8-3.2l0,0c0.1,1.2,0.1,2.3,0.1,3.9v4H105.8z"/>
	<path d="M119.8,68.8c0,0.6,0,1.2,0.1,1.6h-1.1l-0.1-0.9h0c-0.4,0.5-1.1,1-2.1,1c-1.4,0-2.1-1-2.1-1.9c0-1.6,1.5-2.5,4.1-2.5V66
		c0-0.5-0.2-1.6-1.5-1.6c-0.6,0-1.3,0.2-1.8,0.5l-0.3-0.8c0.6-0.4,1.4-0.6,2.2-0.6c2.1,0,2.6,1.4,2.6,2.8V68.8z M118.6,67
		c-1.3,0-2.9,0.2-2.9,1.5c0,0.8,0.5,1.2,1.1,1.2c0.9,0,1.5-0.6,1.7-1.1c0-0.1,0.1-0.3,0.1-0.4V67z"/>
	<path d="M123.2,62.1v1.6h1.8v0.9h-1.8v3.7c0,0.8,0.2,1.3,0.9,1.3c0.3,0,0.5,0,0.7-0.1l0.1,0.9c-0.2,0.1-0.6,0.2-1.1,0.2
		c-0.6,0-1-0.2-1.3-0.5c-0.3-0.4-0.5-1-0.5-1.8v-3.7h-1.1v-0.9h1.1v-1.3L123.2,62.1z"/>
	<path d="M132,68.6c0,0.7,0,1.3,0.1,1.9H131l-0.1-1.1h0c-0.3,0.5-1,1.3-2.2,1.3c-1.1,0-2.3-0.6-2.3-3v-4h1.2v3.7
		c0,1.3,0.4,2.2,1.5,2.2c0.8,0,1.4-0.6,1.6-1.1c0.1-0.2,0.1-0.4,0.1-0.6v-4.1h1.2V68.6z"/>
	<path d="M134,65.8c0-0.8,0-1.5-0.1-2.1h1.1l0.1,1.3h0c0.3-0.9,1.1-1.5,1.9-1.5c0.1,0,0.2,0,0.3,0v1.2c-0.1,0-0.3,0-0.4,0
		c-0.9,0-1.5,0.6-1.7,1.6c0,0.2,0,0.4,0,0.6v3.6H134V65.8z"/>
	<path d="M143.3,68.8c0,0.6,0,1.2,0.1,1.6h-1.1l-0.1-0.9h0c-0.4,0.5-1.1,1-2.1,1c-1.4,0-2.1-1-2.1-1.9c0-1.6,1.5-2.5,4.1-2.5V66
		c0-0.5-0.2-1.6-1.5-1.6c-0.6,0-1.3,0.2-1.8,0.5l-0.3-0.8c0.6-0.4,1.4-0.6,2.2-0.6c2.1,0,2.6,1.4,2.6,2.8V68.8z M142.1,67
		c-1.3,0-2.9,0.2-2.9,1.5c0,0.8,0.5,1.2,1.1,1.2c0.9,0,1.5-0.6,1.7-1.1c0-0.1,0.1-0.3,0.1-0.4V67z"/>
	<path d="M145.3,60.5h1.2v9.9h-1.2V60.5z"/>
	<path d="M87.5,76.4c0.4-0.1,1.1-0.2,1.7-0.2c1,0,1.6,0.2,2,0.5c0.4,0.3,0.6,0.7,0.6,1.3c0,0.7-0.5,1.4-1.3,1.6v0
		c0.7,0.2,1.5,0.7,1.5,1.8c0,0.6-0.3,1.1-0.6,1.5c-0.5,0.5-1.3,0.7-2.6,0.7c-0.7,0-1.2,0-1.5-0.1V76.4z M88.5,79.4h0.9
		c1,0,1.6-0.5,1.6-1.3c0-0.9-0.6-1.2-1.6-1.2c-0.4,0-0.7,0-0.8,0.1V79.4z M88.5,82.9c0.2,0,0.5,0,0.8,0c1,0,1.9-0.4,1.9-1.4
		c0-1-0.9-1.4-1.9-1.4h-0.8V82.9z"/>
	<path d="M97.2,82.4c0,0.5,0,0.9,0.1,1.3h-0.9L96.3,83h0c-0.3,0.4-0.9,0.8-1.6,0.8c-1.1,0-1.6-0.8-1.6-1.5c0-1.3,1.1-2,3.2-2v-0.1
		c0-0.4-0.1-1.2-1.2-1.2c-0.5,0-1,0.1-1.4,0.4l-0.2-0.6c0.4-0.3,1.1-0.5,1.8-0.5c1.6,0,2,1.1,2,2.2V82.4z M96.2,80.9
		c-1.1,0-2.3,0.2-2.3,1.2c0,0.6,0.4,0.9,0.9,0.9c0.7,0,1.2-0.4,1.3-0.9c0-0.1,0-0.2,0-0.3V80.9z"/>
	<path d="M99.7,80.8L99.7,80.8c0.2-0.2,0.3-0.4,0.5-0.6l1.6-1.8h1.2l-2,2.2l2.3,3.1H102l-1.8-2.6l-0.5,0.6v2h-1v-7.8h1V80.8z"/>
	<path d="M104.4,81.2c0,1.3,0.8,1.8,1.8,1.8c0.7,0,1.1-0.1,1.5-0.3l0.2,0.7c-0.3,0.2-0.9,0.3-1.8,0.3c-1.6,0-2.6-1.1-2.6-2.7
		s0.9-2.9,2.5-2.9c1.8,0,2.2,1.5,2.2,2.5c0,0.2,0,0.3,0,0.5H104.4z M107.3,80.5c0-0.6-0.3-1.6-1.3-1.6c-1,0-1.4,0.9-1.5,1.6H107.3z"
		/>
	<path d="M114,75.8v6.4c0,0.5,0,1,0,1.4h-0.9l0-0.9h0c-0.3,0.6-0.9,1-1.8,1c-1.3,0-2.3-1.1-2.3-2.7c0-1.8,1.1-2.8,2.4-2.8
		c0.8,0,1.4,0.4,1.6,0.8h0v-3.2H114z M113,80.5c0-0.1,0-0.3,0-0.4c-0.1-0.6-0.7-1.1-1.4-1.1c-1,0-1.6,0.9-1.6,2c0,1.1,0.5,2,1.6,2
		c0.6,0,1.2-0.4,1.4-1.2c0-0.1,0-0.3,0-0.4V80.5z"/>
	<path d="M123.6,83.3c-0.4,0.2-1.3,0.4-2.3,0.4c-1.1,0-2-0.3-2.8-1c-0.6-0.6-1-1.6-1-2.8c0-2.2,1.5-3.8,4-3.8c0.9,0,1.5,0.2,1.9,0.3
		l-0.2,0.8c-0.4-0.2-0.9-0.3-1.6-0.3c-1.8,0-3,1.1-3,3c0,1.9,1.1,3,2.9,3c0.6,0,1.1-0.1,1.3-0.2v-2.2h-1.5v-0.8h2.4V83.3z"/>
	<path d="M129.9,81c0,2-1.4,2.8-2.7,2.8c-1.4,0-2.6-1.1-2.6-2.7c0-1.8,1.2-2.8,2.6-2.8C128.9,78.2,129.9,79.3,129.9,81z M125.7,81
		c0,1.2,0.7,2,1.6,2c0.9,0,1.6-0.9,1.6-2.1c0-0.9-0.5-2-1.6-2C126.2,78.9,125.7,80,125.7,81z"/>
	<path d="M136,81c0,2-1.4,2.8-2.7,2.8c-1.4,0-2.6-1.1-2.6-2.7c0-1.8,1.2-2.8,2.6-2.8C134.9,78.2,136,79.3,136,81z M131.7,81
		c0,1.2,0.7,2,1.6,2c0.9,0,1.6-0.9,1.6-2.1c0-0.9-0.5-2-1.6-2C132.2,78.9,131.7,80,131.7,81z"/>
	<path d="M141.8,75.8v6.4c0,0.5,0,1,0,1.4H141l0-0.9h0c-0.3,0.6-0.9,1-1.8,1c-1.3,0-2.3-1.1-2.3-2.7c0-1.8,1.1-2.8,2.4-2.8
		c0.8,0,1.4,0.4,1.6,0.8h0v-3.2H141.8z M140.8,80.5c0-0.1,0-0.3,0-0.4c-0.1-0.6-0.7-1.1-1.4-1.1c-1,0-1.6,0.9-1.6,2
		c0,1.1,0.5,2,1.6,2c0.6,0,1.2-0.4,1.4-1.2c0-0.1,0-0.3,0-0.4V80.5z"/>
	<path d="M143.2,82.7c0.3,0.2,0.8,0.4,1.3,0.4c0.7,0,1-0.3,1-0.8c0-0.5-0.3-0.7-1-1c-1-0.4-1.4-0.9-1.4-1.5c0-0.9,0.7-1.6,1.8-1.6
		c0.5,0,1,0.1,1.3,0.3l-0.2,0.7c-0.2-0.1-0.6-0.3-1.1-0.3c-0.6,0-0.9,0.3-0.9,0.7c0,0.4,0.3,0.6,1,0.9c0.9,0.3,1.4,0.8,1.4,1.6
		c0,0.9-0.7,1.6-2,1.6c-0.6,0-1.1-0.2-1.5-0.4L143.2,82.7z"/>
</g>
</svg>
